<svg xmlns="http://www.w3.org/2000/svg" xmlns:xlink="http://www.w3.org/1999/xlink" viewBox="0 0 357.88 267.34"><defs><linearGradient id="a" x1="309.17" y1="206.3" x2="351.83" y2="234.3" gradientUnits="userSpaceOnUse"><stop offset="0.09" stop-color="#7c1dc9"/><stop offset="0.2" stop-color="#62179f"/><stop offset="0.34" stop-color="#44106f"/><stop offset="0.48" stop-color="#2c0a47"/><stop offset="0.62" stop-color="#190628"/><stop offset="0.75" stop-color="#0b0312"/><stop offset="0.88" stop-color="#030105"/><stop offset="1"/></linearGradient><linearGradient id="b" x1="305.02" y1="212.61" x2="347.69" y2="240.61" xlink:href="#a"/><linearGradient id="c" x1="309.61" y1="205.62" x2="352.28" y2="233.62" xlink:href="#a"/><linearGradient id="d" x1="309.36" y1="206.01" x2="352.02" y2="234.01" xlink:href="#a"/><linearGradient id="e" x1="305.21" y1="212.32" x2="347.88" y2="240.33" xlink:href="#a"/><linearGradient id="f" x1="307.03" y1="209.56" x2="349.69" y2="237.56" xlink:href="#a"/><linearGradient id="g" x1="307.29" y1="209.16" x2="349.95" y2="237.16" xlink:href="#a"/><linearGradient id="h" x1="308.92" y1="206.68" x2="351.58" y2="234.68" xlink:href="#a"/><linearGradient id="i" x1="307.76" y1="208.44" x2="350.43" y2="236.44" xlink:href="#a"/><linearGradient id="j" x1="307.53" y1="208.8" x2="350.2" y2="236.8" xlink:href="#a"/><linearGradient id="k" x1="308.67" y1="207.05" x2="351.34" y2="235.05" xlink:href="#a"/><linearGradient id="l" x1="302.38" y1="216.64" x2="345.05" y2="244.64" xlink:href="#a"/><linearGradient id="m" x1="304.47" y1="213.46" x2="347.13" y2="241.46" xlink:href="#a"/><linearGradient id="n" x1="306.58" y1="210.25" x2="349.24" y2="238.25" xlink:href="#a"/><linearGradient id="o" x1="306.77" y1="209.95" x2="349.44" y2="237.95" xlink:href="#a"/><linearGradient id="p" x1="304.77" y1="212.99" x2="347.44" y2="240.99" xlink:href="#a"/><linearGradient id="q" x1="302.63" y1="216.26" x2="345.3" y2="244.26" xlink:href="#a"/><linearGradient id="r" x1="303.34" y1="215.18" x2="346" y2="243.18" xlink:href="#a"/><linearGradient id="s" x1="302.82" y1="215.97" x2="345.49" y2="243.97" xlink:href="#a"/><linearGradient id="t" x1="303.08" y1="215.58" x2="345.74" y2="243.58" xlink:href="#a"/><linearGradient id="u" x1="295.25" y1="236.55" x2="337.92" y2="264.55" xlink:href="#a"/><linearGradient id="v" x1="291.11" y1="242.86" x2="333.77" y2="270.86" xlink:href="#a"/><linearGradient id="w" x1="295.7" y1="235.87" x2="338.36" y2="263.87" xlink:href="#a"/><linearGradient id="x" x1="295.44" y1="236.26" x2="338.11" y2="264.26" xlink:href="#a"/><linearGradient id="y" x1="291.3" y1="242.58" x2="333.96" y2="270.58" xlink:href="#a"/><linearGradient id="z" x1="293.11" y1="239.81" x2="335.78" y2="267.81" xlink:href="#a"/><linearGradient id="aa" x1="293.37" y1="239.41" x2="336.04" y2="267.41" xlink:href="#a"/><linearGradient id="ab" x1="295" y1="236.93" x2="337.67" y2="264.93" xlink:href="#a"/><linearGradient id="ac" x1="293.84" y1="238.69" x2="336.51" y2="266.69" xlink:href="#a"/><linearGradient id="ad" x1="293.61" y1="239.05" x2="336.28" y2="267.05" xlink:href="#a"/><linearGradient id="ae" x1="294.76" y1="237.3" x2="337.42" y2="265.3" xlink:href="#a"/><linearGradient id="af" x1="288.47" y1="246.89" x2="331.13" y2="274.89" xlink:href="#a"/><linearGradient id="ag" x1="290.55" y1="243.71" x2="333.22" y2="271.71" xlink:href="#a"/><linearGradient id="ah" x1="292.66" y1="240.5" x2="335.33" y2="268.5" xlink:href="#a"/><linearGradient id="ai" x1="292.85" y1="240.2" x2="335.52" y2="268.2" xlink:href="#a"/><linearGradient id="aj" x1="290.86" y1="243.24" x2="333.52" y2="271.24" xlink:href="#a"/><linearGradient id="ak" x1="288.71" y1="246.51" x2="331.38" y2="274.51" xlink:href="#a"/><linearGradient id="al" x1="289.42" y1="245.43" x2="332.09" y2="273.43" xlink:href="#a"/><linearGradient id="am" x1="288.9" y1="246.22" x2="331.57" y2="274.22" xlink:href="#a"/><linearGradient id="an" x1="289.16" y1="245.83" x2="331.83" y2="273.83" xlink:href="#a"/><linearGradient id="ao" x1="547.61" y1="208.33" x2="647.21" y2="188.46" gradientUnits="userSpaceOnUse"><stop offset="0" stop-color="#9f79c8"/><stop offset="0.14" stop-color="#a580cb"/><stop offset="0.33" stop-color="#b492d3"/><stop offset="0.55" stop-color="#cdb0e1"/><stop offset="0.58" stop-color="#d1b4e3"/><stop offset="0.76" stop-color="#dbc4e9"/><stop offset="1" stop-color="#ebdef3"/></linearGradient><linearGradient id="ap" x1="-1254.17" y1="-144.35" x2="-1541.57" y2="-361.6" gradientTransform="matrix(0.87, 0.5, -1.5, 0.29, 1279.65, 1036.21)" gradientUnits="userSpaceOnUse"><stop offset="0.03" stop-color="#7c1dc9"/><stop offset="0.21" stop-color="#6e41d2"/><stop offset="0.62" stop-color="#4c9be8"/><stop offset="1" stop-color="#2af6ff"/></linearGradient><radialGradient id="aq" cx="2625.71" cy="307.77" r="130.13" gradientTransform="translate(-2178.28)" gradientUnits="userSpaceOnUse"><stop offset="0" stop-color="#fff"/><stop offset="1"/></radialGradient><linearGradient id="ar" x1="154.17" y1="251.27" x2="214.25" y2="62.02" gradientUnits="userSpaceOnUse"><stop offset="0.06" stop-color="#e6e7e8"/><stop offset="1" stop-color="#fafafb"/></linearGradient><linearGradient id="as" x1="506.32" y1="238.7" x2="586.57" y2="173.95" xlink:href="#ao"/><radialGradient id="at" cx="564.2" cy="193.82" r="5.49" gradientTransform="matrix(1, 0, 0, 1, 0, 0)" xlink:href="#aq"/><radialGradient id="au" cx="575.88" cy="200.65" r="4.09" gradientTransform="matrix(1, 0, 0, 1, 0, 0)" xlink:href="#aq"/><radialGradient id="av" cx="545.11" cy="212.41" r="36.22" gradientTransform="matrix(1, 0, 0, 1, 0, 0)" xlink:href="#aq"/><radialGradient id="aw" cx="262.46" cy="126.8" r="39.8" gradientTransform="matrix(1, 0, 0, 1, 0, 0)" xlink:href="#aq"/><linearGradient id="ax" x1="275.78" y1="97.53" x2="308.11" y2="65.53" xlink:href="#ao"/><linearGradient id="ay" x1="217.95" y1="59.05" x2="464.17" y2="-96.51" gradientUnits="userSpaceOnUse"><stop offset="0.1" stop-color="#45108a"/><stop offset="1" stop-color="#7c1dc9"/></linearGradient><linearGradient id="az" x1="250.52" y1="143.47" x2="298.98" y2="252.21" xlink:href="#ao"/><linearGradient id="ba" x1="157.62" y1="88.97" x2="219.44" y2="122.86" xlink:href="#ao"/><linearGradient id="bb" x1="224.77" y1="139.87" x2="318.04" y2="93.45" xlink:href="#ay"/><linearGradient id="bc" x1="126.01" y1="68.98" x2="149.32" y2="191.9" xlink:href="#ao"/><linearGradient id="bd" x1="138.98" y1="190.29" x2="161.06" y2="36.89" gradientUnits="userSpaceOnUse"><stop offset="0" stop-color="#25054d"/><stop offset="1" stop-color="#45108a"/></linearGradient><linearGradient id="be" x1="174.4" y1="137.99" x2="273.41" y2="80.5" xlink:href="#ao"/><linearGradient id="bf" x1="147.32" y1="130.15" x2="208.32" y2="69.36" xlink:href="#ao"/><linearGradient id="bg" x1="85.35" y1="127.95" x2="142.56" y2="115.13" gradientUnits="userSpaceOnUse"><stop offset="0.04" stop-color="#138bbd"/><stop offset="0.23" stop-color="#169ac7"/><stop offset="0.59" stop-color="#1fc3df"/><stop offset="1" stop-color="#2af6ff"/></linearGradient><linearGradient id="bh" x1="132.15" y1="87.12" x2="107.6" y2="118.16" xlink:href="#bg"/><linearGradient id="bi" x1="354.31" y1="237.69" x2="411.52" y2="224.86" xlink:href="#ay"/><linearGradient id="bj" x1="101.22" y1="116.36" x2="161.38" y2="128.91" xlink:href="#ao"/><linearGradient id="bk" x1="105.03" y1="145.78" x2="162.24" y2="132.96" xlink:href="#bg"/><linearGradient id="bl" x1="112.14" y1="112.97" x2="138.85" y2="146.94" xlink:href="#bg"/><linearGradient id="bm" x1="137.34" y1="157.52" x2="194.56" y2="144.7" xlink:href="#bg"/><linearGradient id="bn" x1="183.74" y1="99.25" x2="154.56" y2="157.77" xlink:href="#bg"/><linearGradient id="bo" x1="111.76" y1="105.71" x2="155.22" y2="95.97" xlink:href="#bg"/><linearGradient id="bp" x1="406.31" y1="267.26" x2="463.52" y2="254.43" xlink:href="#ay"/><linearGradient id="bq" x1="116.19" y1="101.29" x2="139.81" y2="93.26" xlink:href="#bg"/><linearGradient id="br" x1="380.73" y1="215.45" x2="424.18" y2="205.71" xlink:href="#ay"/><linearGradient id="bs" x1="374" y1="255.52" x2="431.21" y2="242.7" xlink:href="#ay"/><linearGradient id="bt" x1="190.46" y1="150.21" x2="239.85" y2="135.42" xlink:href="#ay"/><linearGradient id="bu" x1="195.67" y1="111.92" x2="223.95" y2="103.46" xlink:href="#bg"/><linearGradient id="bv" x1="464.64" y1="221.66" x2="492.92" y2="213.19" xlink:href="#ay"/><linearGradient id="bw" x1="153.93" y1="160.79" x2="144.75" y2="54.16" xlink:href="#bd"/><linearGradient id="bx" x1="203.84" y1="175.27" x2="208.12" y2="184.89" xlink:href="#ao"/><linearGradient id="by" x1="162.02" y1="96.65" x2="182.71" y2="188.22" xlink:href="#ao"/><linearGradient id="bz" x1="232.78" y1="107.35" x2="193.38" y2="182.44" xlink:href="#ao"/><linearGradient id="ca" x1="475.13" y1="250.9" x2="461.47" y2="259.24" gradientTransform="translate(452.35 -270.43) rotate(59.69)" gradientUnits="userSpaceOnUse"><stop offset="0.02" stop-color="#45108a"/><stop offset="0.29" stop-color="#3d065f"/><stop offset="1" stop-color="#12054e"/><stop offset="1" stop-color="#10054d"/></linearGradient><linearGradient id="cb" x1="174.93" y1="101.83" x2="157.79" y2="88.25" gradientUnits="userSpaceOnUse"><stop offset="0" stop-color="#fff"/><stop offset="1" stop-color="#bcbec0"/></linearGradient><linearGradient id="cc" x1="200.62" y1="138.26" x2="199.54" y2="183.04" xlink:href="#ao"/><linearGradient id="cd" x1="6227.97" y1="164.57" x2="6221.91" y2="41.97" gradientTransform="matrix(-1, 0, 0, 1, 6398.72, -109.74)" gradientUnits="userSpaceOnUse"><stop offset="0" stop-color="#8c58c4"/><stop offset="0.14" stop-color="#915fc6"/><stop offset="0.33" stop-color="#9e71cd"/><stop offset="0.56" stop-color="#b38fd7"/><stop offset="0.81" stop-color="#d0b8e6"/><stop offset="1" stop-color="#ebdef3"/></linearGradient><linearGradient id="ce" x1="6178.32" y1="180.7" x2="6193.2" y2="177.36" gradientTransform="matrix(-1, 0, 0, 1, 6398.72, -109.74)" xlink:href="#ao"/><linearGradient id="cf" x1="6293.23" y1="25.78" x2="6209.29" y2="185.74" gradientTransform="matrix(-1, 0, 0, 1, 6398.72, -109.74)" xlink:href="#ao"/><linearGradient id="cg" x1="6229.63" y1="160.3" x2="6240.04" y2="170.49" xlink:href="#cd"/><linearGradient id="ch" x1="6205.58" y1="178.06" x2="6205.58" y2="126.32" gradientTransform="matrix(-1, 0, 0, 1, 6398.72, -109.74)" gradientUnits="userSpaceOnUse"><stop offset="0" stop-color="#fdd65b"/><stop offset="0.01" stop-color="#f7d159"/><stop offset="0.13" stop-color="#bea144"/><stop offset="0.25" stop-color="#8b7632"/><stop offset="0.37" stop-color="#605223"/><stop offset="0.49" stop-color="#3e3416"/><stop offset="0.62" stop-color="#231d0c"/><stop offset="0.74" stop-color="#0f0d05"/><stop offset="0.87" stop-color="#040301"/><stop offset="1"/></linearGradient><linearGradient id="ci" x1="1282.31" y1="111.74" x2="1302.46" y2="148.5" gradientTransform="translate(-827.24)" gradientUnits="userSpaceOnUse"><stop offset="0" stop-color="#ffbb96"/><stop offset="0.23" stop-color="#fffbc9"/><stop offset="0.54" stop-color="#f9b673"/><stop offset="0.64" stop-color="#f9b876"/><stop offset="0.72" stop-color="#fabe81"/><stop offset="0.81" stop-color="#fcc993"/><stop offset="0.86" stop-color="#fed2a3"/><stop offset="0.97" stop-color="#ffc28c"/></linearGradient><linearGradient id="cj" x1="1279.89" y1="135.23" x2="1326.96" y2="121.14" gradientTransform="translate(-584.14 -631.25) rotate(30.31)" gradientUnits="userSpaceOnUse"><stop offset="0.04" stop-color="#ffba78"/><stop offset="0.4" stop-color="#ffc987"/><stop offset="1" stop-color="#feeca8"/></linearGradient><linearGradient id="ck" x1="6196.94" y1="139.86" x2="6243.87" y2="111.57" gradientTransform="matrix(-0.86, -0.5, -0.5, 0.86, 5886.24, 3151.37)" xlink:href="#cj"/><linearGradient id="cl" x1="1284.72" y1="147.05" x2="1287.19" y2="124.86" xlink:href="#ci"/><radialGradient id="cm" cx="4427.83" cy="-877.34" r="19.75" gradientTransform="matrix(0.28, -0.25, 0.44, 0.49, -390.46, 1668.94)" gradientUnits="userSpaceOnUse"><stop offset="0" stop-color="#f49587"/><stop offset="0.12" stop-color="#bd7368"/><stop offset="0.24" stop-color="#8b554d"/><stop offset="0.36" stop-color="#603b35"/><stop offset="0.48" stop-color="#3e2622"/><stop offset="0.61" stop-color="#231513"/><stop offset="0.74" stop-color="#0f0908"/><stop offset="0.86" stop-color="#040202"/><stop offset="1"/></radialGradient><linearGradient id="cn" x1="1286.59" y1="109.4" x2="1306.61" y2="145.91" xlink:href="#ci"/><radialGradient id="co" cx="1291.74" cy="126.04" r="16.11" gradientTransform="translate(-827.24)" xlink:href="#aq"/><linearGradient id="cp" x1="5537.48" y1="-628.08" x2="5538.38" y2="-636.16" gradientTransform="matrix(-0.61, 0.46, 0.61, 1.17, 3970.23, -1800.66)" xlink:href="#ci"/><linearGradient id="cq" x1="5538.05" y1="-625.16" x2="5539.65" y2="-639.49" gradientTransform="matrix(-0.61, 0.46, 0.61, 1.17, 3970.23, -1800.66)" xlink:href="#cj"/><radialGradient id="cr" cx="6211.26" cy="136.32" r="7.7" gradientTransform="matrix(-1, 0, 0, 1, 6398.72, -109.74)" xlink:href="#aq"/><radialGradient id="cs" cx="6215.91" cy="133.35" r="10.87" gradientTransform="matrix(-1, 0, 0, 1, 6398.72, -109.74)" xlink:href="#aq"/><linearGradient id="ct" x1="421.92" y1="319.4" x2="429.44" y2="342.8" gradientUnits="userSpaceOnUse"><stop offset="0" stop-color="#bcbcd6"/><stop offset="0.22" stop-color="#c3c3da"/><stop offset="0.52" stop-color="#d5d5e5"/><stop offset="0.88" stop-color="#f3f3f7"/><stop offset="1" stop-color="#fff"/></linearGradient><linearGradient id="cu" x1="429.32" y1="323.41" x2="446" y2="351.36" xlink:href="#ct"/><linearGradient id="cv" x1="436.84" y1="338.94" x2="435.57" y2="320.52" gradientTransform="matrix(1, 0, 0, 1, 0, 0)" xlink:href="#cj"/><linearGradient id="cw" x1="422.66" y1="299.67" x2="440.03" y2="342.65" gradientTransform="matrix(1, 0, 0, 1, 0, 0)" xlink:href="#cj"/><radialGradient id="cx" cx="423.34" cy="349.24" r="13.43" gradientTransform="matrix(1, 0, 0, 1, 0, 0)" xlink:href="#aq"/><linearGradient id="cy" x1="418.23" y1="337.23" x2="419.34" y2="339.29" gradientTransform="matrix(1, 0, 0, 1, 0, 0)" xlink:href="#cj"/><radialGradient id="cz" cx="429.83" cy="320.73" r="1.47" gradientTransform="matrix(1, 0, 0, 1, 0, 0)" xlink:href="#aq"/><radialGradient id="da" cx="139.13" cy="234.48" r="12.44" gradientTransform="matrix(1, 0, 0, 1, 0, 0)" xlink:href="#aq"/><radialGradient id="db" cx="460.51" cy="312.38" r="5.61" gradientTransform="matrix(1, 0, 0, 1, 0, 0)" xlink:href="#aq"/><radialGradient id="dc" cx="156.44" cy="217.27" r="0.81" gradientTransform="matrix(1, 0, 0, 1, 0, 0)" xlink:href="#aq"/><radialGradient id="dd" cx="449.94" cy="329.35" r="20.92" gradientTransform="matrix(1, 0, 0, 1, 0, 0)" xlink:href="#aq"/><radialGradient id="de" cx="147.38" cy="231.3" r="8.12" gradientTransform="matrix(1, 0, 0, 1, 0, 0)" xlink:href="#aq"/><radialGradient id="df" cx="152.63" cy="228.21" r="8.2" gradientTransform="matrix(1, 0, 0, 1, 0, 0)" xlink:href="#aq"/><linearGradient id="dg" x1="148.77" y1="209.58" x2="151.31" y2="216.36" gradientTransform="matrix(1, 0, 0, 1, 0, 0)" xlink:href="#cj"/><linearGradient id="dh" x1="440.19" y1="312.56" x2="417.48" y2="341.79" xlink:href="#ct"/><linearGradient id="di" x1="426.49" y1="338.77" x2="425.22" y2="320.34" gradientTransform="matrix(1, 0, 0, 1, 0, 0)" xlink:href="#cj"/><linearGradient id="dj" x1="409.82" y1="284.4" x2="429.51" y2="335.43" gradientTransform="matrix(1, 0, 0, 1, 0, 0)" xlink:href="#cj"/><linearGradient id="dk" x1="413.06" y1="290.53" x2="429.57" y2="333.31" gradientTransform="matrix(1, 0, 0, 1, 0, 0)" xlink:href="#cj"/><linearGradient id="dl" x1="430.22" y1="313.32" x2="453.24" y2="302.21" gradientUnits="userSpaceOnUse"><stop offset="0.23" stop-color="#fffbc9"/><stop offset="0.54" stop-color="#f9b673"/><stop offset="0.64" stop-color="#f9b876"/><stop offset="0.72" stop-color="#fabe81"/><stop offset="0.81" stop-color="#fcc993"/><stop offset="0.86" stop-color="#fed2a3"/><stop offset="0.97" stop-color="#ffc28c"/></linearGradient><linearGradient id="dm" x1="110.22" y1="229.47" x2="125.78" y2="235.93" gradientTransform="matrix(1, 0, 0, 1, 0, 0)" xlink:href="#cj"/><linearGradient id="dn" x1="122.76" y1="227.25" x2="133.55" y2="231.73" gradientTransform="matrix(1, 0, 0, 1, 0, 0)" xlink:href="#cj"/><linearGradient id="do" x1="131.88" y1="224.21" x2="142.67" y2="228.69" gradientTransform="matrix(1, 0, 0, 1, 0, 0)" xlink:href="#cj"/><linearGradient id="dp" x1="141.02" y1="221.16" x2="152.03" y2="225.73" gradientTransform="matrix(1, 0, 0, 1, 0, 0)" xlink:href="#cj"/><linearGradient id="dq" x1="160.71" y1="218.71" x2="169.88" y2="222.52" gradientTransform="matrix(1, 0, 0, 1, 0, 0)" xlink:href="#cj"/><radialGradient id="dr" cx="457.7" cy="309.49" r="5.64" gradientTransform="matrix(1, 0, 0, 1, 0, 0)" xlink:href="#aq"/><radialGradient id="ds" cx="444.31" cy="335.81" r="28.35" gradientTransform="matrix(1, 0, 0, 1, 0, 0)" xlink:href="#aq"/><linearGradient id="dt" x1="463.76" y1="318.77" x2="473.37" y2="288.49" gradientUnits="userSpaceOnUse"><stop offset="0" stop-color="#7e7f90"/><stop offset="0.53" stop-color="#9d9eb3"/><stop offset="1" stop-color="#d4d1d8"/></linearGradient><radialGradient id="du" cx="457.89" cy="306.43" r="12.5" gradientTransform="translate(7.43 -9.02) rotate(0.21)" gradientUnits="userSpaceOnUse"><stop offset="0" stop-color="#fff"/><stop offset="0.33" stop-color="#b7b6b6"/><stop offset="1"/></radialGradient><radialGradient id="dv" cx="464.61" cy="310.17" r="9.22" xlink:href="#du"/><radialGradient id="dw" cx="8221.43" cy="10756.33" r="9.03" gradientTransform="matrix(0.4, -0.61, -0.6, -0.3, 3676.71, 8624.59)" gradientUnits="userSpaceOnUse"><stop offset="0" stop-color="#f49587"/><stop offset="0.01" stop-color="#ee9184"/><stop offset="0.08" stop-color="#bc7368"/><stop offset="0.16" stop-color="#90584f"/><stop offset="0.24" stop-color="#69403a"/><stop offset="0.33" stop-color="#482c28"/><stop offset="0.42" stop-color="#2e1c19"/><stop offset="0.52" stop-color="#19100e"/><stop offset="0.64" stop-color="#0b0706"/><stop offset="0.77" stop-color="#030201"/><stop offset="1"/></radialGradient><radialGradient id="dx" cx="408.78" cy="332.98" r="5.47" gradientTransform="matrix(1, 0, 0, 1, 0, 0)" xlink:href="#aq"/><radialGradient id="dy" cx="423.55" cy="329.59" r="5.04" gradientTransform="matrix(1, 0, 0, 1, 0, 0)" xlink:href="#aq"/><linearGradient id="dz" x1="405.86" y1="326.79" x2="407.13" y2="330.77" gradientTransform="matrix(1, 0, 0, 1, 0, 0)" xlink:href="#cj"/><linearGradient id="ea" x1="422.8" y1="324.19" x2="423.89" y2="327.59" gradientTransform="matrix(1, 0, 0, 1, 0, 0)" xlink:href="#cj"/><radialGradient id="eb" cx="4855.79" cy="-1376.09" r="12.01" gradientTransform="matrix(0.25, -0.28, 0.44, 0.4, -179.87, 2231.8)" xlink:href="#cm"/><linearGradient id="ec" x1="309.17" y1="203.11" x2="351.83" y2="231.11" xlink:href="#a"/><linearGradient id="ed" x1="305.02" y1="209.42" x2="347.69" y2="237.43" xlink:href="#a"/><linearGradient id="ee" x1="309.61" y1="202.43" x2="352.28" y2="230.43" xlink:href="#a"/><linearGradient id="ef" x1="309.36" y1="202.82" x2="352.02" y2="230.82" xlink:href="#a"/><linearGradient id="eg" x1="305.21" y1="209.14" x2="347.88" y2="237.14" xlink:href="#a"/><linearGradient id="eh" x1="307.03" y1="206.37" x2="349.69" y2="234.37" xlink:href="#a"/><linearGradient id="ei" x1="307.29" y1="205.98" x2="349.95" y2="233.98" xlink:href="#a"/><linearGradient id="ej" x1="308.92" y1="203.49" x2="351.58" y2="231.49" xlink:href="#a"/><linearGradient id="ek" x1="307.76" y1="205.25" x2="350.43" y2="233.25" xlink:href="#a"/><linearGradient id="el" x1="307.53" y1="205.61" x2="350.2" y2="233.61" xlink:href="#a"/><linearGradient id="em" x1="308.67" y1="203.86" x2="351.34" y2="231.86" xlink:href="#a"/><linearGradient id="en" x1="302.38" y1="213.45" x2="345.05" y2="241.45" xlink:href="#a"/><linearGradient id="eo" x1="304.47" y1="210.27" x2="347.13" y2="238.27" xlink:href="#a"/><linearGradient id="ep" x1="306.58" y1="207.06" x2="349.24" y2="235.06" xlink:href="#a"/><linearGradient id="eq" x1="306.77" y1="206.76" x2="349.44" y2="234.76" xlink:href="#a"/><linearGradient id="er" x1="304.77" y1="209.81" x2="347.44" y2="237.81" xlink:href="#a"/><linearGradient id="es" x1="302.63" y1="213.07" x2="345.3" y2="241.07" xlink:href="#a"/><linearGradient id="et" x1="303.34" y1="212" x2="346" y2="240" xlink:href="#a"/><linearGradient id="eu" x1="302.82" y1="212.78" x2="345.49" y2="240.78" xlink:href="#a"/><linearGradient id="ev" x1="303.08" y1="212.39" x2="345.74" y2="240.39" xlink:href="#a"/><linearGradient id="ew" x1="295.25" y1="233.36" x2="337.92" y2="261.36" xlink:href="#a"/><linearGradient id="ex" x1="291.11" y1="239.67" x2="333.77" y2="267.68" xlink:href="#a"/><linearGradient id="ey" x1="295.7" y1="232.68" x2="338.36" y2="260.68" xlink:href="#a"/><linearGradient id="ez" x1="295.44" y1="233.07" x2="338.11" y2="261.07" xlink:href="#a"/><linearGradient id="fa" x1="291.3" y1="239.39" x2="333.96" y2="267.39" xlink:href="#a"/><linearGradient id="fb" x1="293.11" y1="236.62" x2="335.78" y2="264.62" xlink:href="#a"/><linearGradient id="fc" x1="293.37" y1="236.23" x2="336.04" y2="264.23" xlink:href="#a"/><linearGradient id="fd" x1="295" y1="233.74" x2="337.67" y2="261.74" xlink:href="#a"/><linearGradient id="fe" x1="293.84" y1="235.5" x2="336.51" y2="263.5" xlink:href="#a"/><linearGradient id="ff" x1="293.61" y1="235.86" x2="336.28" y2="263.86" xlink:href="#a"/><linearGradient id="fg" x1="294.76" y1="234.11" x2="337.42" y2="262.11" xlink:href="#a"/><linearGradient id="fh" x1="288.47" y1="243.7" x2="331.13" y2="271.7" xlink:href="#a"/><linearGradient id="fi" x1="290.55" y1="240.52" x2="333.22" y2="268.52" xlink:href="#a"/><linearGradient id="fj" x1="292.66" y1="237.31" x2="335.33" y2="265.31" xlink:href="#a"/><linearGradient id="fk" x1="292.85" y1="237.01" x2="335.52" y2="265.01" xlink:href="#a"/><linearGradient id="fl" x1="290.86" y1="240.06" x2="333.52" y2="268.06" xlink:href="#a"/><linearGradient id="fm" x1="288.71" y1="243.32" x2="331.38" y2="271.32" xlink:href="#a"/><linearGradient id="fn" x1="289.42" y1="242.25" x2="332.09" y2="270.25" xlink:href="#a"/><linearGradient id="fo" x1="288.9" y1="243.03" x2="331.57" y2="271.03" xlink:href="#a"/><linearGradient id="fp" x1="289.16" y1="242.64" x2="331.83" y2="270.64" xlink:href="#a"/><linearGradient id="fq" x1="-157.37" y1="1146.17" x2="-44.53" y2="1341.62" gradientTransform="matrix(0.18, 0, 0, -0.18, 106.46, 379.18)" gradientUnits="userSpaceOnUse"><stop offset="0" stop-color="#fff"/><stop offset="0.01" stop-color="#fffffa"/><stop offset="0.22" stop-color="#ffff90"/><stop offset="0.38" stop-color="#ffff43"/><stop offset="0.5" stop-color="#ffff13"/><stop offset="0.56" stop-color="#ff0"/><stop offset="1" stop-color="#ff9300"/></linearGradient><linearGradient id="fr" x1="-371.83" y1="1159.9" x2="-211.35" y2="1437.87" gradientTransform="matrix(0.18, 0, 0, -0.18, 106.46, 379.18)" gradientUnits="userSpaceOnUse"><stop offset="0" stop-color="#fff"/><stop offset="0.28" stop-color="#ffff1e"/><stop offset="0.32" stop-color="#ff0"/><stop offset="1" stop-color="#ff9300"/></linearGradient><linearGradient id="fs" x1="-339.22" y1="1086.13" x2="41.98" y2="1086.13" gradientTransform="matrix(0.18, 0, 0, -0.18, 106.46, 379.18)" gradientUnits="userSpaceOnUse"><stop offset="0" stop-color="#ff9300"/><stop offset="1" stop-color="#ff0"/></linearGradient></defs><title>Edited</title><g style="isolation:isolate"><g style="opacity:0.2;mix-blend-mode:color-dodge"><polygon points="323.62 216.71 325.25 215.77 323.23 214.6 321.6 215.54 323.62 216.71" style="fill:url(#a)"/><polygon points="319.54 223.06 321.17 222.12 319.14 220.95 317.51 221.9 319.54 223.06" style="fill:url(#b)"/><polygon points="332.05 221.58 337.79 224.89 339.42 223.95 333.69 220.64 332.05 221.58" style="fill:url(#c)"/><polygon points="330.7 220.8 332.34 219.86 326.6 216.55 324.97 217.49 330.7 220.8" style="fill:url(#d)"/><polygon points="328.25 226.21 322.52 222.9 320.88 223.84 326.62 227.16 328.25 226.21" style="fill:url(#e)"/><polygon points="322.21 220.25 323.84 219.31 316.76 215.22 315.13 216.16 322.21 220.25" style="fill:url(#f)"/><polygon points="329.83 222.77 325.19 220.09 323.56 221.03 328.2 223.71 329.83 222.77" style="fill:url(#g)"/><polygon points="320.25 214.76 321.88 213.82 312.77 208.56 311.14 209.51 320.25 214.76" style="fill:url(#h)"/><polygon points="342.68 230.19 338.52 227.78 336.88 228.73 341.05 231.13 342.68 230.19" style="fill:url(#i)"/><polygon points="337.17 227 331.18 223.55 329.55 224.49 335.54 227.95 337.17 227" style="fill:url(#j)"/><polygon points="311.42 207.78 309.77 206.83 308.13 207.77 309.79 208.73 311.42 207.78" style="fill:url(#k)"/><polygon points="306.26 217.87 298.45 213.36 296.82 214.31 304.63 218.81 306.26 217.87" style="fill:url(#l)"/><polygon points="307.34 214.13 302.23 211.18 300.59 212.13 305.7 215.08 307.34 214.13" style="fill:url(#m)"/><polygon points="309.68 211.13 306 209.01 304.36 209.95 308.04 212.07 309.68 211.13" style="fill:url(#n)"/><polygon points="313.78 215.38 315.41 214.44 311.02 211.91 309.39 212.85 313.78 215.38" style="fill:url(#o)"/><polygon points="316.16 221.12 317.8 220.17 308.69 214.91 307.05 215.86 316.16 221.12" style="fill:url(#p)"/><polygon points="309.27 221.49 310.9 220.55 307.61 218.65 305.98 219.59 309.27 221.49" style="fill:url(#q)"/><polygon points="331.06 232.19 326.42 229.51 324.79 230.45 329.43 233.13 331.06 232.19" style="fill:url(#r)"/><polygon points="316.64 223.86 312.25 221.33 310.62 222.27 315 224.8 316.64 223.86" style="fill:url(#s)"/><polygon points="325.07 228.73 317.99 224.64 316.35 225.58 323.44 229.67 325.07 228.73" style="fill:url(#t)"/></g><g style="opacity:0.2;mix-blend-mode:color-dodge"><polygon points="309.7 246.96 311.34 246.02 309.31 244.85 307.68 245.79 309.7 246.96" style="fill:url(#u)"/><polygon points="305.62 253.31 307.25 252.37 305.23 251.2 303.59 252.15 305.62 253.31" style="fill:url(#v)"/><polygon points="318.14 251.83 323.87 255.14 325.51 254.2 319.77 250.89 318.14 251.83" style="fill:url(#w)"/><polygon points="316.79 251.05 318.42 250.11 312.69 246.8 311.05 247.74 316.79 251.05" style="fill:url(#x)"/><polygon points="314.34 256.46 308.6 253.15 306.97 254.09 312.7 257.4 314.34 256.46" style="fill:url(#y)"/><polygon points="308.29 250.5 309.93 249.56 302.84 245.47 301.21 246.41 308.29 250.5" style="fill:url(#z)"/><polygon points="315.92 253.02 311.28 250.34 309.64 251.28 314.28 253.96 315.92 253.02" style="fill:url(#aa)"/><polygon points="306.33 245.01 307.96 244.07 298.86 238.81 297.22 239.76 306.33 245.01" style="fill:url(#ab)"/><polygon points="328.77 260.44 324.6 258.03 322.97 258.98 327.13 261.38 328.77 260.44" style="fill:url(#ac)"/><polygon points="323.25 257.25 317.26 253.8 315.63 254.74 321.62 258.2 323.25 257.25" style="fill:url(#ad)"/><polygon points="297.51 238.03 295.85 237.08 294.22 238.02 295.87 238.98 297.51 238.03" style="fill:url(#ae)"/><polygon points="292.35 248.12 284.54 243.61 282.9 244.56 290.71 249.06 292.35 248.12" style="fill:url(#af)"/><polygon points="293.42 244.38 288.31 241.43 286.67 242.38 291.79 245.33 293.42 244.38" style="fill:url(#ag)"/><polygon points="295.76 241.38 292.08 239.26 290.44 240.2 294.12 242.32 295.76 241.38" style="fill:url(#ah)"/><polygon points="299.86 245.63 301.49 244.69 297.11 242.16 295.47 243.1 299.86 245.63" style="fill:url(#ai)"/><polygon points="302.24 251.37 303.88 250.42 294.77 245.16 293.14 246.11 302.24 251.37" style="fill:url(#aj)"/><polygon points="295.35 251.74 296.99 250.8 293.7 248.9 292.06 249.84 295.35 251.74" style="fill:url(#ak)"/><polygon points="317.14 262.44 312.5 259.76 310.87 260.7 315.51 263.38 317.14 262.44" style="fill:url(#al)"/><polygon points="302.72 254.11 298.34 251.58 296.7 252.52 301.09 255.05 302.72 254.11" style="fill:url(#am)"/><polygon points="311.15 258.98 304.07 254.89 302.44 255.83 309.52 259.92 311.15 258.98" style="fill:url(#an)"/></g><path d="M555.92,346.43a1,1,0,0,0,.9,0l.38-.23-14.64-8.45-.39.22c-.25.14-.24.37,0,.52l.6.35-6.59,3.8-.45-.26a1,1,0,0,0-.9,0l-.61.35L548.58,351l.61-.35a.28.28,0,0,0,0-.52l-.45-.26,6.59-3.8Zm-14.56-.8-3-1.71,6.58-3.8,3,1.71Zm5.17,3-3-1.71,6.59-3.81,3,1.71Zm2.41,2.9-15.58-9a1,1,0,0,0-.9,0l-.6.35,16.47,9.51.61-.35C549.19,351.9,549.19,351.67,548.94,351.52Zm-6.73-14.29,15.9,9.19c.27.15.72,0,.6-.22l-4-7-12.17-2.29C542.21,336.82,541.94,337.08,542.21,337.23Z" transform="translate(-268.96 -109.74)" style="fill:#7c1dc9;opacity:0.2;mix-blend-mode:color-dodge"/><path d="M569.28,309.31l1-.6a.31.31,0,0,0,0-.59,1.1,1.1,0,0,0-1,0l-1,.6c-4.55-2.35-11.07-2.53-14.87-.34.75-.43,2.59-.07,4.11.8s2.14,1.94,1.38,2.38c.67-.39,2.18-.15,3.57.51l-7.22,4.17a1.71,1.71,0,0,1-1.54,0c-.43-.25-.43-.65,0-.89l.26-.15a.31.31,0,0,0,0-.59,1.1,1.1,0,0,0-1,0l-.26.14a1.1,1.1,0,0,0,0,2.08,4,4,0,0,0,3.6,0l7.22-4.17c1.15.8,1.56,1.67.89,2.06.76-.44,2.6-.08,4.12.79s2.13,1.94,1.38,2.38C573.66,315.7,573.35,311.94,569.28,309.31Z" transform="translate(-268.96 -109.74)" style="fill:#7c1dc9;opacity:0.2;mix-blend-mode:color-dodge"/><path d="M592.79,224.25c-.08-2.18-1.8-4.42-4.84-6.28l-14.22-8.71,3-1.11c6.71-2.48,7.53-7.62,1.35-11.53s-17.05-5.16-23.86-2.65l-3.42,1.26-14.22-8.71a30.21,30.21,0,0,0-11.6-3.78,29.83,29.83,0,0,0-13.61,1.1l-12.47,4.65L574.7,234.9l12.47-4.66C590.83,228.89,592.87,226.71,592.79,224.25ZM560.6,202.86c-2.89-1.77-2.74-4.13.34-5.26a14.07,14.07,0,0,1,10.81,1.15c2.9,1.77,2.75,4.13-.33,5.27A14.09,14.09,0,0,1,560.6,202.86Z" transform="translate(-268.96 -109.74)" style="fill:url(#ao)"/><path d="M399.28,373.93,274.41,301.11c-8.06-4.66-7.05-12.79,2.25-18.16L465.07,174.21c9.31-5.38,23.39-6,31.45-1.3L621.4,245.73c8.06,4.65,7.05,12.78-2.26,18.16L430.73,372.63C421.42,378,407.34,378.59,399.28,373.93Z" transform="translate(-268.96 -109.74)" style="opacity:0"/><path d="M465.3,174.6a35.77,35.77,0,0,1,16.41-4.36,30.48,30.48,0,0,1,12.21,1.93,20.53,20.53,0,0,1,2.58,1.25l124,72.31c3.07,1.77,5.37,4.49,5.6,7a7.61,7.61,0,0,1-.84,4.85,16.08,16.08,0,0,1-6.34,6L430.86,372a33.08,33.08,0,0,1-4.19,2,38.08,38.08,0,0,1-15.91,2.5,25.83,25.83,0,0,1-11.25-3L275.35,301.13c-3.16-1.82-5.5-4.65-5.65-7.19a7.65,7.65,0,0,1,.92-4.75,16.21,16.21,0,0,1,6.27-5.84Z" transform="translate(-268.96 -109.74)" style="opacity:0.018182"/><path d="M465.53,175a35.29,35.29,0,0,1,16.29-4.31,29.91,29.91,0,0,1,12.11,2,21.64,21.64,0,0,1,2.55,1.27l123.1,71.79c2.76,1.59,5.58,4.48,5.79,6.69a7,7,0,0,1-.46,4.72,15.14,15.14,0,0,1-6.23,6L431,371.43a35.65,35.65,0,0,1-4.16,2A37.35,37.35,0,0,1,411,376.1a25.45,25.45,0,0,1-11.24-3l-123.46-72c-2.84-1.64-5.72-4.64-5.86-6.93a7,7,0,0,1,.54-4.63,15.13,15.13,0,0,1,6.16-5.85Z" transform="translate(-268.96 -109.74)" style="opacity:0.036364"/><path d="M465.76,175.4a34.79,34.79,0,0,1,16.18-4.25,29,29,0,0,1,12,2,27,27,0,0,1,2.52,1.27l122.21,71.28c2.45,1.41,5.79,4.46,6,6.43a6.39,6.39,0,0,1-.07,4.59c-.87,1.94-2.85,4.06-6.12,5.95L431.12,370.83a39.9,39.9,0,0,1-4.14,2.06,36.55,36.55,0,0,1-15.78,2.76,25.21,25.21,0,0,1-11.23-2.9L277.22,301.16c-2.52-1.45-6-4.62-6.07-6.65a6.35,6.35,0,0,1,.14-4.51c.88-1.91,2.84-4,6.06-5.86Z" transform="translate(-268.96 -109.74)" style="opacity:0.054544999999999996"/><path d="M466,175.79a34.53,34.53,0,0,1,16.06-4.19,28.29,28.29,0,0,1,11.9,2.09,27.74,27.74,0,0,1,2.49,1.28l121.32,70.75c2.15,1.24,6,4.46,6.16,6.18a5.9,5.9,0,0,1,.3,4.46c-.74,1.87-2.66,4-6,5.95l-187,107.91a44.06,44.06,0,0,1-4.11,2.1,36.09,36.09,0,0,1-15.72,2.88,24.94,24.94,0,0,1-11.23-2.85l-122-71.17c-2.21-1.27-6.18-4.61-6.29-6.39a5.92,5.92,0,0,1-.24-4.39c.75-1.84,2.65-4,5.95-5.87Z" transform="translate(-268.96 -109.74)" style="opacity:0.072727"/><path d="M466.21,176.19a33.87,33.87,0,0,1,16-4.13A27.37,27.37,0,0,1,494,174.2c.5.2,2,1,2.46,1.29l120.43,70.23c1.84,1.06,6.21,4.44,6.35,5.92a5.52,5.52,0,0,1,.68,4.32c-.63,1.8-2.47,4-5.88,6L431.38,369.62c-.72.42-3.28,1.81-4.09,2.12a35.31,35.31,0,0,1-15.66,3A24.55,24.55,0,0,1,400.42,372L279.1,301.2c-1.9-1.09-6.41-4.6-6.5-6.13a5.47,5.47,0,0,1-.63-4.27c.63-1.77,2.46-3.92,5.84-5.87Z" transform="translate(-268.96 -109.74)" style="opacity:0.09090899999999999"/><path d="M466.44,176.58a33.62,33.62,0,0,1,15.85-4.07,26.64,26.64,0,0,1,11.68,2.2c.42.17,2.06,1.08,2.43,1.29l119.54,69.72c1.54.89,6.42,4.43,6.54,5.66.67,1.09,1.54,2.58,1.06,4.19s-2.29,3.94-5.77,5.94L431.5,369c-.6.35-3.38,1.89-4.05,2.14a34.6,34.6,0,0,1-15.6,3.14,24.22,24.22,0,0,1-11.2-2.74L280,301.22c-1.58-.91-6.64-4.59-6.72-5.86-.65-1.09-1.5-2.56-1-4.15s2.28-3.89,5.73-5.89Z" transform="translate(-268.96 -109.74)" style="opacity:0.109091"/><path d="M466.67,177a33.16,33.16,0,0,1,15.73-4A25.83,25.83,0,0,1,494,175.22c.33.13,2.1,1.13,2.39,1.3L615,245.72c1.23.71,6.63,4.41,6.73,5.4.76,1,1.83,2.45,1.43,4.06s-2.1,3.89-5.65,5.94L431.63,368.42c-.48.28-3.49,2-4,2.17a34.06,34.06,0,0,1-15.53,3.26,23.91,23.91,0,0,1-11.19-2.69L281,301.24c-1.27-.73-6.88-4.59-6.94-5.6-.74-1-1.8-2.44-1.4-4s2.1-3.85,5.62-5.89Z" transform="translate(-268.96 -109.74)" style="opacity:0.127273"/><path d="M466.9,177.37a32.79,32.79,0,0,1,15.62-4A25,25,0,0,1,494,175.73c.26.1,2.15,1.18,2.37,1.31l117.77,68.68c.92.53,6.84,4.4,6.91,5.13.85.92,2.12,2.33,1.82,3.94s-1.92,3.84-5.54,5.93L431.76,367.82c-.36.2-3.6,2-4,2.19a33.48,33.48,0,0,1-15.47,3.39,23.6,23.6,0,0,1-11.18-2.63l-119.2-69.51c-.94-.55-7.1-4.58-7.14-5.34-.84-.91-2.1-2.31-1.79-3.91s1.91-3.82,5.51-5.9Z" transform="translate(-268.96 -109.74)" style="opacity:0.145455"/><path d="M467.13,177.77a32.2,32.2,0,0,1,15.5-3.89A24.24,24.24,0,0,1,494,176.24c.17.06,2.19,1.23,2.34,1.31l116.88,68.17c.62.35,7.06,4.38,7.1,4.87.94.83,2.4,2.2,2.19,3.81s-1.73,3.8-5.42,5.93L431.89,367.22c-.24.13-3.71,2.11-4,2.21a32.72,32.72,0,0,1-15.4,3.52,23.31,23.31,0,0,1-11.17-2.58L282.85,301.28c-.63-.37-7.33-4.57-7.36-5.08-.93-.81-2.38-2.18-2.18-3.78s1.73-3.79,5.41-5.91Z" transform="translate(-268.96 -109.74)" style="opacity:0.163636"/><path d="M467.36,178.16a32,32,0,0,1,15.39-3.83A23.55,23.55,0,0,1,494,176.75c.09,0,2.24,1.28,2.31,1.32l116,67.64c.31.18,7.27,4.38,7.29,4.62,1,.74,2.68,2.07,2.57,3.68-.09,1.42-1.55,3.75-5.3,5.92L432,366.61c-.12.07-3.82,2.19-3.95,2.25a32.17,32.17,0,0,1-15.35,3.64A23.08,23.08,0,0,1,401.56,370L283.79,301.29c-.31-.18-7.56-4.55-7.58-4.8-1-.73-2.67-2.07-2.56-3.67.1-1.42,1.54-3.75,5.3-5.91Z" transform="translate(-268.96 -109.74)" style="opacity:0.18181799999999998"/><path d="M412.94,372.05a22.92,22.92,0,0,1-11.15-2.47L276.94,296.77c-1.12-.64-2.95-1.94-2.95-3.55,0-1.35,1.36-3.71,5.19-5.92l188.4-108.74a31.47,31.47,0,0,1,15.29-3.77A22.79,22.79,0,0,1,494,177.26l124.86,72.81c1.11.64,3,1.94,3,3.55,0,1.35-1.36,3.71-5.19,5.92L428.22,368.28A31.4,31.4,0,0,1,412.94,372.05Z" transform="translate(-268.96 -109.74)" style="opacity:0.2"/><path d="M400.43,367.48l-121.64-71C271,292,272,284.15,281,278.94L464,173.33c9-5.21,22.65-5.77,30.45-1.26l121.65,71c7.8,4.51,6.83,12.38-2.19,17.58l-183,105.62C421.87,371.43,408.24,372,400.43,367.48Z" transform="translate(-268.96 -109.74)" style="fill:#6b24d6"/><path d="M400.43,365,278.79,294C271,289.52,272,281.65,281,276.44L464,170.83c9-5.21,22.65-5.77,30.45-1.27l121.65,71c7.8,4.51,6.83,12.38-2.19,17.58l-183,105.62C421.87,368.92,408.24,369.49,400.43,365Z" transform="translate(-268.96 -109.74)" style="fill:url(#ap)"/><path d="M613.88,256.74l-183,105.62c-9,5.2-22.65,5.77-30.46,1.26l-121.64-71c-3.28-1.89-5-4.37-5.22-7-.32,3.12,1.38,6.15,5.22,8.36l121.64,71c7.81,4.51,21.44,3.94,30.46-1.26l183-105.62c5.23-3,7.74-6.94,7.41-10.58C621,250.76,618.47,254.09,613.88,256.74Z" transform="translate(-268.96 -109.74)" style="mix-blend-mode:color-dodge;fill:url(#aq)"/><polygon points="156.23 249.45 24.4 173.34 214.09 61.32 345.92 137.44 156.23 249.45" style="opacity:0.2"/><polygon points="156.23 246.45 24.4 170.34 214.09 60.82 345.92 136.94 156.23 246.45" style="fill:url(#ar)"/><path d="M592.1,222.79c-.22-2.47-2-4.81-5.06-6.57L572.83,208l2.83-1.63c6.26-3.61,6.7-9.56.51-13.27s-16.68-3.83-23-.16l-3.2,1.84-14.21-8.2a24.72,24.72,0,0,0-11.37-2.92,25.09,25.09,0,0,0-13,2.88L499.76,192l75.72,43.72,11.64-5.49C590.53,228.3,592.34,225.58,592.1,222.79Zm-32.27-20.48c-2.9-1.67-2.91-4.37,0-6a11.56,11.56,0,0,1,10.45,0c2.89,1.67,2.9,4.37,0,6A11.53,11.53,0,0,1,559.83,202.31Z" transform="translate(-268.96 -109.74)" style="opacity:0.2"/><path d="M591.27,220.29c-.22-2.47-2-4.81-5.06-6.57L572,205.52l2.82-1.63c6.26-3.61,6.71-9.56.52-13.27s-16.68-3.83-23-.16l-3.2,1.84-14.21-8.2a24.76,24.76,0,0,0-11.37-2.92,25.07,25.07,0,0,0-13,2.88l-11.64,6.78,75.72,43.72,11.64-6.79C589.7,225.8,591.51,223.08,591.27,220.29ZM559,199.81c-2.89-1.67-2.9-4.37,0-6a11.53,11.53,0,0,1,10.44,0c2.9,1.67,2.91,4.37,0,6A11.56,11.56,0,0,1,559,199.81Z" transform="translate(-268.96 -109.74)" style="fill:url(#as)"/><g style="mix-blend-mode:color-dodge"><path d="M569.4,192.64a11.53,11.53,0,0,0-10.44,0c-1.69,1-2.37,2.31-2.07,3.58a4,4,0,0,1,2.07-2.41,11.53,11.53,0,0,1,10.44,0,4.05,4.05,0,0,1,2.1,2.45C571.81,195,571.11,193.63,569.4,192.64Z" transform="translate(-268.96 -109.74)" style="fill:url(#at)"/><path d="M574.82,202.73,572,204.35l1,.59,1.81-1.05c3.53-2,5.21-4.82,4.9-7.52C579.5,198.69,577.85,201,574.82,202.73Z" transform="translate(-268.96 -109.74)" style="fill:url(#au)"/><path d="M586.29,226.61l-11.64,6.78-74.71-43.13-1,.58,75.72,43.72,11.64-6.79c3.41-2,5.22-4.69,5-7.48l0-.08C591,222.61,589.25,224.89,586.29,226.61Z" transform="translate(-268.96 -109.74)" style="fill:url(#av)"/></g><path d="M513.91,226.87l3.6-2.08-7.25-4.19-3.61,2.08Zm30.25,4.38-40.69-23.49-3.61,2.08,40.7,23.49Zm-69.78-27.2,29.16,16.83,3.61-2.08L478,202Zm98.16,43.59-25.27-14.59-3.6,2.08,25.27,14.59Zm-19.65-2.43-32.27-18.63-3.6,2.09,32.27,18.63Zm19.16,6.3,7.56,4.37,3.6-2.08-7.56-4.37Zm-97.17-51.34L462,192.71l-3.6,2.09,12.91,7.45ZM500.36,206l-30.67-17.71-3.61,2.09L496.75,208Z" transform="translate(-268.96 -109.74)" style="fill:#9d9eb3"/><path d="M453.92,283.7l2.3-1.33-4.63-2.68L449.28,281Zm19.33,2.79-26-15-2.3,1.33,26,15Zm-9-8.21,2.3-1.33-8.28-4.78L456,273.5Zm14.2-.15-18.62-10.75-2.31,1.33,18.63,10.75Zm-49.82-9,18.63,10.75,2.3-1.33L431,267.79Zm6.73-7.52L454,272.36l2.31-1.33L437.7,260.27Zm56,35.36-16.15-9.32-2.3,1.33,16.14,9.32Zm9.26-11.75-26-15-2.3,1.33,26,15Zm-28-16.15L454,258.3l-2.3,1.33,18.62,10.76Zm7.82,10.22-2.31,1.33,4.64,2.68,2.3-1.33Zm-1.66,16.13-20.61-11.9-2.3,1.33,20.61,11.9Zm-12.54-16L482,288.51l2.31-1.33-15.73-9.08ZM484,289.66l16.83,9.72,2.31-1.33-16.84-9.72Zm7.07,9.78,4.83,2.79,2.3-1.33-4.83-2.79ZM429,266.64l-8.25-4.76-2.31,1.33,8.25,4.76Zm73.63,19.72-2.3,1.33,10.38,6,2.3-1.33Zm5.09,8.64L487.1,283.1l-2.3,1.33,20.61,11.9ZM452,257.15l-11.56-6.67-2.3,1.33,11.56,6.67Zm-6.78,13.19L425.67,259l-2.3,1.33L443,271.67Zm-9.55-11.21-5.1-2.95-2.3,1.33,5.1,2.95Zm20.67,6.23-20.84-12-2.3,1.33,20.84,12Z" transform="translate(-268.96 -109.74)" style="fill:#9d9eb3"/><path d="M430.85,297.44l2.3-1.33L415.75,286l-2.31,1.33Zm12.7-1L415.8,280.29l-2.31,1.33,27.76,16.13Zm-68.2-31,36.11,20.76,2.3-1.33-36.11-20.76Zm91.84,39-26-15-2.3,1.33,26,15Zm-28-16.16-27.75-16.12-2.3,1.33,27.75,16.12Zm6.33,9.35-2.31,1.33,4.64,2.68,2.3-1.33Zm23.64,8-2.3,1.33,10.37,6,2.31-1.33Zm3.59,7.77-20.61-11.9-2.3,1.33,20.61,11.9Zm-63.29-42.35-40.3-23.31-2.3,1.33,40.29,23.31Zm-33.82-8-16.35-9.58-2.3,1.33,16.35,9.58Zm38.15,16.23-49.57-28.66-2.3,1.33,49.57,28.66Z" transform="translate(-268.96 -109.74)" style="fill:#9d9eb3"/><path d="M367.1,290.69l2.3-1.33-8.28-4.78-2.3,1.33Zm12.7-1-18.63-10.76-2.3,1.33L377.5,291ZM338.2,274l18.63,10.76,2.3-1.33-18.62-10.76Zm43.59,16.8-2.31,1.33,4.64,2.68,2.3-1.33Zm-41-1.54L321.24,278l-2.3,1.33,19.59,11.31Zm-2.31-17.74-5.1-2.94-2.31,1.33,5.11,2.94Zm20.67,6.24-20.84-12-2.3,1.33,20.83,12Z" transform="translate(-268.96 -109.74)" style="fill:#9d9eb3"/><path d="M487.42,264.45l2.3-1.33-4.63-2.68-2.31,1.33Zm19.33,2.79-26-15-2.3,1.33,26,15Zm-9-8.21,2.3-1.33-8.28-4.78-2.3,1.33Zm14.2-.27L493.37,248l-2.31,1.33,18.63,10.76Zm-49.82-8.89,18.63,10.75,2.3-1.33-18.63-10.75Zm6.73-7.52,18.62,10.76,2.31-1.33L471.2,241Zm56,35.36-16.15-9.32-2.3,1.33L522.57,279ZM534.14,266l-26-15-2.3,1.33,26,15Zm-28-16.15-18.63-10.76-2.3,1.33,18.62,10.76Zm7.82,10.1-2.31,1.33,4.64,2.67,2.3-1.33Zm-1.66,16.25-20.61-11.9-2.3,1.33L510,277.49Zm-12.54-16,15.72,9.08,2.31-1.33-15.73-9.08Zm17.71,10.23,16.83,9.72,2.31-1.33-16.84-9.72Zm7.07,9.78,4.83,2.79,2.3-1.33-4.83-2.79ZM526,255l-26-15-2.3,1.33,26,15Zm-9-8.21,2.3-1.33-8.28-4.78-2.3,1.33Zm27.09,18.68L528,256.14l-2.3,1.33,16.14,9.32ZM519,247.93,534.75,257l2.31-1.33-15.73-9.08Zm17.71,10.23,16.83,9.72,2.31-1.33L539,256.83Zm7.07,9.78,4.83,2.79,2.3-1.33-4.83-2.79Zm-81.32-20.55-8.25-4.76L451.93,244l8.25,4.76Zm73.63,19.72-2.3,1.33,9.51,5.55,2.3-1.33Zm5.09,8.52-20.61-11.9-2.3,1.33L538.91,277ZM485.54,237.9,474,231.23l-2.3,1.33,11.56,6.67Zm-6.78,13.19-19.59-11.31-2.3,1.33,19.59,11.31Zm-9.55-11.21-5.1-2.95-2.3,1.33,5.1,3Zm20.67,6.23-20.84-12-2.3,1.33,20.84,12Z" transform="translate(-268.96 -109.74)" style="fill:#9d9eb3"/><path d="M427.42,308.73a.48.48,0,0,0-.55-.38l-3.67.65.38-.66c-5.37-3.18-13.25-4.35-20.55-3.07-7,1.24-12.41,4.64-14,8.87l.88.33c1.45-3.92,6.54-7.09,13.26-8.27,7-1.24,14.55-.14,19.73,2.85l-36.58,6.44a.47.47,0,0,0,.08.93h.09L427,309.28A.48.48,0,0,0,427.42,308.73Zm4.68,8.43-14.54,2.56a.47.47,0,0,0,.08.93h.08l10.57-1.87c-1.29,4.07-6.4,7.36-13.37,8.59s-14.4.15-19.58-2.77l18.08-3.1a.47.47,0,0,0-.16-.93l-21.68,3.72a.48.48,0,0,0-.39.54.47.47,0,0,0,.46.39h.08l3.43-.59-.41.71a29.57,29.57,0,0,0,14.42,3.46,34.34,34.34,0,0,0,5.91-.51c7.37-1.3,12.78-4.87,14.13-9.32l-.74-.22,3.79-.67a.48.48,0,0,0,.39-.54A.47.47,0,0,0,432.1,317.16Zm3.4-5.19c-3.67-6.82-14.36-11.4-26.61-11.4a46.35,46.35,0,0,0-8,.69c-9,1.59-15.94,5.7-18.5,11a9.89,9.89,0,0,0,.24,9.33c3.67,6.82,14.37,11.4,26.61,11.4a46.35,46.35,0,0,0,8-.69c9-1.59,15.94-5.7,18.51-11A9.89,9.89,0,0,0,435.5,312Zm-.6,8.92c-2.44,5-9.1,8.95-17.82,10.49a45.57,45.57,0,0,1-7.86.68c-11.72,0-22.32-4.49-25.78-10.92a9,9,0,0,1-.23-8.47c2.44-5,9.1-8.95,17.82-10.48a44.6,44.6,0,0,1,7.86-.68c11.73,0,22.33,4.48,25.78,10.91A9,9,0,0,1,434.9,320.89Zm-26-18.78a42.41,42.41,0,0,0-7.33.63c-8.2,1.45-14.5,5.18-16.82,10a8.87,8.87,0,0,0,.22,8.38c3.33,6.19,13.07,10.35,24.22,10.35a42.41,42.41,0,0,0,7.33-.63c8.21-1.44,14.5-5.18,16.83-10a8.87,8.87,0,0,0-.23-8.37C429.8,306.27,420.06,302.11,408.91,302.11Zm24,18.53c-2.26,4.66-8.42,8.3-16.48,9.72a42.48,42.48,0,0,1-7.25.62c-10.81,0-20.61-4.15-23.81-10.11a8.43,8.43,0,0,1-.21-7.95c2.26-4.66,8.42-8.3,16.49-9.72a42.28,42.28,0,0,1,7.24-.62c10.82,0,20.61,4.16,23.81,10.11A8.43,8.43,0,0,1,432.93,320.64Zm-17.39-5.92a.34.34,0,0,0-.34-.19l-4.75.42a.34.34,0,0,0-.32.38.36.36,0,0,0,.38.32l3.83-.34-1.66,1.76a.35.35,0,0,0,0,.47l1.59,1.8-3.83-.42a.38.38,0,0,0-.21,0l-3,1.72-.52-2.29a.35.35,0,0,0-.24-.26l-3.1-.92,3.14-.86a.37.37,0,0,0,.25-.25l.75-2.73a.36.36,0,0,0-.25-.44.35.35,0,0,0-.43.25l-.7,2.54L402,316.85a.35.35,0,0,0-.26.34.35.35,0,0,0,.25.34l4.09,1.22.58,2.55a.34.34,0,0,0,.21.24.32.32,0,0,0,.14,0,.26.26,0,0,0,.17-.05l3.3-1.89,4.61.51a.36.36,0,0,0,.31-.58l-2-2.24,2.07-2.2A.35.35,0,0,0,415.54,314.72Zm9.51-3.68a.33.33,0,0,0-.2-.24.36.36,0,0,0-.32,0L422,312.25l-3.49-.39a.36.36,0,0,0-.35.19.35.35,0,0,0,.05.4l1.45,1.65-1.53,1.62a.35.35,0,0,0,.52.48l1.74-1.85a.35.35,0,0,0,0-.48l-1.07-1.21,2.71.3a.38.38,0,0,0,.21,0l2.18-1.26.38,1.64a.37.37,0,0,0,.24.26l2.09.62-2.12.58a.34.34,0,0,0-.25.24l-.45,1.64-2.12-1.3a.36.36,0,0,0-.49.12.35.35,0,0,0,.12.48l2.53,1.55a.37.37,0,0,0,.18.05.31.31,0,0,0,.13,0,.35.35,0,0,0,.21-.23l.52-1.9,3.11-.85a.35.35,0,0,0,0-.67l-3.07-.92Zm-30.61,9.5a.34.34,0,0,0-.38-.32l-2.7.23,1.11-1.18a.34.34,0,0,0,0-.47l-1.07-1.21,2.71.29a.31.31,0,0,0,.21,0l2.18-1.25.38,1.64a.34.34,0,0,0,.24.25l2.09.62-2.12.58a.35.35,0,0,0-.25.25l-.57,2.09a.36.36,0,0,0,.24.43h.1a.36.36,0,0,0,.34-.26l.52-1.89,3.11-.85a.35.35,0,0,0,.26-.34.36.36,0,0,0-.25-.34l-3.07-.91-.44-1.9a.35.35,0,0,0-.52-.23l-2.49,1.43-3.49-.38a.34.34,0,0,0-.35.19.35.35,0,0,0,0,.39l1.46,1.65-1.53,1.62a.36.36,0,0,0,.29.6l3.62-.32A.36.36,0,0,0,394.44,320.54Z" transform="translate(-268.96 -109.74)" style="fill:#364f87;opacity:0.8;mix-blend-mode:multiply"/><polygon points="308.53 116.36 242.15 78.03 244.99 76.41 311.37 114.74 308.53 116.36" style="mix-blend-mode:color-dodge;fill:url(#aw)"/><polygon points="307.86 117.19 241.48 78.87 244.32 77.25 310.71 115.57 307.86 117.19" style="fill:url(#ax)"/><g style="mix-blend-mode:multiply"><polygon points="88.79 139.13 176.79 190.47 325.79 123.8 209.79 55.13 88.79 139.13" style="fill:#dbd3f4;opacity:0"/><polygon points="89.15 139.13 176.93 190.32 324.77 124 209.27 55.64 89.15 139.13" style="fill:#dbd3f4;opacity:0.013725"/><polygon points="89.51 139.12 177.07 190.18 323.75 124.2 208.75 56.14 89.51 139.12" style="fill:#dbd3f4;opacity:0.027451"/><polygon points="89.87 139.11 177.2 190.04 322.72 124.39 208.22 56.65 89.87 139.11" style="fill:#dbd3f4;opacity:0.041176"/><polygon points="90.23 139.1 177.34 189.89 321.7 124.59 207.7 57.15 90.23 139.1" style="fill:#dbd3f4;opacity:0.054902"/><polygon points="90.58 139.1 177.48 189.75 320.68 124.79 207.18 57.65 90.58 139.1" style="fill:#dbd3f4;opacity:0.068627"/><polygon points="90.94 139.09 177.62 189.61 319.65 124.98 206.65 58.16 90.94 139.09" style="fill:#dbd3f4;opacity:0.082353"/><polygon points="91.3 139.08 177.75 189.46 318.63 125.18 206.13 58.66 91.3 139.08" style="fill:#dbd3f4;opacity:0.096078"/><polygon points="91.66 139.07 177.89 189.32 317.61 125.38 205.61 59.16 91.66 139.07" style="fill:#dbd3f4;opacity:0.109804"/><polygon points="92.02 139.07 178.03 189.18 316.58 125.58 205.09 59.66 92.02 139.07" style="fill:#dbd3f4;opacity:0.123529"/><polygon points="92.38 139.06 178.16 189.03 315.56 125.77 204.56 60.17 92.38 139.06" style="fill:#dbd3f4;opacity:0.137255"/><polygon points="92.74 139.05 178.3 188.89 314.54 125.97 204.04 60.67 92.74 139.05" style="fill:#dbd3f4;opacity:0.15098"/><polygon points="93.09 139.04 178.44 188.74 313.52 126.17 203.52 61.17 93.09 139.04" style="fill:#dbd3f4;opacity:0.164706"/><polygon points="93.45 139.04 178.57 188.6 312.49 126.37 202.99 61.68 93.45 139.04" style="fill:#dbd3f4;opacity:0.17843099999999998"/><polygon points="93.81 139.03 178.71 188.46 311.47 126.56 202.47 62.18 93.81 139.03" style="fill:#dbd3f4;opacity:0.192157"/><polygon points="94.17 139.02 178.85 188.31 310.45 126.76 201.95 62.68 94.17 139.02" style="fill:#dbd3f4;opacity:0.20588199999999998"/><polygon points="94.53 139.01 178.99 188.17 309.43 126.96 201.43 63.19 94.53 139.01" style="fill:#dbd3f4;opacity:0.219608"/><polygon points="94.89 139.01 179.12 188.02 308.4 127.16 200.9 63.69 94.89 139.01" style="fill:#dbd3f4;opacity:0.23333299999999998"/><polygon points="95.25 139 179.26 187.88 307.38 127.35 200.38 64.19 95.25 139" style="fill:#dbd3f4;opacity:0.247059"/><polygon points="95.61 138.99 179.4 187.74 306.36 127.55 199.86 64.7 95.61 138.99" style="fill:#dbd3f4;opacity:0.260784"/><polygon points="95.96 138.98 179.54 187.59 305.33 127.75 199.33 65.2 95.96 138.98" style="fill:#dbd3f4;opacity:0.27451000000000003"/><polygon points="96.32 138.98 179.67 187.45 304.31 127.94 198.81 65.7 96.32 138.98" style="fill:#dbd3f4;opacity:0.28823499999999996"/><polygon points="96.68 138.97 179.81 187.31 303.29 128.14 198.29 66.21 96.68 138.97" style="fill:#dbd3f4;opacity:0.301961"/><polygon points="97.04 138.96 179.95 187.16 302.26 128.34 197.76 66.71 97.04 138.96" style="fill:#dbd3f4;opacity:0.31568599999999997"/><polygon points="97.4 138.95 180.09 187.02 301.24 128.53 197.24 67.21 97.4 138.95" style="fill:#dbd3f4;opacity:0.329412"/><polygon points="97.76 138.95 180.22 186.87 300.22 128.73 196.72 67.72 97.76 138.95" style="fill:#dbd3f4;opacity:0.34313699999999997"/><polygon points="98.12 138.94 180.36 186.73 299.2 128.93 196.2 68.22 98.12 138.94" style="fill:#dbd3f4;opacity:0.356863"/><polygon points="98.47 138.93 180.5 186.59 298.17 129.13 195.67 68.72 98.47 138.93" style="fill:#dbd3f4;opacity:0.370588"/><polygon points="98.83 138.92 180.63 186.44 297.15 129.32 195.15 69.23 98.83 138.92" style="fill:#dbd3f4;opacity:0.384314"/><polygon points="99.19 138.91 180.77 186.3 296.13 129.52 194.63 69.73 99.19 138.91" style="fill:#dbd3f4;opacity:0.398039"/><polygon points="99.55 138.91 180.91 186.16 295.1 129.72 194.1 70.23 99.55 138.91" style="fill:#dbd3f4;opacity:0.411765"/><polygon points="99.91 138.9 181.05 186.01 294.08 129.91 193.58 70.74 99.91 138.9" style="fill:#dbd3f4;opacity:0.42549000000000003"/><polygon points="100.27 138.89 181.18 185.87 293.06 130.11 193.06 71.24 100.27 138.89" style="fill:#dbd3f4;opacity:0.439216"/><polygon points="100.63 138.88 181.32 185.72 292.04 130.31 192.54 71.74 100.63 138.88" style="fill:#dbd3f4;opacity:0.452941"/><polygon points="100.98 138.88 181.46 185.58 291.01 130.51 192.01 72.25 100.98 138.88" style="fill:#dbd3f4;opacity:0.466667"/><polygon points="101.34 138.87 181.59 185.44 289.99 130.7 191.49 72.75 101.34 138.87" style="fill:#dbd3f4;opacity:0.480392"/><polygon points="101.7 138.86 181.73 185.29 288.97 130.9 190.97 73.25 101.7 138.86" style="fill:#dbd3f4;opacity:0.494118"/><polygon points="102.06 138.85 181.87 185.15 287.94 131.1 190.44 73.76 102.06 138.85" style="fill:#dbd3f4;opacity:0.5078429999999999"/><polygon points="102.42 138.85 182.01 185 286.92 131.3 189.92 74.26 102.42 138.85" style="fill:#dbd3f4;opacity:0.521569"/><polygon points="102.78 138.84 182.14 184.86 285.9 131.49 189.4 74.76 102.78 138.84" style="fill:#dbd3f4;opacity:0.5352939999999999"/><polygon points="103.14 138.83 182.28 184.72 284.88 131.69 188.88 75.27 103.14 138.83" style="fill:#dbd3f4;opacity:0.5490200000000001"/><polygon points="103.5 138.82 182.42 184.57 283.85 131.89 188.35 75.77 103.5 138.82" style="fill:#dbd3f4;opacity:0.5627449999999999"/><polygon points="103.85 138.82 182.56 184.43 282.83 132.09 187.83 76.27 103.85 138.82" style="fill:#dbd3f4;opacity:0.576471"/><polygon points="104.21 138.81 182.69 184.29 281.81 132.28 187.31 76.78 104.21 138.81" style="fill:#dbd3f4;opacity:0.5901959999999999"/><polygon points="104.57 138.8 182.83 184.14 280.78 132.48 186.78 77.28 104.57 138.8" style="fill:#dbd3f4;opacity:0.603922"/><polygon points="104.93 138.79 182.97 184 279.76 132.68 186.26 77.78 104.93 138.79" style="fill:#dbd3f4;opacity:0.617647"/><polygon points="105.29 138.79 183.1 183.85 278.74 132.87 185.74 78.29 105.29 138.79" style="fill:#dbd3f4;opacity:0.631373"/><polygon points="105.65 138.78 183.24 183.71 277.71 133.07 185.22 78.79 105.65 138.78" style="fill:#dbd3f4;opacity:0.645098"/><polygon points="106 138.77 183.38 183.57 276.69 133.27 184.69 79.29 106 138.77" style="fill:#dbd3f4;opacity:0.658824"/><polygon points="106.36 138.76 183.52 183.42 275.67 133.47 184.17 79.8 106.36 138.76" style="fill:#dbd3f4;opacity:0.672549"/><polygon points="106.72 138.76 183.65 183.28 274.65 133.66 183.65 80.3 106.72 138.76" style="fill:#dbd3f4;opacity:0.686275"/><polygon points="107.08 138.75 183.79 183.13 273.62 133.86 183.12 80.8 107.08 138.75" style="fill:#dbd3f4;opacity:0.7000000000000001"/></g><polygon points="143.25 41.44 221.38 86.9 266.3 93.31 188.12 48.76 143.25 41.44" style="fill:url(#ay)"/><polygon points="221.35 86.9 221.35 163.57 229.42 159.01 229.44 157.32 258.15 140.33 259.89 140.98 266.3 137.19 266.3 93.31 221.35 86.9" style="fill:url(#az)"/><polygon points="221.38 86.9 221.38 163.57 143.25 118.09 143.25 41.44 221.38 86.9" style="fill:url(#ba)"/><polygon points="227.59 119.68 261.77 99.14 261.77 139.87 259.89 140.98 258.15 140.33 229.44 157.32 229.42 159.01 227.59 160.1 227.59 119.68" style="fill:#d1b4e3"/><polygon points="258.15 140.33 258.15 103.48 229.44 120.72 229.44 157.32 258.15 140.33" style="fill:url(#bb)"/><polygon points="258.15 106.28 258.15 103.48 229.44 120.72 229.44 123.28 258.15 106.28" style="fill:#e6e7e8;mix-blend-mode:multiply"/><polygon points="258.15 106.82 258.15 105.33 229.44 122.58 229.44 123.82 258.15 106.82" style="fill:#e6e7e8;mix-blend-mode:multiply"/><polygon points="258.15 109.73 258.15 108.24 229.44 125.48 229.44 126.72 258.15 109.73" style="fill:#e6e7e8;mix-blend-mode:multiply"/><polygon points="258.15 112.64 258.15 111.14 229.44 128.39 229.44 129.63 258.15 112.64" style="fill:#e6e7e8;mix-blend-mode:multiply"/><polygon points="258.15 115.54 258.15 114.05 229.44 131.29 229.44 132.53 258.15 115.54" style="fill:#e6e7e8;mix-blend-mode:multiply"/><polygon points="258.15 118.45 258.15 116.95 229.44 134.2 229.44 135.44 258.15 118.45" style="fill:#e6e7e8;mix-blend-mode:multiply"/><polygon points="258.15 121.35 258.15 119.86 229.44 137.11 229.44 138.35 258.15 121.35" style="fill:#e6e7e8;mix-blend-mode:multiply"/><polygon points="258.15 124.26 258.15 122.77 229.44 140.01 229.44 141.25 258.15 124.26" style="fill:#e6e7e8;mix-blend-mode:multiply"/><polygon points="258.15 127.17 258.15 125.67 229.44 142.92 229.44 144.16 258.15 127.17" style="fill:#e6e7e8;mix-blend-mode:multiply"/><polygon points="258.15 130.07 258.15 128.58 229.44 145.82 229.44 147.06 258.15 130.07" style="fill:#e6e7e8;mix-blend-mode:multiply"/><polygon points="258.15 132.98 258.15 131.48 229.44 148.73 229.44 149.97 258.15 132.98" style="fill:#e6e7e8;mix-blend-mode:multiply"/><polygon points="258.15 135.88 258.15 134.39 229.44 151.63 229.44 152.88 258.15 135.88" style="fill:#e6e7e8;mix-blend-mode:multiply"/><polygon points="258.15 138.79 258.15 137.29 229.44 154.54 229.44 155.78 258.15 138.79" style="fill:#e6e7e8;mix-blend-mode:multiply"/><polygon points="178.3 132.34 178.3 181.17 98.36 135.54 98.36 86.44 178.3 132.34" style="fill:url(#bc)"/><polygon points="178.3 132.8 211.62 71.22 131.68 25.59 98.36 86.9 178.3 132.8" style="fill:url(#bd)"/><polygon points="103.95 138.52 103.95 95.73 121.02 105.74 121.02 148.45 103.95 138.52" style="fill:#f1e8f6"/><polygon points="119.17 106.8 119.17 145.23 105.8 137.45 105.8 98.97 119.17 106.8" style="fill:#d1b4e3"/><polygon points="178.3 181.17 178.3 132.8 210.79 71.22 215.63 67.83 215.63 160.27 178.3 181.17" style="fill:url(#be)"/><polygon points="174.46 74.89 145.61 92.07 145.61 169.31 151.23 166.02 151.23 117.15 174.46 74.89" style="fill:url(#bf)"/><polygon points="107.5 136.6 119.17 143.39 119.17 106.8 107.5 99.96 107.5 136.6" style="fill:url(#bg)"/><polygon points="107.5 136.6 119.17 106.8 107.5 99.96 107.5 136.6" style="opacity:0.5;fill:url(#bh)"/><path d="M376.47,209.7v36.64l11.66,6.78V216.54Zm10.74,41.81-9.82-5.71V211.32l9.82,5.75Z" transform="translate(-268.96 -109.74)" style="opacity:0.5;fill:url(#bi)"/><polygon points="145.61 92.07 145.61 169.31 118.74 153.68 118.74 76.32 145.61 92.07" style="fill:url(#bj)"/><polygon points="123.64 156.35 123.64 113.57 140.71 123.58 140.71 166.28 123.64 156.35" style="fill:#f1e8f6"/><polygon points="138.86 124.64 138.86 163.06 125.49 155.28 125.49 116.8 138.86 124.64" style="fill:#d1b4e3"/><polygon points="155.95 168.09 155.95 125.3 173.02 135.31 173.02 178.02 155.95 168.09" style="fill:#f1e8f6"/><polygon points="171.17 136.37 171.17 174.8 157.8 167.02 157.8 128.54 171.17 136.37" style="fill:#d1b4e3"/><polygon points="123.64 107.94 123.64 84.85 140.71 94.85 140.71 117.88 123.64 107.94" style="fill:#f1e8f6"/><polygon points="138.86 95.92 138.86 114.66 125.49 106.88 125.49 88.08 138.86 95.92" style="fill:#d1b4e3"/><polygon points="127.19 154.44 138.86 161.22 138.86 124.64 127.19 117.8 127.19 154.44" style="fill:url(#bk)"/><polygon points="127.19 154.44 138.86 124.64 127.19 117.8 127.19 154.44" style="fill:url(#bl)"/><polygon points="159.5 166.17 171.17 172.96 171.17 136.37 159.5 129.53 159.5 166.17" style="fill:url(#bm)"/><polygon points="159.5 166.17 171.17 136.37 159.5 129.53 159.5 166.17" style="opacity:0.5;fill:url(#bn)"/><polygon points="127.19 106.03 138.86 112.82 138.86 95.92 127.19 89.08 127.19 106.03" style="fill:url(#bo)"/><path d="M428.47,239.27v36.64l11.66,6.78V246.11Zm10.74,41.81-9.82-5.71V240.89l9.82,5.75Z" transform="translate(-268.96 -109.74)" style="opacity:0.5;fill:url(#bp)"/><polygon points="127.19 106.03 138.86 95.92 127.19 89.08 127.19 106.03" style="fill:url(#bq)"/><path d="M396.15,198.81v17l11.67,6.78v-16.9Zm10.75,22.13-9.82-5.71v-14.8l9.82,5.75Z" transform="translate(-268.96 -109.74)" style="opacity:0.5;fill:url(#br)"/><path d="M396.15,227.53v36.64L407.82,271V234.37Zm10.75,41.82-9.82-5.71V229.15l9.82,5.75Z" transform="translate(-268.96 -109.74)" style="opacity:0.5;fill:url(#bs)"/><polygon points="188.31 127.67 191.25 125.99 208.45 115.98 208.45 91 188.31 127.67" style="fill:#d1b4e3"/><polygon points="193.24 122.69 206.6 114.91 206.6 98.43 193.24 122.69" style="fill:#f1e8f6"/><polygon points="188.62 132.75 208.45 121.41 208.45 164.19 188.62 175.46 188.62 132.75" style="fill:#d1b4e3"/><polygon points="190.48 133.82 190.48 172.24 206.6 163.12 206.6 124.64 190.48 133.82" style="fill:#f1e8f6"/><polygon points="205.06 162.27 205.06 125.55 190.48 133.82 190.48 170.49 205.06 162.27" style="fill:url(#bt)"/><path d="M459.44,243.55v36.68L474,272V235.28Zm13.65,27.92-12.72,7.17V244.09l12.72-7.22Z" transform="translate(-268.96 -109.74)" style="fill:#e6e7e8;mix-blend-mode:multiply"/><polygon points="205.06 101.23 194.65 120.11 205.06 114.06 205.06 101.23" style="fill:url(#bu)"/><path d="M463.62,229.85l10.4-6V211Zm9.47-6.58-7,4.1,7-12.8Z" transform="translate(-268.96 -109.74)" style="opacity:0.5;fill:url(#bv)"/><polygon points="145.61 92.07 174.46 74.89 147.59 59.25 118.74 76.32 145.61 92.07" style="fill:url(#bw)"/><polygon points="184.21 182.4 184.21 184.65 221.41 163.54 221.41 161.29 184.21 182.4" style="fill:url(#bx)"/><polygon points="184.22 182.4 184.22 184.65 178.29 181.16 178.29 178.93 184.22 182.4" style="fill:url(#by)"/><polygon points="178.29 178.93 184.22 182.4 221.41 161.29 215.62 157.93 178.29 178.93" style="fill:url(#bz)"/><ellipse cx="461.85" cy="259.01" rx="1.34" ry="0.78" transform="translate(-263.81 417.26) rotate(-59.69)" style="fill:url(#ca)"/><polygon points="151.23 117.15 180.15 71.87 159.36 121.8 151.23 117.15" style="mix-blend-mode:multiply;fill:url(#cb)"/><polygon points="178.29 178.93 221.41 161.29 215.62 157.93 178.29 178.93" style="fill:url(#cc)"/><polygon points="258.15 103.48 258.15 140.33 259.89 140.98 259.89 102.53 258.15 103.48" style="fill:#f1e8f6"/><polygon points="210.55 70.22 210.55 71.47 131.62 25.97 131.62 24.72 210.55 70.22" style="fill:url(#cd)"/><polygon points="210.54 70.22 210.54 71.47 215.71 68.43 215.71 67.2 210.54 70.22" style="fill:url(#ce)"/><polygon points="215.71 67.2 210.54 70.22 131.62 24.72 136.81 21.69 215.71 67.2" style="fill:url(#cf)"/><polygon points="213.51 67.25 210.6 68.95 133.98 24.78 136.9 23.06 213.51 67.25" style="fill:url(#cg)"/><polygon points="136.91 24.89 135.55 25.68 133.98 24.78 136.91 23.06 213.51 67.25 211.94 68.17 136.91 24.89" style="fill:#d1d3d4;mix-blend-mode:multiply"/><polygon points="175.76 15.57 178.38 19.07 210.53 32.7 210.53 68.32 175.76 48.32 175.76 15.57" style="opacity:0.5;mix-blend-mode:screen;fill:url(#ch)"/><path d="M479.4,138.86c0,4.61-1.59,7.88-4.18,9.47l-4.51,2.78c-2.69,1.5-1-1.92-5.06-4.28-8.24-4.75-14.91-16.27-14.91-25.72,0-4.68-4.32-4.71-1.68-6.27l5-2.86c2.68-1.45,6.36-1.18,10.41,1.15C472.72,117.89,479.4,129.41,479.4,138.86Z" transform="translate(-268.96 -109.74)" style="fill:url(#ci)"/><ellipse cx="459.61" cy="133.15" rx="12.14" ry="21.02" transform="translate(-273.33 140.42) rotate(-30.31)" style="fill:url(#cj)"/><ellipse cx="459.61" cy="133.15" rx="8.97" ry="15.55" transform="translate(-273.33 140.43) rotate(-30.31)" style="fill:url(#ck)"/><path d="M460.63,144.83c-6.09-3.51-11-12-11-19a9,9,0,0,1,1.73-5.79c-1.7,1.25-2.75,3.56-2.75,6.76,0,7,4.94,15.5,11,19,3.91,2.26,7.34,1.89,9.29-.5C466.88,146.77,463.93,146.74,460.63,144.83Z" transform="translate(-268.96 -109.74)" style="mix-blend-mode:multiply;fill:url(#cl)"/><g style="mix-blend-mode:multiply"><path d="M464.81,113.34l-.32-.21-.3-.15-4.95,2.86.37.19.26.17Z" transform="translate(-268.96 -109.74)" style="fill:#fdd65b"/><path d="M459.41,111.24l-5,2.88c.31,0,.62.11.93.19l5-2.89C460,111.34,459.72,111.29,459.41,111.24Z" transform="translate(-268.96 -109.74)" style="fill:#fdd65b"/><path d="M467.74,115.43l-4.94,2.85.5.43,4.94-2.85Z" transform="translate(-268.96 -109.74)" style="fill:#fdd65b"/><path d="M473.14,121.32l-4.92,2.84c.12.16.23.34.35.51l4.92-2.84C473.37,121.66,473.26,121.48,473.14,121.32Z" transform="translate(-268.96 -109.74)" style="fill:#fdd65b"/><path d="M470.66,118.24l-4.93,2.85c.15.16.28.32.42.48l4.93-2.85Z" transform="translate(-268.96 -109.74)" style="fill:#fdd65b"/><path d="M475.23,124.6l-4.91,2.84.3.55,4.91-2.84C475.43,125,475.34,124.79,475.23,124.6Z" transform="translate(-268.96 -109.74)" style="fill:#fdd65b"/><path d="M478.55,144l-4.84,2.79c-.12.33-.24.65-.38.94l4.82-2.78C478.29,144.68,478.42,144.36,478.55,144Z" transform="translate(-268.96 -109.74)" style="fill:#fdd65b"/><path d="M474.51,142.12c0,.25,0,.5,0,.74l4.88-2.81,0-.74Z" transform="translate(-268.96 -109.74)" style="fill:#fdd65b"/><path d="M479.18,135.9c0-.22-.05-.44-.08-.67l-4.9,2.83c0,.22.06.44.09.67Z" transform="translate(-268.96 -109.74)" style="fill:#fdd65b"/><path d="M473.32,134.33c.06.2.11.41.17.62l4.9-2.83-.17-.62Z" transform="translate(-268.96 -109.74)" style="fill:#fdd65b"/><path d="M477.17,128.59l-.24-.59L472,130.84c.09.19.16.39.24.58Z" transform="translate(-268.96 -109.74)" style="fill:#fdd65b"/></g><path d="M470.73,115.73c4.83,5.39,6.26,12,3.2,14.74s-9.47.6-14.3-4.8-6.26-12-3.2-14.74S465.9,110.33,470.73,115.73Z" transform="translate(-268.96 -109.74)" style="mix-blend-mode:color-dodge;fill:url(#cm)"/><path d="M464.49,113.13c-4.05-2.33-7.73-2.6-10.41-1.15l-.68.38c2.63-1.12,6.05-.75,9.8,1.42,8.24,4.75,14.91,16.27,14.91,25.72,0,4.62-1.59,7.89-4.18,9.47-.06,0,1.21-.6,1.29-.64,2.59-1.59,4.18-4.86,4.18-9.47C479.4,129.41,472.72,117.89,464.49,113.13Z" transform="translate(-268.96 -109.74)" style="mix-blend-mode:multiply;fill:url(#cn)"/><path d="M460.26,115.61c-3.95-2.28-7.47-2.52-10.14-1.19,2.49-.69,5.57-.17,8.92,1.76,8.23,4.75,14.91,16.27,14.91,25.72,0,4.92-1.81,8.31-4.71,9.75,3.64-1,5.94-4.7,5.94-10.32C475.18,131.88,468.5,120.37,460.26,115.61Z" transform="translate(-268.96 -109.74)" style="mix-blend-mode:color-dodge;fill:url(#co)"/><polygon points="191.16 30.82 196.34 25.38 191.16 13.97 185.97 19.4 191.16 30.82" style="mix-blend-mode:multiply;fill:url(#cp)"/><polygon points="190.35 30.82 195.53 25.38 190.35 13.97 185.17 19.4 190.35 30.82" style="fill:url(#cq)"/><polygon points="195.53 25.38 190.35 13.97 185.17 19.4 195.53 25.38" style="opacity:0.5;mix-blend-mode:color-dodge;fill:url(#cr)"/><polygon points="190.35 30.82 195.53 25.38 190.35 13.97 190.35 30.82" style="opacity:0.5;mix-blend-mode:color-dodge;fill:url(#cs)"/><path d="M470,313.55c-6.73-6.69-21.54-9-33.08-5.15-8,2.68-12.36,7.64-12,12.66l-7.33,2.44,1.41,1.41L381.7,337.33l-3.16,6.91,11,1.71,1.95-4.25,7.22,1.12,1.9-4.16,7.21,1.12,1.91-4.16,7.39,1.15,10.34-3.44,1.41,1.4,7.33-2.44a39.86,39.86,0,0,0,25,.33C472.79,328.78,476.69,320.24,470,313.55Zm-8.43,7.88c-3.62,1.21-8.26.48-10.37-1.61s-.89-4.78,2.73-6,8.26-.48,10.38,1.62S465.14,320.22,461.52,321.43Z" transform="translate(-268.96 -109.74)" style="opacity:0.5;mix-blend-mode:multiply;fill:url(#ct)"/><path d="M472.09,313.22c-9.47-5.47-24.79-5.5-34.21-.06-6.56,3.79-8.52,9.23-5.9,14l-6,3.46,2,1.14-30.42,17.57,0,7.16,11.38,0,0-4.41,7.46,0,0-4.31h7.46l0-4.31h7.65l8.43-4.87,2,1.15,6-3.45c8.32,1.51,17.75.38,24.31-3.41C481.62,327.54,481.57,318.69,472.09,313.22Zm-4.61,8.88a11.83,11.83,0,0,1-10.73,0c-3-1.71-3-4.49,0-6.19a11.83,11.83,0,0,1,10.73,0C470.42,317.62,470.43,320.4,467.48,322.1Z" transform="translate(-268.96 -109.74)" style="mix-blend-mode:multiply;fill:url(#cu)"/><path d="M470.5,312.36c-9.47-5.47-24.79-5.5-34.21-.06-6.56,3.79-8.51,9.23-5.9,14l-6,3.46,2,1.15L396,348.5l0,7.16,11.37,0,0-4.4h7.46l0-4.31h7.47l0-4.31,7.65,0,8.43-4.87,2,1.14,6-3.45c8.32,1.51,17.74.38,24.3-3.4C480,326.68,480,317.83,470.5,312.36Zm-4.61,8.88a11.83,11.83,0,0,1-10.73,0c-3-1.71-3-4.49,0-6.19a11.83,11.83,0,0,1,10.73,0C468.83,316.76,468.84,319.54,465.89,321.24Z" transform="translate(-268.96 -109.74)" style="fill:url(#cv)"/><path d="M470.5,308.93c-9.47-5.47-24.79-5.5-34.21-.06-6.56,3.79-8.51,9.23-5.9,14l-6,3.46,2,1.15L396,345.07l0,7.16,11.37,0,0-4.41,7.46,0,0-4.31h7.47l0-4.31,7.65,0,8.43-4.87,2,1.14,6-3.45c8.32,1.51,17.74.38,24.3-3.4C480,323.25,480,314.4,470.5,308.93Zm-4.61,8.88a11.83,11.83,0,0,1-10.73,0c-3-1.71-3-4.49,0-6.19a11.83,11.83,0,0,1,10.73,0C468.83,313.33,468.84,316.11,465.89,317.81Z" transform="translate(-268.96 -109.74)" style="fill:url(#cw)"/><path d="M402.21,346.82a.63.63,0,0,1-.31-1.18l31.44-18a.64.64,0,0,1,.87.23.63.63,0,0,1-.23.87l-31.45,18A.61.61,0,0,1,402.21,346.82Z" transform="translate(-268.96 -109.74)" style="mix-blend-mode:color-dodge;fill:url(#cx)"/><path d="M402.61,347.06a.63.63,0,0,1-.55-.32.64.64,0,0,1,.23-.87l31.45-18a.63.63,0,1,1,.63,1.1l-31.44,18A.72.72,0,0,1,402.61,347.06Z" transform="translate(-268.96 -109.74)" style="fill:url(#cy)"/><g style="mix-blend-mode:color-dodge"><path d="M430.39,322.54a8.89,8.89,0,0,1-1.1-3.82,8.47,8.47,0,0,0,.77,4Z" transform="translate(-268.96 -109.74)" style="fill:url(#cz)"/><polygon points="127.05 242.13 127.02 235.84 127.01 235.84 127.05 243 138.43 243.02 138.43 242.15 127.05 242.13" style="fill:url(#da)"/><path d="M465.85,311.25a11.89,11.89,0,0,0-10.73,0c-1.66,1-2.35,2.26-2.13,3.52a4,4,0,0,1,2.13-2.64,11.83,11.83,0,0,1,10.73,0A4,4,0,0,1,468,314.8C468.24,313.54,467.54,312.23,465.85,311.25Z" transform="translate(-268.96 -109.74)" style="fill:url(#db)"/><polygon points="157.44 217.4 156.2 216.69 155.45 217.13 156.68 217.84 157.44 217.4" style="fill:url(#dc)"/><path d="M470.61,328.32c-6.56,3.79-16,4.92-24.3,3.41l-6,3.45-2-1.15-8.43,4.87h-7.65v.87h7.64l8.43-4.87,2,1.15,6-3.45c8.32,1.51,17.74.38,24.3-3.41,4.89-2.82,7.21-6.56,7-10.27C477.43,322.34,475.12,325.72,470.61,328.32Z" transform="translate(-268.96 -109.74)" style="fill:url(#dd)"/><polygon points="138.41 237.74 138.41 238.62 145.87 238.63 145.87 237.76 138.41 237.74" style="fill:url(#de)"/><polygon points="145.85 233.45 145.85 234.32 153.31 234.33 153.31 233.46 145.85 233.45" style="fill:url(#df)"/></g><polygon points="148.6 208.18 148.6 212.49 150.02 209.58 148.6 208.18" style="fill:url(#dg)"/><path d="M470,312c-6.73-6.69-21.54-9-33.08-5.15-8,2.68-12.36,7.63-12,12.66L417.57,322l1.41,1.4L381.7,335.8l-3.16,6.92,11,1.71,1.95-4.26,7.22,1.13,1.9-4.17,7.21,1.13,1.91-4.16,7.39,1.15,10.34-3.45,1.41,1.41,7.33-2.44a39.93,39.93,0,0,0,25,.33C472.79,327.25,476.69,318.71,470,312Zm-8.43,7.88c-3.62,1.2-8.26.48-10.37-1.62s-.89-4.77,2.73-6,8.26-.48,10.38,1.61S465.14,318.7,461.52,319.91Z" transform="translate(-268.96 -109.74)" style="opacity:0.5;mix-blend-mode:multiply;fill:url(#dh)"/><path d="M470,311.39c-6.73-6.69-21.54-9-33.08-5.15-8,2.68-12.36,7.64-12,12.66l-7.33,2.44,1.41,1.41L381.7,335.17l-3.16,6.91,11,1.71,1.95-4.25,7.22,1.12,1.9-4.16,7.21,1.12,1.91-4.16,7.39,1.15,10.34-3.44,1.41,1.4,7.33-2.44a39.86,39.86,0,0,0,25,.33C472.79,326.62,476.69,318.08,470,311.39Zm-8.43,7.88c-3.62,1.21-8.26.48-10.37-1.61s-.89-4.78,2.73-6,8.26-.48,10.38,1.62S465.14,318.06,461.52,319.27Z" transform="translate(-268.96 -109.74)" style="fill:url(#di)"/><path d="M470,308c-6.73-6.69-21.54-9-33.08-5.15-8,2.68-12.36,7.64-12,12.66l-7.33,2.44,1.41,1.41L381.7,331.74l-3.16,6.91,11,1.71,1.95-4.25,7.22,1.12,1.9-4.16,7.21,1.12,1.91-4.16,7.39,1.15,10.34-3.44,1.41,1.4,7.33-2.44a39.86,39.86,0,0,0,25,.33C472.79,323.19,476.69,314.65,470,308Zm-8.43,7.88c-3.62,1.21-8.26.48-10.37-1.62s-.89-4.77,2.73-6,8.26-.48,10.38,1.62S465.14,314.63,461.52,315.84Z" transform="translate(-268.96 -109.74)" style="fill:url(#dj)"/><path d="M382.25,336.65l1.3-2.85,40.15-13.38-1.41-1.4,5.3-1.77-.16-2c-.3-3.94,3.72-7.88,10.24-10.06a37.4,37.4,0,0,1,23.25.25,15.17,15.17,0,0,0-3.27-.35,14.82,14.82,0,0,0-4.57.71c-2.89,1-4.85,2.79-5.37,5a5.47,5.47,0,0,0,1.65,5.18c1.85,1.84,5,2.93,8.4,2.93a14.58,14.58,0,0,0,4.57-.71c2.89-1,4.84-2.79,5.37-5a5.52,5.52,0,0,0-1.65-5.18L466,308a15.54,15.54,0,0,1,2.22,1.8c1.45,1.45,3,3.75,2.39,6.53-.79,3.37-4.57,6.48-10.12,8.33a35.84,35.84,0,0,1-11.19,1.73h0a36,36,0,0,1-12.18-2l-.83-.3-6.69,2.23-1.41-1.41-11.24,3.75-8.69-1.36-1.9,4.17-7.21-1.13-1.91,4.16L390,333.3l-2,4.25Z" transform="translate(-268.96 -109.74)" style="fill:url(#dk)"/><path d="M428.46,316.78l-.15-2c-.31-3.93,3.71-7.88,10.23-10.05A35.74,35.74,0,0,1,449.76,303a37.58,37.58,0,0,1,8.85,1.05,14.44,14.44,0,0,1,2.31.3,37.4,37.4,0,0,0-23.25-.25c-6.52,2.17-10.54,6.12-10.24,10.05l.16,2Z" transform="translate(-268.96 -109.74)" style="opacity:0.5;mix-blend-mode:multiply;fill:url(#dl)"/><polygon points="109.58 228.91 109.58 232.34 120.58 234.06 120.58 230.63 109.58 228.91" style="fill:url(#dm)"/><polygon points="122.52 226.37 122.52 229.8 129.74 230.92 129.74 227.49 122.52 226.37" style="fill:url(#dn)"/><polygon points="131.64 223.33 131.64 226.76 138.86 227.89 138.86 224.46 131.64 223.33" style="fill:url(#do)"/><polygon points="140.76 220.29 140.76 223.72 148.16 224.88 148.16 221.44 140.76 220.29" style="fill:url(#dp)"/><polygon points="159.91 219.41 159.91 222.84 167.24 220.39 167.24 216.96 159.91 219.41" style="fill:url(#dq)"/><g style="mix-blend-mode:color-dodge"><path d="M464.26,309.2c-2.12-2.1-6.76-2.82-10.38-1.61-2.74.91-4.1,2.66-3.7,4.36.3-1.29,1.59-2.5,3.7-3.2,3.62-1.2,8.26-.48,10.38,1.62a3.43,3.43,0,0,1,1,1.61A2.94,2.94,0,0,0,464.26,309.2Z" transform="translate(-268.96 -109.74)" style="fill:url(#dr)"/><path d="M461.24,326.37a39.79,39.79,0,0,1-25-.33l-7.33,2.45-1.41-1.41-10.34,3.45-7.39-1.16-1.91,4.17-7.21-1.13-1.9,4.16-7.22-1.12-1.95,4.25L379,338.07l-.5,1.09,11,1.71,1.95-4.26,7.22,1.13,1.9-4.16,7.21,1.12,1.91-4.16,7.39,1.15,10.34-3.44,1.41,1.4,7.33-2.44a39.86,39.86,0,0,0,25,.33c8.05-2.68,12.37-7.65,12-12.68C472.91,319.48,468.67,323.9,461.24,326.37Z" transform="translate(-268.96 -109.74)" style="fill:url(#ds)"/></g><path d="M458.48,316.45l1.25-.19a7.81,7.81,0,0,1-1.3-4.78c0-6.64,4.71-14.77,10.51-18.12a8.86,8.86,0,0,1,4.28-1.34c2.9,0,4.64,2.4,4.64,6.41a22.37,22.37,0,0,1-4.47,12.42l.44.28c.73.71,1,1.23,1.8,1.94l-.07.2c3.31-4.37,5.47-9.88,5.47-14.84,0-5.82-3.07-9.58-7.81-9.58a11.81,11.81,0,0,0-5.87,1.76c-6.78,3.92-12.1,13.08-12.1,20.87a12,12,0,0,0,.94,4.89Z" transform="translate(-268.96 -109.74)" style="fill:url(#dt)"/><path d="M457.46,310.78c0-7,4.83-15.22,10.93-18.71,3.29-1.89,6.47-2.13,9-.67.18.11.35.24.53.36a7,7,0,0,0-1.74-1.46c-2.49-1.45-5.67-1.21-9,.67-6.11,3.5-10.91,11.72-10.94,18.72,0,3.09.91,5.58,2.66,7.18a6.38,6.38,0,0,0,.6.46A9.88,9.88,0,0,1,457.46,310.78Z" transform="translate(-268.96 -109.74)" style="mix-blend-mode:screen;fill:url(#du)"/><path d="M479.86,299.8c0-2.22-.67-3.89-1.85-4.58l-.2-.08a6.46,6.46,0,0,1,.87,3.59c0,5.49-2.74,9.32-4.67,12.33l1.35.75C476.58,310.07,479.84,305.19,479.86,299.8Z" transform="translate(-268.96 -109.74)" style="mix-blend-mode:screen;fill:url(#dv)"/><path d="M461,300a7.21,7.21,0,0,0-9,2.81c-2,3.06-1.13,6.77,1.86,8.29s7,.25,9-2.81S464,301.54,461,300Z" transform="translate(-268.96 -109.74)" style="mix-blend-mode:color-dodge;fill:url(#dw)"/><g style="opacity:0.5;mix-blend-mode:color-dodge"><path d="M386.12,334.28a.62.62,0,0,1-.6-.44.63.63,0,0,1,.4-.8l39.47-13a.64.64,0,1,1,.39,1.21l-39.46,13A.48.48,0,0,1,386.12,334.28Z" transform="translate(-268.96 -109.74)" style="fill:url(#dx)"/></g><g style="mix-blend-mode:color-dodge"><path d="M418.28,326.57a.63.63,0,0,1-.6-.43.64.64,0,0,1,.4-.81l9-3a.63.63,0,1,1,.39,1.2l-9,3A.69.69,0,0,1,418.28,326.57Z" transform="translate(-268.96 -109.74)" style="opacity:0.5;mix-blend-mode:color-dodge;fill:url(#dy)"/></g><path d="M386.33,334.59a.63.63,0,0,1-.6-.43.64.64,0,0,1,.4-.81l39.47-13a.64.64,0,0,1,.4,1.21l-39.47,13A.69.69,0,0,1,386.33,334.59Z" transform="translate(-268.96 -109.74)" style="fill:url(#dz)"/><path d="M418.49,326.89a.64.64,0,0,1-.2-1.24l9-3a.64.64,0,1,1,.39,1.21l-9,3A.64.64,0,0,1,418.49,326.89Z" transform="translate(-268.96 -109.74)" style="fill:url(#ea)"/><path d="M457.84,326.91c2.89,2.64,3.87,6.28,2.18,8.13s-5.4,1.21-8.29-1.44-3.87-6.28-2.19-8.13S454.94,324.27,457.84,326.91Z" transform="translate(-268.96 -109.74)" style="mix-blend-mode:color-dodge;fill:url(#eb)"/><g style="mix-blend-mode:color-dodge"><polygon points="323.62 213.53 325.25 212.58 323.23 211.41 321.6 212.36 323.62 213.53" style="fill:url(#ec)"/><polygon points="319.54 219.88 321.17 218.93 319.14 217.76 317.51 218.71 319.54 219.88" style="fill:url(#ed)"/><polygon points="332.05 218.39 337.79 221.71 339.42 220.76 333.69 217.45 332.05 218.39" style="fill:url(#ee)"/><polygon points="330.7 217.62 332.34 216.67 326.6 213.36 324.97 214.3 330.7 217.62" style="fill:url(#ef)"/><polygon points="328.25 223.02 322.52 219.71 320.88 220.66 326.62 223.97 328.25 223.02" style="fill:url(#eg)"/><polygon points="322.21 217.07 323.84 216.12 316.76 212.03 315.13 212.98 322.21 217.07" style="fill:url(#eh)"/><polygon points="329.83 219.58 325.19 216.9 323.56 217.84 328.2 220.52 329.83 219.58" style="fill:url(#ei)"/><polygon points="320.25 211.58 321.88 210.63 312.77 205.38 311.14 206.32 320.25 211.58" style="fill:url(#ej)"/><polygon points="342.68 227 338.52 224.59 336.88 225.54 341.05 227.94 342.68 227" style="fill:url(#ek)"/><polygon points="337.17 223.81 331.18 220.36 329.55 221.3 335.54 224.76 337.17 223.81" style="fill:url(#el)"/><polygon points="311.42 204.6 309.77 203.64 308.13 204.58 309.79 205.54 311.42 204.6" style="fill:url(#em)"/><polygon points="306.26 214.68 298.45 210.17 296.82 211.12 304.63 215.63 306.26 214.68" style="fill:url(#en)"/><polygon points="307.34 210.95 302.23 208 300.59 208.94 305.7 211.89 307.34 210.95" style="fill:url(#eo)"/><polygon points="309.68 207.94 306 205.82 304.36 206.76 308.04 208.88 309.68 207.94" style="fill:url(#ep)"/><polygon points="313.78 212.2 315.41 211.25 311.02 208.72 309.39 209.66 313.78 212.2" style="fill:url(#eq)"/><polygon points="316.16 217.93 317.8 216.99 308.69 211.73 307.05 212.67 316.16 217.93" style="fill:url(#er)"/><polygon points="309.27 218.3 310.9 217.36 307.61 215.46 305.98 216.41 309.27 218.3" style="fill:url(#es)"/><polygon points="331.06 229 326.42 226.32 324.79 227.26 329.43 229.94 331.06 229" style="fill:url(#et)"/><polygon points="316.64 220.67 312.25 218.14 310.62 219.08 315 221.62 316.64 220.67" style="fill:url(#eu)"/><polygon points="325.07 225.54 317.99 221.45 316.35 222.39 323.44 226.48 325.07 225.54" style="fill:url(#ev)"/></g><g style="mix-blend-mode:color-dodge"><polygon points="309.7 243.78 311.34 242.83 309.31 241.66 307.68 242.61 309.7 243.78" style="fill:url(#ew)"/><polygon points="305.62 250.13 307.25 249.18 305.23 248.01 303.59 248.96 305.62 250.13" style="fill:url(#ex)"/><polygon points="318.14 248.64 323.87 251.96 325.51 251.01 319.77 247.7 318.14 248.64" style="fill:url(#ey)"/><polygon points="316.79 247.87 318.42 246.92 312.69 243.61 311.05 244.55 316.79 247.87" style="fill:url(#ez)"/><polygon points="314.34 253.27 308.6 249.96 306.97 250.91 312.7 254.22 314.34 253.27" style="fill:url(#fa)"/><polygon points="308.29 247.32 309.93 246.37 302.84 242.28 301.21 243.23 308.29 247.32" style="fill:url(#fb)"/><polygon points="315.92 249.83 311.28 247.15 309.64 248.09 314.28 250.77 315.92 249.83" style="fill:url(#fc)"/><polygon points="306.33 241.83 307.96 240.88 298.86 235.63 297.22 236.57 306.33 241.83" style="fill:url(#fd)"/><polygon points="328.77 257.25 324.6 254.84 322.97 255.79 327.13 258.19 328.77 257.25" style="fill:url(#fe)"/><polygon points="323.25 254.06 317.26 250.61 315.63 251.55 321.62 255.01 323.25 254.06" style="fill:url(#ff)"/><polygon points="297.51 234.85 295.85 233.89 294.22 234.83 295.87 235.79 297.51 234.85" style="fill:url(#fg)"/><polygon points="292.35 244.93 284.54 240.42 282.9 241.37 290.71 245.88 292.35 244.93" style="fill:url(#fh)"/><polygon points="293.42 241.2 288.31 238.25 286.67 239.19 291.79 242.14 293.42 241.2" style="fill:url(#fi)"/><polygon points="295.76 238.19 292.08 236.07 290.44 237.01 294.12 239.13 295.76 238.19" style="fill:url(#fj)"/><polygon points="299.86 242.45 301.49 241.5 297.11 238.97 295.47 239.91 299.86 242.45" style="fill:url(#fk)"/><polygon points="302.24 248.18 303.88 247.24 294.77 241.98 293.14 242.92 302.24 248.18" style="fill:url(#fl)"/><polygon points="295.35 248.55 296.99 247.61 293.7 245.71 292.06 246.66 295.35 248.55" style="fill:url(#fm)"/><polygon points="317.14 259.25 312.5 256.57 310.87 257.51 315.51 260.19 317.14 259.25" style="fill:url(#fn)"/><polygon points="302.72 250.92 298.34 248.39 296.7 249.33 301.09 251.87 302.72 250.92" style="fill:url(#fo)"/><polygon points="311.15 255.79 304.07 251.7 302.44 252.64 309.52 256.73 311.15 255.79" style="fill:url(#fp)"/></g><path d="M482.93,348.67l-2.07,7.42L505,353.73c.85-.08,1.29-.62.88-1.05l-2.19-2.29a1.77,1.77,0,0,0-1.48-.34l-16.07,3,1.36-3.5c.12-.32-.15-.65-.67-.8l-2.08-.61C484,347.93,483.07,348.2,482.93,348.67Z" transform="translate(-268.96 -109.74)" style="fill:#7c1dc9;opacity:0.2;mix-blend-mode:color-dodge"/><path d="M482.93,346l-2.07,7.42L505,351.06c.85-.08,1.29-.62.88-1.05l-2.19-2.29a1.74,1.74,0,0,0-1.48-.33l-16.07,3,1.36-3.51c.12-.32-.15-.65-.67-.8l-2.08-.6C484,345.27,483.07,345.53,482.93,346Z" transform="translate(-268.96 -109.74)" style="fill:#7c1dc9;opacity:0.8;mix-blend-mode:color-dodge"/><path d="M555.92,343.25a1,1,0,0,0,.9,0l.38-.22-14.64-8.46-.39.22c-.25.14-.24.38,0,.52l.6.35-6.59,3.8-.45-.26a1,1,0,0,0-.9,0l-.61.35,14.35,8.28.61-.35c.24-.14.24-.37,0-.52l-.45-.26,6.59-3.8Zm-14.56-.81-3-1.71,6.58-3.8,3,1.71Zm5.17,3-3-1.71,6.59-3.81,3,1.72Zm2.41,2.9-15.58-9a1,1,0,0,0-.9,0l-.6.35,16.47,9.51.61-.35C549.19,348.71,549.19,348.48,548.94,348.33Zm-6.73-14.28,15.9,9.18c.27.15.72,0,.6-.22l-4-7-12.17-2.29C542.21,333.63,541.94,333.89,542.21,334.05Z" transform="translate(-268.96 -109.74)" style="fill:#7c1dc9;opacity:0.8;mix-blend-mode:color-dodge"/><path d="M569.28,306.13l1-.61a.31.31,0,0,0,0-.59,1.13,1.13,0,0,0-1,0l-1,.6c-4.55-2.35-11.07-2.53-14.87-.33.75-.44,2.59-.08,4.11.79s2.14,1.94,1.38,2.38c.67-.39,2.18-.15,3.57.51l-7.22,4.17a1.67,1.67,0,0,1-1.54,0c-.43-.25-.43-.64,0-.89l.26-.15a.31.31,0,0,0,0-.59,1.17,1.17,0,0,0-1,0l-.26.15a1.09,1.09,0,0,0,0,2.07,4,4,0,0,0,3.6,0l7.22-4.17c1.15.8,1.56,1.67.89,2.06.76-.44,2.6-.08,4.12.8s2.13,1.93,1.38,2.37C573.66,312.51,573.35,308.75,569.28,306.13Z" transform="translate(-268.96 -109.74)" style="fill:#7c1dc9;opacity:0.8;mix-blend-mode:color-dodge"/><polygon points="114.01 193.58 114.01 146.67 62.55 116.97 62.55 163.86 114.01 193.58" style="stroke:#000;stroke-miterlimit:10;stroke-width:0.01800000098347665px;opacity:0.30000001192092896;isolation:isolate;fill:url(#fq)"/><polygon points="45.4 173.78 62.55 163.86 62.55 116.97 45.4 126.87 45.4 173.78" style="stroke:#000;stroke-miterlimit:10;stroke-width:0.01800000098347665px;opacity:0.699999988079071;isolation:isolate;fill:url(#fr)"/><polygon points="114.01 193.58 62.55 163.86 45.4 173.78 96.86 203.48 114.01 193.58" style="stroke:#000;stroke-miterlimit:10;stroke-width:0.01800000098347665px;opacity:0.699999988079071;isolation:isolate;fill:url(#fs)"/><polygon points="96.86 203.48 96.86 156.57 45.4 126.87 45.4 173.78 96.86 203.48" style="fill:#fae800;stroke:#000;stroke-miterlimit:10;stroke-width:0.01800000098347665px"/><polygon points="96.86 203.48 114.01 193.58 114.01 146.67 96.86 156.57 96.86 203.48" style="fill:#fe8800;stroke:#000;stroke-miterlimit:10;stroke-width:0.01800000098347665px"/><polygon points="114.01 146.67 62.55 116.97 45.4 126.87 96.86 156.57 114.01 146.67" style="fill:#fea400;stroke:#000;stroke-miterlimit:10;stroke-width:0.01800000098347665px"/><path d="M370.65,235.76a35.22,35.22,0,0,0-17.55-30.4,16.56,16.56,0,0,0-24.84,14.35v18h0c0,1.86,2.41,3.33,5.31,3.28s5.24-1.59,5.2-3.46h0V219.69a6,6,0,0,1,9.07-5.24,24.66,24.66,0,0,1,12.3,21.28V256.1h0c0,1.86,2.41,3.33,5.31,3.28s5.23-1.58,5.2-3.46h0Z" transform="translate(-268.96 -109.74)" style="fill:#fe8800;stroke:#000;stroke-miterlimit:10;stroke-width:0.01800000098347665px"/></g></svg>