<svg xmlns="http://www.w3.org/2000/svg" xmlns:xlink="http://www.w3.org/1999/xlink" viewBox="0 0 357.88 245.65"><defs><linearGradient id="a" x1="309.17" y1="184.61" x2="351.83" y2="212.61" gradientUnits="userSpaceOnUse"><stop offset="0.09" stop-color="#7c1dc9"/><stop offset="0.2" stop-color="#62179f"/><stop offset="0.34" stop-color="#44106f"/><stop offset="0.48" stop-color="#2c0a47"/><stop offset="0.62" stop-color="#190628"/><stop offset="0.75" stop-color="#0b0312"/><stop offset="0.88" stop-color="#030105"/><stop offset="1"/></linearGradient><linearGradient id="b" x1="305.02" y1="190.93" x2="347.69" y2="218.93" xlink:href="#a"/><linearGradient id="c" x1="309.61" y1="183.94" x2="352.28" y2="211.94" xlink:href="#a"/><linearGradient id="d" x1="309.36" y1="184.33" x2="352.02" y2="212.33" xlink:href="#a"/><linearGradient id="e" x1="305.21" y1="190.64" x2="347.88" y2="218.64" xlink:href="#a"/><linearGradient id="f" x1="307.03" y1="187.88" x2="349.69" y2="215.88" xlink:href="#a"/><linearGradient id="g" x1="307.29" y1="187.48" x2="349.95" y2="215.48" xlink:href="#a"/><linearGradient id="h" x1="308.92" y1="185" x2="351.58" y2="213" xlink:href="#a"/><linearGradient id="i" x1="307.76" y1="186.76" x2="350.43" y2="214.76" xlink:href="#a"/><linearGradient id="j" x1="307.53" y1="187.11" x2="350.2" y2="215.11" xlink:href="#a"/><linearGradient id="k" x1="308.67" y1="185.37" x2="351.34" y2="213.37" xlink:href="#a"/><linearGradient id="l" x1="302.38" y1="194.95" x2="345.05" y2="222.95" xlink:href="#a"/><linearGradient id="m" x1="304.47" y1="191.78" x2="347.13" y2="219.78" xlink:href="#a"/><linearGradient id="n" x1="306.58" y1="188.56" x2="349.24" y2="216.56" xlink:href="#a"/><linearGradient id="o" x1="306.77" y1="188.27" x2="349.44" y2="216.27" xlink:href="#a"/><linearGradient id="p" x1="304.77" y1="191.31" x2="347.44" y2="219.31" xlink:href="#a"/><linearGradient id="q" x1="302.63" y1="194.57" x2="345.3" y2="222.57" xlink:href="#a"/><linearGradient id="r" x1="303.34" y1="193.5" x2="346" y2="221.5" xlink:href="#a"/><linearGradient id="s" x1="302.82" y1="194.29" x2="345.49" y2="222.29" xlink:href="#a"/><linearGradient id="t" x1="303.08" y1="193.9" x2="345.74" y2="221.9" xlink:href="#a"/><linearGradient id="u" x1="295.25" y1="214.86" x2="337.92" y2="242.86" xlink:href="#a"/><linearGradient id="v" x1="291.11" y1="221.18" x2="333.77" y2="249.18" xlink:href="#a"/><linearGradient id="w" x1="295.7" y1="214.19" x2="338.36" y2="242.19" xlink:href="#a"/><linearGradient id="x" x1="295.44" y1="214.58" x2="338.11" y2="242.58" xlink:href="#a"/><linearGradient id="y" x1="291.3" y1="220.89" x2="333.96" y2="248.89" xlink:href="#a"/><linearGradient id="z" x1="293.11" y1="218.13" x2="335.78" y2="246.13" xlink:href="#a"/><linearGradient id="aa" x1="293.37" y1="217.73" x2="336.04" y2="245.73" xlink:href="#a"/><linearGradient id="ab" x1="295" y1="215.25" x2="337.67" y2="243.25" xlink:href="#a"/><linearGradient id="ac" x1="293.84" y1="217.01" x2="336.51" y2="245.01" xlink:href="#a"/><linearGradient id="ad" x1="293.61" y1="217.36" x2="336.28" y2="245.36" xlink:href="#a"/><linearGradient id="ae" x1="294.76" y1="215.62" x2="337.42" y2="243.62" xlink:href="#a"/><linearGradient id="af" x1="288.47" y1="225.2" x2="331.13" y2="253.2" xlink:href="#a"/><linearGradient id="ag" x1="290.55" y1="222.03" x2="333.22" y2="250.03" xlink:href="#a"/><linearGradient id="ah" x1="292.66" y1="218.81" x2="335.33" y2="246.81" xlink:href="#a"/><linearGradient id="ai" x1="292.85" y1="218.52" x2="335.52" y2="246.52" xlink:href="#a"/><linearGradient id="aj" x1="290.86" y1="221.56" x2="333.52" y2="249.56" xlink:href="#a"/><linearGradient id="ak" x1="288.71" y1="224.82" x2="331.38" y2="252.82" xlink:href="#a"/><linearGradient id="al" x1="289.42" y1="223.75" x2="332.09" y2="251.75" xlink:href="#a"/><linearGradient id="am" x1="288.9" y1="224.54" x2="331.57" y2="252.54" xlink:href="#a"/><linearGradient id="an" x1="289.16" y1="224.15" x2="331.83" y2="252.15" xlink:href="#a"/><linearGradient id="ao" x1="547.61" y1="208.33" x2="647.21" y2="188.46" gradientUnits="userSpaceOnUse"><stop offset="0" stop-color="#9f79c8"/><stop offset="0.14" stop-color="#a580cb"/><stop offset="0.33" stop-color="#b492d3"/><stop offset="0.55" stop-color="#cdb0e1"/><stop offset="0.58" stop-color="#d1b4e3"/><stop offset="0.76" stop-color="#dbc4e9"/><stop offset="1" stop-color="#ebdef3"/></linearGradient><linearGradient id="ap" x1="-1254.17" y1="-144.35" x2="-1541.57" y2="-361.6" gradientTransform="matrix(0.87, 0.5, -1.5, 0.29, 1279.65, 1036.21)" gradientUnits="userSpaceOnUse"><stop offset="0.03" stop-color="#7c1dc9"/><stop offset="0.21" stop-color="#6e41d2"/><stop offset="0.62" stop-color="#4c9be8"/><stop offset="1" stop-color="#2af6ff"/></linearGradient><radialGradient id="aq" cx="2625.71" cy="307.77" r="130.13" gradientTransform="translate(-2178.28)" gradientUnits="userSpaceOnUse"><stop offset="0" stop-color="#fff"/><stop offset="1"/></radialGradient><linearGradient id="ar" x1="154.17" y1="229.58" x2="214.25" y2="40.33" gradientUnits="userSpaceOnUse"><stop offset="0.06" stop-color="#e6e7e8"/><stop offset="1" stop-color="#fafafb"/></linearGradient><linearGradient id="as" x1="506.32" y1="238.7" x2="586.57" y2="173.95" xlink:href="#ao"/><radialGradient id="at" cx="564.2" cy="193.82" r="5.49" gradientTransform="matrix(1, 0, 0, 1, 0, 0)" xlink:href="#aq"/><radialGradient id="au" cx="575.88" cy="200.65" r="4.09" gradientTransform="matrix(1, 0, 0, 1, 0, 0)" xlink:href="#aq"/><radialGradient id="av" cx="545.11" cy="212.41" r="36.22" gradientTransform="matrix(1, 0, 0, 1, 0, 0)" xlink:href="#aq"/><radialGradient id="aw" cx="262.46" cy="105.12" r="39.8" gradientTransform="matrix(1, 0, 0, 1, 0, 0)" xlink:href="#aq"/><linearGradient id="ax" x1="275.78" y1="75.85" x2="308.11" y2="43.85" xlink:href="#ao"/><linearGradient id="ay" x1="217.95" y1="37.36" x2="464.17" y2="-118.19" gradientUnits="userSpaceOnUse"><stop offset="0.1" stop-color="#45108a"/><stop offset="1" stop-color="#7c1dc9"/></linearGradient><linearGradient id="az" x1="250.52" y1="121.79" x2="298.98" y2="230.53" xlink:href="#ao"/><linearGradient id="ba" x1="157.62" y1="67.29" x2="219.44" y2="101.17" xlink:href="#ao"/><linearGradient id="bb" x1="224.77" y1="118.18" x2="318.04" y2="71.77" xlink:href="#ay"/><linearGradient id="bc" x1="126.01" y1="47.3" x2="149.32" y2="170.21" xlink:href="#ao"/><linearGradient id="bd" x1="138.98" y1="168.6" x2="161.06" y2="15.21" gradientUnits="userSpaceOnUse"><stop offset="0" stop-color="#25054d"/><stop offset="1" stop-color="#45108a"/></linearGradient><linearGradient id="be" x1="174.4" y1="116.31" x2="273.41" y2="58.81" xlink:href="#ao"/><linearGradient id="bf" x1="147.32" y1="108.46" x2="208.32" y2="47.67" xlink:href="#ao"/><linearGradient id="bg" x1="85.35" y1="106.26" x2="142.56" y2="93.44" gradientUnits="userSpaceOnUse"><stop offset="0.04" stop-color="#138bbd"/><stop offset="0.23" stop-color="#169ac7"/><stop offset="0.59" stop-color="#1fc3df"/><stop offset="1" stop-color="#2af6ff"/></linearGradient><linearGradient id="bh" x1="132.15" y1="65.44" x2="107.6" y2="96.47" xlink:href="#bg"/><linearGradient id="bi" x1="354.31" y1="237.69" x2="411.52" y2="224.86" xlink:href="#ay"/><linearGradient id="bj" x1="101.22" y1="94.67" x2="161.38" y2="107.23" xlink:href="#ao"/><linearGradient id="bk" x1="105.03" y1="124.1" x2="162.24" y2="111.27" xlink:href="#bg"/><linearGradient id="bl" x1="112.14" y1="91.29" x2="138.85" y2="125.26" xlink:href="#bg"/><linearGradient id="bm" x1="137.34" y1="135.83" x2="194.56" y2="123.01" xlink:href="#bg"/><linearGradient id="bn" x1="183.74" y1="77.56" x2="154.56" y2="136.08" xlink:href="#bg"/><linearGradient id="bo" x1="111.76" y1="84.03" x2="155.22" y2="74.29" xlink:href="#bg"/><linearGradient id="bp" x1="406.31" y1="267.26" x2="463.52" y2="254.43" xlink:href="#ay"/><linearGradient id="bq" x1="116.19" y1="79.61" x2="139.81" y2="71.58" xlink:href="#bg"/><linearGradient id="br" x1="380.73" y1="215.45" x2="424.18" y2="205.71" xlink:href="#ay"/><linearGradient id="bs" x1="374" y1="255.52" x2="431.21" y2="242.7" xlink:href="#ay"/><linearGradient id="bt" x1="190.46" y1="128.52" x2="239.85" y2="113.73" xlink:href="#ay"/><linearGradient id="bu" x1="195.67" y1="90.24" x2="223.95" y2="81.77" xlink:href="#bg"/><linearGradient id="bv" x1="464.64" y1="221.66" x2="492.92" y2="213.19" xlink:href="#ay"/><linearGradient id="bw" x1="153.93" y1="139.11" x2="144.75" y2="32.47" xlink:href="#bd"/><linearGradient id="bx" x1="203.84" y1="153.59" x2="208.12" y2="163.21" xlink:href="#ao"/><linearGradient id="by" x1="162.02" y1="74.97" x2="182.71" y2="166.53" xlink:href="#ao"/><linearGradient id="bz" x1="232.78" y1="85.66" x2="193.38" y2="160.75" xlink:href="#ao"/><linearGradient id="ca" x1="475.13" y1="250.9" x2="461.47" y2="259.24" gradientTransform="translate(452.35 -270.43) rotate(59.69)" gradientUnits="userSpaceOnUse"><stop offset="0.02" stop-color="#45108a"/><stop offset="0.29" stop-color="#3d065f"/><stop offset="1" stop-color="#12054e"/><stop offset="1" stop-color="#10054d"/></linearGradient><linearGradient id="cb" x1="174.93" y1="80.15" x2="157.79" y2="66.56" gradientUnits="userSpaceOnUse"><stop offset="0" stop-color="#fff"/><stop offset="1" stop-color="#bcbec0"/></linearGradient><linearGradient id="cc" x1="200.62" y1="116.57" x2="199.54" y2="161.35" xlink:href="#ao"/><linearGradient id="cd" x1="6227.97" y1="164.57" x2="6221.91" y2="41.97" gradientTransform="matrix(-1, 0, 0, 1, 6398.72, -131.42)" gradientUnits="userSpaceOnUse"><stop offset="0" stop-color="#8c58c4"/><stop offset="0.14" stop-color="#915fc6"/><stop offset="0.33" stop-color="#9e71cd"/><stop offset="0.56" stop-color="#b38fd7"/><stop offset="0.81" stop-color="#d0b8e6"/><stop offset="1" stop-color="#ebdef3"/></linearGradient><linearGradient id="ce" x1="6178.32" y1="180.7" x2="6193.2" y2="177.36" gradientTransform="matrix(-1, 0, 0, 1, 6398.72, -131.42)" xlink:href="#ao"/><linearGradient id="cf" x1="6293.23" y1="25.78" x2="6209.29" y2="185.74" gradientTransform="matrix(-1, 0, 0, 1, 6398.72, -131.42)" xlink:href="#ao"/><linearGradient id="cg" x1="6229.63" y1="160.3" x2="6240.04" y2="170.49" xlink:href="#cd"/><linearGradient id="ch" x1="421.92" y1="319.4" x2="429.44" y2="342.8" gradientUnits="userSpaceOnUse"><stop offset="0" stop-color="#bcbcd6"/><stop offset="0.22" stop-color="#c3c3da"/><stop offset="0.52" stop-color="#d5d5e5"/><stop offset="0.88" stop-color="#f3f3f7"/><stop offset="1" stop-color="#fff"/></linearGradient><linearGradient id="ci" x1="429.32" y1="323.41" x2="446" y2="351.36" xlink:href="#ch"/><linearGradient id="cj" x1="436.84" y1="338.94" x2="435.57" y2="320.52" gradientUnits="userSpaceOnUse"><stop offset="0.04" stop-color="#ffba78"/><stop offset="0.4" stop-color="#ffc987"/><stop offset="1" stop-color="#feeca8"/></linearGradient><linearGradient id="ck" x1="422.66" y1="299.67" x2="440.03" y2="342.65" xlink:href="#cj"/><radialGradient id="cl" cx="423.34" cy="349.24" r="13.43" gradientTransform="matrix(1, 0, 0, 1, 0, 0)" xlink:href="#aq"/><linearGradient id="cm" x1="418.23" y1="337.23" x2="419.34" y2="339.29" xlink:href="#cj"/><radialGradient id="cn" cx="429.83" cy="320.73" r="1.47" gradientTransform="matrix(1, 0, 0, 1, 0, 0)" xlink:href="#aq"/><radialGradient id="co" cx="139.13" cy="212.8" r="12.44" gradientTransform="matrix(1, 0, 0, 1, 0, 0)" xlink:href="#aq"/><radialGradient id="cp" cx="460.51" cy="312.38" r="5.61" gradientTransform="matrix(1, 0, 0, 1, 0, 0)" xlink:href="#aq"/><radialGradient id="cq" cx="156.44" cy="195.58" r="0.81" gradientTransform="matrix(1, 0, 0, 1, 0, 0)" xlink:href="#aq"/><radialGradient id="cr" cx="449.94" cy="329.35" r="20.92" gradientTransform="matrix(1, 0, 0, 1, 0, 0)" xlink:href="#aq"/><radialGradient id="cs" cx="147.38" cy="209.62" r="8.12" gradientTransform="matrix(1, 0, 0, 1, 0, 0)" xlink:href="#aq"/><radialGradient id="ct" cx="152.63" cy="206.52" r="8.2" gradientTransform="matrix(1, 0, 0, 1, 0, 0)" xlink:href="#aq"/><linearGradient id="cu" x1="148.77" y1="187.9" x2="151.31" y2="194.67" xlink:href="#cj"/><linearGradient id="cv" x1="440.19" y1="312.56" x2="417.48" y2="341.79" xlink:href="#ch"/><linearGradient id="cw" x1="426.49" y1="338.77" x2="425.22" y2="320.34" xlink:href="#cj"/><linearGradient id="cx" x1="409.82" y1="284.4" x2="429.51" y2="335.43" xlink:href="#cj"/><linearGradient id="cy" x1="413.06" y1="290.53" x2="429.57" y2="333.31" xlink:href="#cj"/><linearGradient id="cz" x1="430.22" y1="313.32" x2="453.24" y2="302.21" gradientUnits="userSpaceOnUse"><stop offset="0.23" stop-color="#fffbc9"/><stop offset="0.54" stop-color="#f9b673"/><stop offset="0.64" stop-color="#f9b876"/><stop offset="0.72" stop-color="#fabe81"/><stop offset="0.81" stop-color="#fcc993"/><stop offset="0.86" stop-color="#fed2a3"/><stop offset="0.97" stop-color="#ffc28c"/></linearGradient><linearGradient id="da" x1="110.22" y1="207.78" x2="125.78" y2="214.24" xlink:href="#cj"/><linearGradient id="db" x1="122.76" y1="205.56" x2="133.55" y2="210.04" xlink:href="#cj"/><linearGradient id="dc" x1="131.88" y1="202.52" x2="142.67" y2="207" xlink:href="#cj"/><linearGradient id="dd" x1="141.02" y1="199.47" x2="152.03" y2="204.04" xlink:href="#cj"/><linearGradient id="de" x1="160.71" y1="197.02" x2="169.88" y2="200.83" xlink:href="#cj"/><radialGradient id="df" cx="457.7" cy="309.49" r="5.64" gradientTransform="matrix(1, 0, 0, 1, 0, 0)" xlink:href="#aq"/><radialGradient id="dg" cx="444.31" cy="335.81" r="28.35" gradientTransform="matrix(1, 0, 0, 1, 0, 0)" xlink:href="#aq"/><linearGradient id="dh" x1="463.76" y1="318.77" x2="473.37" y2="288.49" gradientUnits="userSpaceOnUse"><stop offset="0" stop-color="#7e7f90"/><stop offset="0.53" stop-color="#9d9eb3"/><stop offset="1" stop-color="#d4d1d8"/></linearGradient><radialGradient id="di" cx="457.89" cy="306.43" r="12.5" gradientTransform="translate(7.43 -9.02) rotate(0.21)" gradientUnits="userSpaceOnUse"><stop offset="0" stop-color="#fff"/><stop offset="0.33" stop-color="#b7b6b6"/><stop offset="1"/></radialGradient><radialGradient id="dj" cx="464.61" cy="310.17" r="9.22" xlink:href="#di"/><radialGradient id="dk" cx="8221.43" cy="10756.33" r="9.03" gradientTransform="matrix(0.4, -0.61, -0.6, -0.3, 3676.71, 8624.59)" gradientUnits="userSpaceOnUse"><stop offset="0" stop-color="#f49587"/><stop offset="0.01" stop-color="#ee9184"/><stop offset="0.08" stop-color="#bc7368"/><stop offset="0.16" stop-color="#90584f"/><stop offset="0.24" stop-color="#69403a"/><stop offset="0.33" stop-color="#482c28"/><stop offset="0.42" stop-color="#2e1c19"/><stop offset="0.52" stop-color="#19100e"/><stop offset="0.64" stop-color="#0b0706"/><stop offset="0.77" stop-color="#030201"/><stop offset="1"/></radialGradient><radialGradient id="dl" cx="408.78" cy="332.98" r="5.47" gradientTransform="matrix(1, 0, 0, 1, 0, 0)" xlink:href="#aq"/><radialGradient id="dm" cx="423.55" cy="329.59" r="5.04" gradientTransform="matrix(1, 0, 0, 1, 0, 0)" xlink:href="#aq"/><linearGradient id="dn" x1="405.86" y1="326.79" x2="407.13" y2="330.77" xlink:href="#cj"/><linearGradient id="do" x1="422.8" y1="324.19" x2="423.89" y2="327.59" xlink:href="#cj"/><radialGradient id="dp" cx="4855.79" cy="-1376.09" r="12.01" gradientTransform="matrix(0.25, -0.28, 0.44, 0.4, -179.87, 2231.8)" gradientUnits="userSpaceOnUse"><stop offset="0" stop-color="#f49587"/><stop offset="0.12" stop-color="#bd7368"/><stop offset="0.24" stop-color="#8b554d"/><stop offset="0.36" stop-color="#603b35"/><stop offset="0.48" stop-color="#3e2622"/><stop offset="0.61" stop-color="#231513"/><stop offset="0.74" stop-color="#0f0908"/><stop offset="0.86" stop-color="#040202"/><stop offset="1"/></radialGradient><linearGradient id="dq" x1="309.17" y1="181.43" x2="351.83" y2="209.43" xlink:href="#a"/><linearGradient id="dr" x1="305.02" y1="187.74" x2="347.69" y2="215.74" xlink:href="#a"/><linearGradient id="ds" x1="309.61" y1="180.75" x2="352.28" y2="208.75" xlink:href="#a"/><linearGradient id="dt" x1="309.36" y1="181.14" x2="352.02" y2="209.14" xlink:href="#a"/><linearGradient id="du" x1="305.21" y1="187.45" x2="347.88" y2="215.45" xlink:href="#a"/><linearGradient id="dv" x1="307.03" y1="184.69" x2="349.69" y2="212.69" xlink:href="#a"/><linearGradient id="dw" x1="307.29" y1="184.29" x2="349.95" y2="212.29" xlink:href="#a"/><linearGradient id="dx" x1="308.92" y1="181.81" x2="351.58" y2="209.81" xlink:href="#a"/><linearGradient id="dy" x1="307.76" y1="183.57" x2="350.43" y2="211.57" xlink:href="#a"/><linearGradient id="dz" x1="307.53" y1="183.92" x2="350.2" y2="211.92" xlink:href="#a"/><linearGradient id="ea" x1="308.67" y1="182.18" x2="351.34" y2="210.18" xlink:href="#a"/><linearGradient id="eb" x1="302.38" y1="191.76" x2="345.05" y2="219.76" xlink:href="#a"/><linearGradient id="ec" x1="304.47" y1="188.59" x2="347.13" y2="216.59" xlink:href="#a"/><linearGradient id="ed" x1="306.58" y1="185.37" x2="349.24" y2="213.38" xlink:href="#a"/><linearGradient id="ee" x1="306.77" y1="185.08" x2="349.44" y2="213.08" xlink:href="#a"/><linearGradient id="ef" x1="304.77" y1="188.12" x2="347.44" y2="216.12" xlink:href="#a"/><linearGradient id="eg" x1="302.63" y1="191.38" x2="345.3" y2="219.38" xlink:href="#a"/><linearGradient id="eh" x1="303.34" y1="190.31" x2="346" y2="218.31" xlink:href="#a"/><linearGradient id="ei" x1="302.82" y1="191.1" x2="345.49" y2="219.1" xlink:href="#a"/><linearGradient id="ej" x1="303.08" y1="190.71" x2="345.74" y2="218.71" xlink:href="#a"/><linearGradient id="ek" x1="295.25" y1="211.68" x2="337.92" y2="239.68" xlink:href="#a"/><linearGradient id="el" x1="291.11" y1="217.99" x2="333.77" y2="245.99" xlink:href="#a"/><linearGradient id="em" x1="295.7" y1="211" x2="338.36" y2="239" xlink:href="#a"/><linearGradient id="en" x1="295.44" y1="211.39" x2="338.11" y2="239.39" xlink:href="#a"/><linearGradient id="eo" x1="291.3" y1="217.7" x2="333.96" y2="245.7" xlink:href="#a"/><linearGradient id="ep" x1="293.11" y1="214.94" x2="335.78" y2="242.94" xlink:href="#a"/><linearGradient id="eq" x1="293.37" y1="214.54" x2="336.04" y2="242.54" xlink:href="#a"/><linearGradient id="er" x1="295" y1="212.06" x2="337.67" y2="240.06" xlink:href="#a"/><linearGradient id="es" x1="293.84" y1="213.82" x2="336.51" y2="241.82" xlink:href="#a"/><linearGradient id="et" x1="293.61" y1="214.17" x2="336.28" y2="242.17" xlink:href="#a"/><linearGradient id="eu" x1="294.76" y1="212.43" x2="337.42" y2="240.43" xlink:href="#a"/><linearGradient id="ev" x1="288.47" y1="222.01" x2="331.13" y2="250.01" xlink:href="#a"/><linearGradient id="ew" x1="290.55" y1="218.84" x2="333.22" y2="246.84" xlink:href="#a"/><linearGradient id="ex" x1="292.66" y1="215.62" x2="335.33" y2="243.63" xlink:href="#a"/><linearGradient id="ey" x1="292.85" y1="215.33" x2="335.52" y2="243.33" xlink:href="#a"/><linearGradient id="ez" x1="290.86" y1="218.37" x2="333.52" y2="246.37" xlink:href="#a"/><linearGradient id="fa" x1="288.71" y1="221.63" x2="331.38" y2="249.63" xlink:href="#a"/><linearGradient id="fb" x1="289.42" y1="220.56" x2="332.09" y2="248.56" xlink:href="#a"/><linearGradient id="fc" x1="288.9" y1="221.35" x2="331.57" y2="249.35" xlink:href="#a"/><linearGradient id="fd" x1="289.16" y1="220.96" x2="331.83" y2="248.96" xlink:href="#a"/><linearGradient id="fe" x1="-182.85" y1="1120.37" x2="-99.79" y2="1264.25" gradientTransform="matrix(0.18, 0, 0, -0.18, 106.46, 357.49)" gradientUnits="userSpaceOnUse"><stop offset="0" stop-color="#fff"/><stop offset="0.01" stop-color="#fffffa"/><stop offset="0.22" stop-color="#ffff90"/><stop offset="0.38" stop-color="#ffff43"/><stop offset="0.5" stop-color="#ffff13"/><stop offset="0.56" stop-color="#ff0"/><stop offset="1" stop-color="#ff9300"/></linearGradient><linearGradient id="ff" x1="-340.71" y1="1130.48" x2="-222.58" y2="1335.09" gradientTransform="matrix(0.18, 0, 0, -0.18, 106.46, 357.49)" gradientUnits="userSpaceOnUse"><stop offset="0" stop-color="#fff"/><stop offset="0.28" stop-color="#ffff1e"/><stop offset="0.32" stop-color="#ff0"/><stop offset="1" stop-color="#ff9300"/></linearGradient><linearGradient id="fg" x1="-316.7" y1="1076.17" x2="-36.1" y2="1076.17" gradientTransform="matrix(0.18, 0, 0, -0.18, 106.46, 357.49)" gradientUnits="userSpaceOnUse"><stop offset="0" stop-color="#ff9300"/><stop offset="1" stop-color="#ff0"/></linearGradient></defs><title>final</title><g style="isolation:isolate"><g style="opacity:0.2;mix-blend-mode:color-dodge"><polygon points="323.62 195.03 325.25 194.08 323.23 192.91 321.6 193.86 323.62 195.03" style="fill:url(#a)"/><polygon points="319.54 201.38 321.17 200.44 319.14 199.27 317.51 200.21 319.54 201.38" style="fill:url(#b)"/><polygon points="332.05 199.9 337.79 203.21 339.42 202.26 333.69 198.95 332.05 199.9" style="fill:url(#c)"/><polygon points="330.7 199.12 332.34 198.17 326.6 194.86 324.97 195.81 330.7 199.12" style="fill:url(#d)"/><polygon points="328.25 204.53 322.52 201.21 320.88 202.16 326.62 205.47 328.25 204.53" style="fill:url(#e)"/><polygon points="322.21 198.57 323.84 197.63 316.76 193.53 315.13 194.48 322.21 198.57" style="fill:url(#f)"/><polygon points="329.83 201.08 325.19 198.4 323.56 199.35 328.2 202.03 329.83 201.08" style="fill:url(#g)"/><polygon points="320.25 193.08 321.88 192.14 312.77 186.88 311.14 187.82 320.25 193.08" style="fill:url(#h)"/><polygon points="342.68 208.5 338.52 206.1 336.88 207.04 341.05 209.44 342.68 208.5" style="fill:url(#i)"/><polygon points="337.17 205.32 331.18 201.86 329.55 202.8 335.54 206.26 337.17 205.32" style="fill:url(#j)"/><polygon points="311.42 186.1 309.77 185.14 308.13 186.09 309.79 187.04 311.42 186.1" style="fill:url(#k)"/><polygon points="306.26 196.19 298.45 191.68 296.82 192.62 304.63 197.13 306.26 196.19" style="fill:url(#l)"/><polygon points="307.34 192.45 302.23 189.5 300.59 190.44 305.7 193.39 307.34 192.45" style="fill:url(#m)"/><polygon points="309.68 189.44 306 187.32 304.36 188.26 308.04 190.39 309.68 189.44" style="fill:url(#n)"/><polygon points="313.78 193.7 315.41 192.75 311.02 190.22 309.39 191.17 313.78 193.7" style="fill:url(#o)"/><polygon points="316.16 199.43 317.8 198.49 308.69 193.23 307.05 194.17 316.16 199.43" style="fill:url(#p)"/><polygon points="309.27 199.81 310.9 198.86 307.61 196.96 305.98 197.91 309.27 199.81" style="fill:url(#q)"/><polygon points="331.06 210.5 326.42 207.82 324.79 208.77 329.43 211.44 331.06 210.5" style="fill:url(#r)"/><polygon points="316.64 202.17 312.25 199.64 310.62 200.59 315 203.12 316.64 202.17" style="fill:url(#s)"/><polygon points="325.07 207.04 317.99 202.95 316.35 203.9 323.44 207.99 325.07 207.04" style="fill:url(#t)"/></g><g style="opacity:0.2;mix-blend-mode:color-dodge"><polygon points="309.7 225.28 311.34 224.33 309.31 223.16 307.68 224.11 309.7 225.28" style="fill:url(#u)"/><polygon points="305.62 231.63 307.25 230.69 305.23 229.52 303.59 230.46 305.62 231.63" style="fill:url(#v)"/><polygon points="318.14 230.15 323.87 233.46 325.51 232.51 319.77 229.2 318.14 230.15" style="fill:url(#w)"/><polygon points="316.79 229.37 318.42 228.42 312.69 225.11 311.05 226.06 316.79 229.37" style="fill:url(#x)"/><polygon points="314.34 234.78 308.6 231.46 306.97 232.41 312.7 235.72 314.34 234.78" style="fill:url(#y)"/><polygon points="308.29 228.82 309.93 227.88 302.84 223.78 301.21 224.73 308.29 228.82" style="fill:url(#z)"/><polygon points="315.92 231.33 311.28 228.65 309.64 229.6 314.28 232.28 315.92 231.33" style="fill:url(#aa)"/><polygon points="306.33 223.33 307.96 222.39 298.86 217.13 297.22 218.07 306.33 223.33" style="fill:url(#ab)"/><polygon points="328.77 238.75 324.6 236.35 322.97 237.29 327.13 239.69 328.77 238.75" style="fill:url(#ac)"/><polygon points="323.25 235.57 317.26 232.11 315.63 233.05 321.62 236.51 323.25 235.57" style="fill:url(#ad)"/><polygon points="297.51 216.35 295.85 215.39 294.22 216.34 295.87 217.29 297.51 216.35" style="fill:url(#ae)"/><polygon points="292.35 226.44 284.54 221.93 282.9 222.87 290.71 227.38 292.35 226.44" style="fill:url(#af)"/><polygon points="293.42 222.7 288.31 219.75 286.67 220.69 291.79 223.64 293.42 222.7" style="fill:url(#ag)"/><polygon points="295.76 219.69 292.08 217.57 290.44 218.51 294.12 220.64 295.76 219.69" style="fill:url(#ah)"/><polygon points="299.86 223.95 301.49 223 297.11 220.47 295.47 221.42 299.86 223.95" style="fill:url(#ai)"/><polygon points="302.24 229.68 303.88 228.74 294.77 223.48 293.14 224.42 302.24 229.68" style="fill:url(#aj)"/><polygon points="295.35 230.06 296.99 229.11 293.7 227.21 292.06 228.16 295.35 230.06" style="fill:url(#ak)"/><polygon points="317.14 240.75 312.5 238.07 310.87 239.02 315.51 241.69 317.14 240.75" style="fill:url(#al)"/><polygon points="302.72 232.42 298.34 229.89 296.7 230.84 301.09 233.37 302.72 232.42" style="fill:url(#am)"/><polygon points="311.15 237.29 304.07 233.2 302.44 234.15 309.52 238.24 311.15 237.29" style="fill:url(#an)"/></g><path d="M555.92,346.43a1,1,0,0,0,.9,0l.38-.23-14.64-8.45-.39.22c-.25.14-.24.37,0,.52l.6.35-6.59,3.8-.45-.26a1,1,0,0,0-.9,0l-.61.35L548.58,351l.61-.35a.28.28,0,0,0,0-.52l-.45-.26,6.59-3.8Zm-14.56-.8-3-1.71,6.58-3.8,3,1.71Zm5.17,3-3-1.71,6.59-3.81,3,1.71Zm2.41,2.9-15.58-9a1,1,0,0,0-.9,0l-.6.35,16.47,9.51.61-.35C549.19,351.9,549.19,351.67,548.94,351.52Zm-6.73-14.29,15.9,9.19c.27.15.72,0,.6-.22l-4-7-12.17-2.29C542.21,336.82,541.94,337.08,542.21,337.23Z" transform="translate(-268.96 -131.42)" style="fill:#7c1dc9;opacity:0.2;mix-blend-mode:color-dodge"/><path d="M569.28,309.31l1-.6a.31.31,0,0,0,0-.59,1.1,1.1,0,0,0-1,0l-1,.6c-4.55-2.35-11.07-2.53-14.87-.34.75-.43,2.59-.07,4.11.8s2.14,1.94,1.38,2.38c.67-.39,2.18-.15,3.57.51l-7.22,4.17a1.71,1.71,0,0,1-1.54,0c-.43-.25-.43-.65,0-.89l.26-.15a.31.31,0,0,0,0-.59,1.1,1.1,0,0,0-1,0l-.26.14a1.1,1.1,0,0,0,0,2.08,4,4,0,0,0,3.6,0l7.22-4.17c1.15.8,1.56,1.67.89,2.06.76-.44,2.6-.08,4.12.79s2.13,1.94,1.38,2.38C573.66,315.7,573.35,311.94,569.28,309.31Z" transform="translate(-268.96 -131.42)" style="fill:#7c1dc9;opacity:0.2;mix-blend-mode:color-dodge"/><path d="M592.79,224.25c-.08-2.18-1.8-4.42-4.84-6.28l-14.22-8.71,3-1.11c6.71-2.48,7.53-7.62,1.35-11.53s-17.05-5.16-23.86-2.65l-3.42,1.26-14.22-8.71a30.21,30.21,0,0,0-11.6-3.78,29.83,29.83,0,0,0-13.61,1.1l-12.47,4.65L574.7,234.9l12.47-4.66C590.83,228.89,592.87,226.71,592.79,224.25ZM560.6,202.86c-2.89-1.77-2.74-4.13.34-5.26a14.07,14.07,0,0,1,10.81,1.15c2.9,1.77,2.75,4.13-.33,5.27A14.09,14.09,0,0,1,560.6,202.86Z" transform="translate(-268.96 -131.42)" style="fill:url(#ao)"/><path d="M399.28,373.93,274.41,301.11c-8.06-4.66-7.05-12.79,2.25-18.16L465.07,174.21c9.31-5.38,23.39-6,31.45-1.3L621.4,245.73c8.06,4.65,7.05,12.78-2.26,18.16L430.73,372.63C421.42,378,407.34,378.59,399.28,373.93Z" transform="translate(-268.96 -131.42)" style="opacity:0"/><path d="M465.3,174.6a35.77,35.77,0,0,1,16.41-4.36,30.48,30.48,0,0,1,12.21,1.93,20.53,20.53,0,0,1,2.58,1.25l124,72.31c3.07,1.77,5.37,4.49,5.6,7a7.61,7.61,0,0,1-.84,4.85,16.08,16.08,0,0,1-6.34,6L430.86,372a33.08,33.08,0,0,1-4.19,2,38.08,38.08,0,0,1-15.91,2.5,25.83,25.83,0,0,1-11.25-3L275.35,301.13c-3.16-1.82-5.5-4.65-5.65-7.19a7.65,7.65,0,0,1,.92-4.75,16.21,16.21,0,0,1,6.27-5.84Z" transform="translate(-268.96 -131.42)" style="opacity:0.018182"/><path d="M465.53,175a35.29,35.29,0,0,1,16.29-4.31,29.91,29.91,0,0,1,12.11,2,21.64,21.64,0,0,1,2.55,1.27l123.1,71.79c2.76,1.59,5.58,4.48,5.79,6.69a7,7,0,0,1-.46,4.72,15.14,15.14,0,0,1-6.23,6L431,371.43a35.65,35.65,0,0,1-4.16,2A37.35,37.35,0,0,1,411,376.1a25.45,25.45,0,0,1-11.24-3l-123.46-72c-2.84-1.64-5.72-4.64-5.86-6.93a7,7,0,0,1,.54-4.63,15.13,15.13,0,0,1,6.16-5.85Z" transform="translate(-268.96 -131.42)" style="opacity:0.036364"/><path d="M465.76,175.4a34.79,34.79,0,0,1,16.18-4.25,29,29,0,0,1,12,2,27,27,0,0,1,2.52,1.27l122.21,71.28c2.45,1.41,5.79,4.46,6,6.43a6.39,6.39,0,0,1-.07,4.59c-.87,1.94-2.85,4.06-6.12,5.95L431.12,370.83a39.9,39.9,0,0,1-4.14,2.06,36.55,36.55,0,0,1-15.78,2.76,25.21,25.21,0,0,1-11.23-2.9L277.22,301.16c-2.52-1.45-6-4.62-6.07-6.65a6.35,6.35,0,0,1,.14-4.51c.88-1.91,2.84-4,6.06-5.86Z" transform="translate(-268.96 -131.42)" style="opacity:0.054544999999999996"/><path d="M466,175.79a34.53,34.53,0,0,1,16.06-4.19,28.29,28.29,0,0,1,11.9,2.09,27.74,27.74,0,0,1,2.49,1.28l121.32,70.75c2.15,1.24,6,4.46,6.16,6.18a5.9,5.9,0,0,1,.3,4.46c-.74,1.87-2.66,4-6,5.95l-187,107.91a44.06,44.06,0,0,1-4.11,2.1,36.09,36.09,0,0,1-15.72,2.88,24.94,24.94,0,0,1-11.23-2.85l-122-71.17c-2.21-1.27-6.18-4.61-6.29-6.39a5.92,5.92,0,0,1-.24-4.39c.75-1.84,2.65-4,5.95-5.87Z" transform="translate(-268.96 -131.42)" style="opacity:0.072727"/><path d="M466.21,176.19a33.87,33.87,0,0,1,16-4.13A27.37,27.37,0,0,1,494,174.2c.5.2,2,1,2.46,1.29l120.43,70.23c1.84,1.06,6.21,4.44,6.35,5.92a5.52,5.52,0,0,1,.68,4.32c-.63,1.8-2.47,4-5.88,6L431.38,369.62c-.72.42-3.28,1.81-4.09,2.12a35.31,35.31,0,0,1-15.66,3A24.55,24.55,0,0,1,400.42,372L279.1,301.2c-1.9-1.09-6.41-4.6-6.5-6.13a5.47,5.47,0,0,1-.63-4.27c.63-1.77,2.46-3.92,5.84-5.87Z" transform="translate(-268.96 -131.42)" style="opacity:0.09090899999999999"/><path d="M466.44,176.58a33.62,33.62,0,0,1,15.85-4.07,26.64,26.64,0,0,1,11.68,2.2c.42.17,2.06,1.08,2.43,1.29l119.54,69.72c1.54.89,6.42,4.43,6.54,5.66.67,1.09,1.54,2.58,1.06,4.19s-2.29,3.94-5.77,5.94L431.5,369c-.6.35-3.38,1.89-4.05,2.14a34.6,34.6,0,0,1-15.6,3.14,24.22,24.22,0,0,1-11.2-2.74L280,301.22c-1.58-.91-6.64-4.59-6.72-5.86-.65-1.09-1.5-2.56-1-4.15s2.28-3.89,5.73-5.89Z" transform="translate(-268.96 -131.42)" style="opacity:0.109091"/><path d="M466.67,177a33.16,33.16,0,0,1,15.73-4A25.83,25.83,0,0,1,494,175.22c.33.13,2.1,1.13,2.39,1.3L615,245.72c1.23.71,6.63,4.41,6.73,5.4.76,1,1.83,2.45,1.43,4.06s-2.1,3.89-5.65,5.94L431.63,368.42c-.48.28-3.49,2-4,2.17a34.06,34.06,0,0,1-15.53,3.26,23.91,23.91,0,0,1-11.19-2.69L281,301.24c-1.27-.73-6.88-4.59-6.94-5.6-.74-1-1.8-2.44-1.4-4s2.1-3.85,5.62-5.89Z" transform="translate(-268.96 -131.42)" style="opacity:0.127273"/><path d="M466.9,177.37a32.79,32.79,0,0,1,15.62-4A25,25,0,0,1,494,175.73c.26.1,2.15,1.18,2.37,1.31l117.77,68.68c.92.53,6.84,4.4,6.91,5.13.85.92,2.12,2.33,1.82,3.94s-1.92,3.84-5.54,5.93L431.76,367.82c-.36.2-3.6,2-4,2.19a33.48,33.48,0,0,1-15.47,3.39,23.6,23.6,0,0,1-11.18-2.63l-119.2-69.51c-.94-.55-7.1-4.58-7.14-5.34-.84-.91-2.1-2.31-1.79-3.91s1.91-3.82,5.51-5.9Z" transform="translate(-268.96 -131.42)" style="opacity:0.145455"/><path d="M467.13,177.77a32.2,32.2,0,0,1,15.5-3.89A24.24,24.24,0,0,1,494,176.24c.17.06,2.19,1.23,2.34,1.31l116.88,68.17c.62.35,7.06,4.38,7.1,4.87.94.83,2.4,2.2,2.19,3.81s-1.73,3.8-5.42,5.93L431.89,367.22c-.24.13-3.71,2.11-4,2.21a32.72,32.72,0,0,1-15.4,3.52,23.31,23.31,0,0,1-11.17-2.58L282.85,301.28c-.63-.37-7.33-4.57-7.36-5.08-.93-.81-2.38-2.18-2.18-3.78s1.73-3.79,5.41-5.91Z" transform="translate(-268.96 -131.42)" style="opacity:0.163636"/><path d="M467.36,178.16a32,32,0,0,1,15.39-3.83A23.55,23.55,0,0,1,494,176.75c.09,0,2.24,1.28,2.31,1.32l116,67.64c.31.18,7.27,4.38,7.29,4.62,1,.74,2.68,2.07,2.57,3.68-.09,1.42-1.55,3.75-5.3,5.92L432,366.61c-.12.07-3.82,2.19-3.95,2.25a32.17,32.17,0,0,1-15.35,3.64A23.08,23.08,0,0,1,401.56,370L283.79,301.29c-.31-.18-7.56-4.55-7.58-4.8-1-.73-2.67-2.07-2.56-3.67.1-1.42,1.54-3.75,5.3-5.91Z" transform="translate(-268.96 -131.42)" style="opacity:0.18181799999999998"/><path d="M412.94,372.05a22.92,22.92,0,0,1-11.15-2.47L276.94,296.77c-1.12-.64-2.95-1.94-2.95-3.55,0-1.35,1.36-3.71,5.19-5.92l188.4-108.74a31.47,31.47,0,0,1,15.29-3.77A22.79,22.79,0,0,1,494,177.26l124.86,72.81c1.11.64,3,1.94,3,3.55,0,1.35-1.36,3.71-5.19,5.92L428.22,368.28A31.4,31.4,0,0,1,412.94,372.05Z" transform="translate(-268.96 -131.42)" style="opacity:0.2"/><path d="M400.43,367.48l-121.64-71C271,292,272,284.15,281,278.94L464,173.33c9-5.21,22.65-5.77,30.45-1.26l121.65,71c7.8,4.51,6.83,12.38-2.19,17.58l-183,105.62C421.87,371.43,408.24,372,400.43,367.48Z" transform="translate(-268.96 -131.42)" style="fill:#6b24d6"/><path d="M400.43,365,278.79,294C271,289.52,272,281.65,281,276.44L464,170.83c9-5.21,22.65-5.77,30.45-1.27l121.65,71c7.8,4.51,6.83,12.38-2.19,17.58l-183,105.62C421.87,368.92,408.24,369.49,400.43,365Z" transform="translate(-268.96 -131.42)" style="fill:url(#ap)"/><path d="M613.88,256.74l-183,105.62c-9,5.2-22.65,5.77-30.46,1.26l-121.64-71c-3.28-1.89-5-4.37-5.22-7-.32,3.12,1.38,6.15,5.22,8.36l121.64,71c7.81,4.51,21.44,3.94,30.46-1.26l183-105.62c5.23-3,7.74-6.94,7.41-10.58C621,250.76,618.47,254.09,613.88,256.74Z" transform="translate(-268.96 -131.42)" style="mix-blend-mode:color-dodge;fill:url(#aq)"/><polygon points="156.23 227.77 24.4 151.65 214.09 39.64 345.92 115.75 156.23 227.77" style="opacity:0.2"/><polygon points="156.23 224.77 24.4 148.65 214.09 39.14 345.92 115.25 156.23 224.77" style="fill:url(#ar)"/><path d="M592.1,222.79c-.22-2.47-2-4.81-5.06-6.57L572.83,208l2.83-1.63c6.26-3.61,6.7-9.56.51-13.27s-16.68-3.83-23-.16l-3.2,1.84-14.21-8.2a24.72,24.72,0,0,0-11.37-2.92,25.09,25.09,0,0,0-13,2.88L499.76,192l75.72,43.72,11.64-5.49C590.53,228.3,592.34,225.58,592.1,222.79Zm-32.27-20.48c-2.9-1.67-2.91-4.37,0-6a11.56,11.56,0,0,1,10.45,0c2.89,1.67,2.9,4.37,0,6A11.53,11.53,0,0,1,559.83,202.31Z" transform="translate(-268.96 -131.42)" style="opacity:0.2"/><path d="M591.27,220.29c-.22-2.47-2-4.81-5.06-6.57L572,205.52l2.82-1.63c6.26-3.61,6.71-9.56.52-13.27s-16.68-3.83-23-.16l-3.2,1.84-14.21-8.2a24.76,24.76,0,0,0-11.37-2.92,25.07,25.07,0,0,0-13,2.88l-11.64,6.78,75.72,43.72,11.64-6.79C589.7,225.8,591.51,223.08,591.27,220.29ZM559,199.81c-2.89-1.67-2.9-4.37,0-6a11.53,11.53,0,0,1,10.44,0c2.9,1.67,2.91,4.37,0,6A11.56,11.56,0,0,1,559,199.81Z" transform="translate(-268.96 -131.42)" style="fill:url(#as)"/><g style="mix-blend-mode:color-dodge"><path d="M569.4,192.64a11.53,11.53,0,0,0-10.44,0c-1.69,1-2.37,2.31-2.07,3.58a4,4,0,0,1,2.07-2.41,11.53,11.53,0,0,1,10.44,0,4.05,4.05,0,0,1,2.1,2.45C571.81,195,571.11,193.63,569.4,192.64Z" transform="translate(-268.96 -131.42)" style="fill:url(#at)"/><path d="M574.82,202.73,572,204.35l1,.59,1.81-1.05c3.53-2,5.21-4.82,4.9-7.52C579.5,198.69,577.85,201,574.82,202.73Z" transform="translate(-268.96 -131.42)" style="fill:url(#au)"/><path d="M586.29,226.61l-11.64,6.78-74.71-43.13-1,.58,75.72,43.72,11.64-6.79c3.41-2,5.22-4.69,5-7.48l0-.08C591,222.61,589.25,224.89,586.29,226.61Z" transform="translate(-268.96 -131.42)" style="fill:url(#av)"/></g><path d="M513.91,226.87l3.6-2.08-7.25-4.19-3.61,2.08Zm30.25,4.38-40.69-23.49-3.61,2.08,40.7,23.49Zm-69.78-27.2,29.16,16.83,3.61-2.08L478,202Zm98.16,43.59-25.27-14.59-3.6,2.08,25.27,14.59Zm-19.65-2.43-32.27-18.63-3.6,2.09,32.27,18.63Zm19.16,6.3,7.56,4.37,3.6-2.08-7.56-4.37Zm-97.17-51.34L462,192.71l-3.6,2.09,12.91,7.45ZM500.36,206l-30.67-17.71-3.61,2.09L496.75,208Z" transform="translate(-268.96 -131.42)" style="fill:#9d9eb3"/><path d="M453.92,283.7l2.3-1.33-4.63-2.68L449.28,281Zm19.33,2.79-26-15-2.3,1.33,26,15Zm-9-8.21,2.3-1.33-8.28-4.78L456,273.5Zm14.2-.15-18.62-10.75-2.31,1.33,18.63,10.75Zm-49.82-9,18.63,10.75,2.3-1.33L431,267.79Zm6.73-7.52L454,272.36l2.31-1.33L437.7,260.27Zm56,35.36-16.15-9.32-2.3,1.33,16.14,9.32Zm9.26-11.75-26-15-2.3,1.33,26,15Zm-28-16.15L454,258.3l-2.3,1.33,18.62,10.76Zm7.82,10.22-2.31,1.33,4.64,2.68,2.3-1.33Zm-1.66,16.13-20.61-11.9-2.3,1.33,20.61,11.9Zm-12.54-16L482,288.51l2.31-1.33-15.73-9.08ZM484,289.66l16.83,9.72,2.31-1.33-16.84-9.72Zm7.07,9.78,4.83,2.79,2.3-1.33-4.83-2.79ZM429,266.64l-8.25-4.76-2.31,1.33,8.25,4.76Zm73.63,19.72-2.3,1.33,10.38,6,2.3-1.33Zm5.09,8.64L487.1,283.1l-2.3,1.33,20.61,11.9ZM452,257.15l-11.56-6.67-2.3,1.33,11.56,6.67Zm-6.78,13.19L425.67,259l-2.3,1.33L443,271.67Zm-9.55-11.21-5.1-2.95-2.3,1.33,5.1,2.95Zm20.67,6.23-20.84-12-2.3,1.33,20.84,12Z" transform="translate(-268.96 -131.42)" style="fill:#9d9eb3"/><path d="M430.85,297.44l2.3-1.33L415.75,286l-2.31,1.33Zm12.7-1L415.8,280.29l-2.31,1.33,27.76,16.13Zm-68.2-31,36.11,20.76,2.3-1.33-36.11-20.76Zm91.84,39-26-15-2.3,1.33,26,15Zm-28-16.16-27.75-16.12-2.3,1.33,27.75,16.12Zm6.33,9.35-2.31,1.33,4.64,2.68,2.3-1.33Zm23.64,8-2.3,1.33,10.37,6,2.31-1.33Zm3.59,7.77-20.61-11.9-2.3,1.33,20.61,11.9Zm-63.29-42.35-40.3-23.31-2.3,1.33,40.29,23.31Zm-33.82-8-16.35-9.58-2.3,1.33,16.35,9.58Zm38.15,16.23-49.57-28.66-2.3,1.33,49.57,28.66Z" transform="translate(-268.96 -131.42)" style="fill:#9d9eb3"/><path d="M367.1,290.69l2.3-1.33-8.28-4.78-2.3,1.33Zm12.7-1-18.63-10.76-2.3,1.33L377.5,291ZM338.2,274l18.63,10.76,2.3-1.33-18.62-10.76Zm43.59,16.8-2.31,1.33,4.64,2.68,2.3-1.33Zm-41-1.54L321.24,278l-2.3,1.33,19.59,11.31Zm-2.31-17.74-5.1-2.94-2.31,1.33,5.11,2.94Zm20.67,6.24-20.84-12-2.3,1.33,20.83,12Z" transform="translate(-268.96 -131.42)" style="fill:#9d9eb3"/><path d="M487.42,264.45l2.3-1.33-4.63-2.68-2.31,1.33Zm19.33,2.79-26-15-2.3,1.33,26,15Zm-9-8.21,2.3-1.33-8.28-4.78-2.3,1.33Zm14.2-.27L493.37,248l-2.31,1.33,18.63,10.76Zm-49.82-8.89,18.63,10.75,2.3-1.33-18.63-10.75Zm6.73-7.52,18.62,10.76,2.31-1.33L471.2,241Zm56,35.36-16.15-9.32-2.3,1.33L522.57,279ZM534.14,266l-26-15-2.3,1.33,26,15Zm-28-16.15-18.63-10.76-2.3,1.33,18.62,10.76Zm7.82,10.1-2.31,1.33,4.64,2.67,2.3-1.33Zm-1.66,16.25-20.61-11.9-2.3,1.33L510,277.49Zm-12.54-16,15.72,9.08,2.31-1.33-15.73-9.08Zm17.71,10.23,16.83,9.72,2.31-1.33-16.84-9.72Zm7.07,9.78,4.83,2.79,2.3-1.33-4.83-2.79ZM526,255l-26-15-2.3,1.33,26,15Zm-9-8.21,2.3-1.33-8.28-4.78-2.3,1.33Zm27.09,18.68L528,256.14l-2.3,1.33,16.14,9.32ZM519,247.93,534.75,257l2.31-1.33-15.73-9.08Zm17.71,10.23,16.83,9.72,2.31-1.33L539,256.83Zm7.07,9.78,4.83,2.79,2.3-1.33-4.83-2.79Zm-81.32-20.55-8.25-4.76L451.93,244l8.25,4.76Zm73.63,19.72-2.3,1.33,9.51,5.55,2.3-1.33Zm5.09,8.52-20.61-11.9-2.3,1.33L538.91,277ZM485.54,237.9,474,231.23l-2.3,1.33,11.56,6.67Zm-6.78,13.19-19.59-11.31-2.3,1.33,19.59,11.31Zm-9.55-11.21-5.1-2.95-2.3,1.33,5.1,3Zm20.67,6.23-20.84-12-2.3,1.33,20.84,12Z" transform="translate(-268.96 -131.42)" style="fill:#9d9eb3"/><path d="M427.42,308.73a.48.48,0,0,0-.55-.38l-3.67.65.38-.66c-5.37-3.18-13.25-4.35-20.55-3.07-7,1.24-12.41,4.64-14,8.87l.88.33c1.45-3.92,6.54-7.09,13.26-8.27,7-1.24,14.55-.14,19.73,2.85l-36.58,6.44a.47.47,0,0,0,.08.93h.09L427,309.28A.48.48,0,0,0,427.42,308.73Zm4.68,8.43-14.54,2.56a.47.47,0,0,0,.08.93h.08l10.57-1.87c-1.29,4.07-6.4,7.36-13.37,8.59s-14.4.15-19.58-2.77l18.08-3.1a.47.47,0,0,0-.16-.93l-21.68,3.72a.48.48,0,0,0-.39.54.47.47,0,0,0,.46.39h.08l3.43-.59-.41.71a29.57,29.57,0,0,0,14.42,3.46,34.34,34.34,0,0,0,5.91-.51c7.37-1.3,12.78-4.87,14.13-9.32l-.74-.22,3.79-.67a.48.48,0,0,0,.39-.54A.47.47,0,0,0,432.1,317.16Zm3.4-5.19c-3.67-6.82-14.36-11.4-26.61-11.4a46.35,46.35,0,0,0-8,.69c-9,1.59-15.94,5.7-18.5,11a9.89,9.89,0,0,0,.24,9.33c3.67,6.82,14.37,11.4,26.61,11.4a46.35,46.35,0,0,0,8-.69c9-1.59,15.94-5.7,18.51-11A9.89,9.89,0,0,0,435.5,312Zm-.6,8.92c-2.44,5-9.1,8.95-17.82,10.49a45.57,45.57,0,0,1-7.86.68c-11.72,0-22.32-4.49-25.78-10.92a9,9,0,0,1-.23-8.47c2.44-5,9.1-8.95,17.82-10.48a44.6,44.6,0,0,1,7.86-.68c11.73,0,22.33,4.48,25.78,10.91A9,9,0,0,1,434.9,320.89Zm-26-18.78a42.41,42.41,0,0,0-7.33.63c-8.2,1.45-14.5,5.18-16.82,10a8.87,8.87,0,0,0,.22,8.38c3.33,6.19,13.07,10.35,24.22,10.35a42.41,42.41,0,0,0,7.33-.63c8.21-1.44,14.5-5.18,16.83-10a8.87,8.87,0,0,0-.23-8.37C429.8,306.27,420.06,302.11,408.91,302.11Zm24,18.53c-2.26,4.66-8.42,8.3-16.48,9.72a42.48,42.48,0,0,1-7.25.62c-10.81,0-20.61-4.15-23.81-10.11a8.43,8.43,0,0,1-.21-7.95c2.26-4.66,8.42-8.3,16.49-9.72a42.28,42.28,0,0,1,7.24-.62c10.82,0,20.61,4.16,23.81,10.11A8.43,8.43,0,0,1,432.93,320.64Zm-17.39-5.92a.34.34,0,0,0-.34-.19l-4.75.42a.34.34,0,0,0-.32.38.36.36,0,0,0,.38.32l3.83-.34-1.66,1.76a.35.35,0,0,0,0,.47l1.59,1.8-3.83-.42a.38.38,0,0,0-.21,0l-3,1.72-.52-2.29a.35.35,0,0,0-.24-.26l-3.1-.92,3.14-.86a.37.37,0,0,0,.25-.25l.75-2.73a.36.36,0,0,0-.25-.44.35.35,0,0,0-.43.25l-.7,2.54L402,316.85a.35.35,0,0,0-.26.34.35.35,0,0,0,.25.34l4.09,1.22.58,2.55a.34.34,0,0,0,.21.24.32.32,0,0,0,.14,0,.26.26,0,0,0,.17-.05l3.3-1.89,4.61.51a.36.36,0,0,0,.31-.58l-2-2.24,2.07-2.2A.35.35,0,0,0,415.54,314.72Zm9.51-3.68a.33.33,0,0,0-.2-.24.36.36,0,0,0-.32,0L422,312.25l-3.49-.39a.36.36,0,0,0-.35.19.35.35,0,0,0,.05.4l1.45,1.65-1.53,1.62a.35.35,0,0,0,.52.48l1.74-1.85a.35.35,0,0,0,0-.48l-1.07-1.21,2.71.3a.38.38,0,0,0,.21,0l2.18-1.26.38,1.64a.37.37,0,0,0,.24.26l2.09.62-2.12.58a.34.34,0,0,0-.25.24l-.45,1.64-2.12-1.3a.36.36,0,0,0-.49.12.35.35,0,0,0,.12.48l2.53,1.55a.37.37,0,0,0,.18.05.31.31,0,0,0,.13,0,.35.35,0,0,0,.21-.23l.52-1.9,3.11-.85a.35.35,0,0,0,0-.67l-3.07-.92Zm-30.61,9.5a.34.34,0,0,0-.38-.32l-2.7.23,1.11-1.18a.34.34,0,0,0,0-.47l-1.07-1.21,2.71.29a.31.31,0,0,0,.21,0l2.18-1.25.38,1.64a.34.34,0,0,0,.24.25l2.09.62-2.12.58a.35.35,0,0,0-.25.25l-.57,2.09a.36.36,0,0,0,.24.43h.1a.36.36,0,0,0,.34-.26l.52-1.89,3.11-.85a.35.35,0,0,0,.26-.34.36.36,0,0,0-.25-.34l-3.07-.91-.44-1.9a.35.35,0,0,0-.52-.23l-2.49,1.43-3.49-.38a.34.34,0,0,0-.35.19.35.35,0,0,0,0,.39l1.46,1.65-1.53,1.62a.36.36,0,0,0,.29.6l3.62-.32A.36.36,0,0,0,394.44,320.54Z" transform="translate(-268.96 -131.42)" style="fill:#364f87;opacity:0.8;mix-blend-mode:multiply"/><polygon points="308.53 94.67 242.15 56.35 244.99 54.73 311.37 93.05 308.53 94.67" style="mix-blend-mode:color-dodge;fill:url(#aw)"/><polygon points="307.86 95.51 241.48 57.18 244.32 55.56 310.71 93.89 307.86 95.51" style="fill:url(#ax)"/><g style="mix-blend-mode:multiply"><polygon points="88.79 117.45 176.79 168.78 325.79 102.12 209.79 33.45 88.79 117.45" style="fill:#dbd3f4;opacity:0"/><polygon points="89.15 117.44 176.93 168.64 324.77 102.31 209.27 33.95 89.15 117.44" style="fill:#dbd3f4;opacity:0.013725490681826737"/><polygon points="89.51 117.43 177.07 168.5 323.75 102.51 208.75 34.46 89.51 117.43" style="fill:#dbd3f4;opacity:0.027450980858078695"/><polygon points="89.87 117.43 177.2 168.35 322.72 102.71 208.22 34.96 89.87 117.43" style="fill:#dbd3f4;opacity:0.04117647103433065"/><polygon points="90.23 117.42 177.34 168.21 321.7 102.91 207.7 35.46 90.23 117.42" style="fill:#dbd3f4;opacity:0.054901961210582606"/><polygon points="90.58 117.41 177.48 168.06 320.68 103.1 207.18 35.97 90.58 117.41" style="fill:#dbd3f4;opacity:0.06862745138683456"/><polygon points="90.94 117.4 177.62 167.92 319.65 103.3 206.65 36.47 90.94 117.4" style="fill:#dbd3f4;opacity:0.08235294156308652"/><polygon points="91.3 117.4 177.75 167.78 318.63 103.5 206.13 36.97 91.3 117.4" style="fill:#dbd3f4;opacity:0.09607843173933847"/><polygon points="91.66 117.39 177.89 167.63 317.61 103.69 205.61 37.48 91.66 117.39" style="fill:#dbd3f4;opacity:0.10980392191559044"/><polygon points="92.02 117.38 178.03 167.49 316.58 103.89 205.09 37.98 92.02 117.38" style="fill:#dbd3f4;opacity:0.1235294120918424"/><polygon points="92.38 117.37 178.16 167.34 315.56 104.09 204.56 38.48 92.38 117.37" style="fill:#dbd3f4;opacity:0.13725490226809436"/><polygon points="92.74 117.37 178.3 167.2 314.54 104.28 204.04 38.98 92.74 117.37" style="fill:#dbd3f4;opacity:0.15098039244434633"/><polygon points="93.09 117.36 178.44 167.06 313.52 104.48 203.52 39.49 93.09 117.36" style="fill:#dbd3f4;opacity:0.1647058826205983"/><polygon points="93.45 117.35 178.57 166.91 312.49 104.68 202.99 39.99 93.45 117.35" style="fill:#dbd3f4;opacity:0.17843137279685026"/><polygon points="93.81 117.34 178.71 166.77 311.47 104.88 202.47 40.49 93.81 117.34" style="fill:#dbd3f4;opacity:0.19215686297310222"/><polygon points="94.17 117.34 178.85 166.63 310.45 105.07 201.95 41 94.17 117.34" style="fill:#dbd3f4;opacity:0.2058823531493542"/><polygon points="94.53 117.33 178.99 166.48 309.43 105.27 201.43 41.5 94.53 117.33" style="fill:#dbd3f4;opacity:0.21960784332560618"/><polygon points="94.89 117.32 179.12 166.34 308.4 105.47 200.9 42.01 94.89 117.32" style="fill:#dbd3f4;opacity:0.23333333350185814"/><polygon points="95.25 117.31 179.26 166.19 307.38 105.67 200.38 42.51 95.25 117.31" style="fill:#dbd3f4;opacity:0.2470588236781101"/><polygon points="95.61 117.31 179.4 166.05 306.36 105.86 199.86 43.01 95.61 117.31" style="fill:#dbd3f4;opacity:0.26078431385436207"/><polygon points="95.96 117.3 179.54 165.91 305.33 106.06 199.33 43.52 95.96 117.3" style="fill:#dbd3f4;opacity:0.27450980403061404"/><polygon points="96.32 117.29 179.67 165.76 304.31 106.26 198.81 44.02 96.32 117.29" style="fill:#dbd3f4;opacity:0.288235294206866"/><polygon points="96.68 117.28 179.81 165.62 303.29 106.45 198.29 44.52 96.68 117.28" style="fill:#dbd3f4;opacity:0.30196078438311796"/><polygon points="97.04 117.28 179.95 165.48 302.26 106.65 197.76 45.02 97.04 117.28" style="fill:#dbd3f4;opacity:0.31568627455936993"/><polygon points="97.4 117.27 180.09 165.33 301.24 106.85 197.24 45.53 97.4 117.27" style="fill:#dbd3f4;opacity:0.3294117647356219"/><polygon points="97.76 117.26 180.22 165.19 300.22 107.05 196.72 46.03 97.76 117.26" style="fill:#dbd3f4;opacity:0.34313725491187386"/><polygon points="98.12 117.25 180.36 165.04 299.19 107.24 196.2 46.53 98.12 117.25" style="fill:#dbd3f4;opacity:0.3568627450881258"/><polygon points="98.47 117.25 180.5 164.9 298.17 107.44 195.67 47.04 98.47 117.25" style="fill:#dbd3f4;opacity:0.3705882352643778"/><polygon points="98.83 117.24 180.63 164.76 297.15 107.64 195.15 47.54 98.83 117.24" style="fill:#dbd3f4;opacity:0.38431372544062975"/><polygon points="99.19 117.23 180.77 164.61 296.13 107.83 194.63 48.04 99.19 117.23" style="fill:#dbd3f4;opacity:0.3980392156168817"/><polygon points="99.55 117.22 180.91 164.47 295.1 108.03 194.1 48.55 99.55 117.22" style="fill:#dbd3f4;opacity:0.4117647057931337"/><polygon points="99.91 117.21 181.05 164.32 294.08 108.23 193.58 49.05 99.91 117.21" style="fill:#dbd3f4;opacity:0.42549019596938564"/><polygon points="100.27 117.21 181.18 164.18 293.06 108.43 193.06 49.55 100.27 117.21" style="fill:#dbd3f4;opacity:0.4392156861456376"/><polygon points="100.63 117.2 181.32 164.04 292.04 108.62 192.54 50.06 100.63 117.2" style="fill:#dbd3f4;opacity:0.45294117632188957"/><polygon points="100.98 117.19 181.46 163.89 291.01 108.82 192.01 50.56 100.98 117.19" style="fill:#dbd3f4;opacity:0.46666666649814154"/><polygon points="101.34 117.18 181.59 163.75 289.99 109.02 191.49 51.06 101.34 117.18" style="fill:#dbd3f4;opacity:0.4803921566743935"/><polygon points="101.7 117.18 181.73 163.61 288.97 109.22 190.97 51.57 101.7 117.18" style="fill:#dbd3f4;opacity:0.49411764685064546"/><polygon points="102.06 117.17 181.87 163.46 287.94 109.41 190.44 52.07 102.06 117.17" style="fill:#dbd3f4;opacity:0.5078431370268974"/><polygon points="102.42 117.16 182.01 163.32 286.92 109.61 189.92 52.57 102.42 117.16" style="fill:#dbd3f4;opacity:0.5215686272031494"/><polygon points="102.78 117.15 182.14 163.18 285.9 109.81 189.4 53.08 102.78 117.15" style="fill:#dbd3f4;opacity:0.5352941173794014"/><polygon points="103.14 117.15 182.28 163.03 284.88 110 188.88 53.58 103.14 117.15" style="fill:#dbd3f4;opacity:0.5490196075556534"/><polygon points="103.5 117.14 182.42 162.89 283.85 110.2 188.35 54.08 103.5 117.14" style="fill:#dbd3f4;opacity:0.5627450977319053"/><polygon points="103.85 117.13 182.56 162.74 282.83 110.4 187.83 54.59 103.85 117.13" style="fill:#dbd3f4;opacity:0.5764705879081573"/><polygon points="104.21 117.12 182.69 162.6 281.81 110.6 187.31 55.09 104.21 117.12" style="fill:#dbd3f4;opacity:0.5901960780844092"/><polygon points="104.57 117.11 182.83 162.46 280.78 110.79 186.78 55.59 104.57 117.11" style="fill:#dbd3f4;opacity:0.6039215682606612"/><polygon points="104.93 117.11 182.97 162.31 279.76 110.99 186.26 56.1 104.93 117.11" style="fill:#dbd3f4;opacity:0.6176470584369131"/><polygon points="105.29 117.1 183.1 162.17 278.74 111.19 185.74 56.6 105.29 117.1" style="fill:#dbd3f4;opacity:0.6313725486131652"/><polygon points="105.65 117.09 183.24 162.03 277.71 111.39 185.22 57.1 105.65 117.09" style="fill:#dbd3f4;opacity:0.6450980387894171"/><polygon points="106 117.08 183.38 161.88 276.69 111.58 184.69 57.61 106 117.08" style="fill:#dbd3f4;opacity:0.6588235289656691"/><polygon points="106.36 117.08 183.52 161.74 275.67 111.78 184.17 58.11 106.36 117.08" style="fill:#dbd3f4;opacity:0.672549019141921"/><polygon points="106.72 117.07 183.65 161.59 274.65 111.98 183.65 58.61 106.72 117.07" style="fill:#dbd3f4;opacity:0.686274509318173"/><polygon points="107.08 117.06 183.79 161.45 273.62 112.17 183.12 59.12 107.08 117.06" style="fill:#dbd3f4;opacity:0.7000000000000001"/></g><polygon points="143.25 19.76 221.38 65.21 266.3 71.63 188.12 27.07 143.25 19.76" style="fill:url(#ay)"/><polygon points="221.35 65.21 221.35 141.89 229.42 137.33 229.44 135.64 258.15 118.65 259.89 119.3 266.3 115.5 266.3 71.63 221.35 65.21" style="fill:url(#az)"/><polygon points="221.38 65.21 221.38 141.89 143.25 96.41 143.25 19.76 221.38 65.21" style="fill:url(#ba)"/><polygon points="227.59 97.99 261.77 77.45 261.77 118.18 259.89 119.3 258.15 118.65 229.44 135.64 229.42 137.33 227.59 138.42 227.59 97.99" style="fill:#d1b4e3"/><polygon points="258.15 118.65 258.15 81.79 229.44 99.04 229.44 135.64 258.15 118.65" style="fill:url(#bb)"/><polygon points="258.15 84.6 258.15 81.79 229.44 99.04 229.44 101.59 258.15 84.6" style="fill:#e6e7e8;mix-blend-mode:multiply"/><polygon points="258.15 85.14 258.15 83.64 229.44 100.89 229.44 102.13 258.15 85.14" style="fill:#e6e7e8;mix-blend-mode:multiply"/><polygon points="258.15 88.04 258.15 86.55 229.44 103.8 229.44 105.04 258.15 88.04" style="fill:#e6e7e8;mix-blend-mode:multiply"/><polygon points="258.15 90.95 258.15 89.46 229.44 106.7 229.44 107.94 258.15 90.95" style="fill:#e6e7e8;mix-blend-mode:multiply"/><polygon points="258.15 93.86 258.15 92.36 229.44 109.61 229.44 110.85 258.15 93.86" style="fill:#e6e7e8;mix-blend-mode:multiply"/><polygon points="258.15 96.76 258.15 95.27 229.44 112.52 229.44 113.75 258.15 96.76" style="fill:#e6e7e8;mix-blend-mode:multiply"/><polygon points="258.15 99.67 258.15 98.17 229.44 115.42 229.44 116.66 258.15 99.67" style="fill:#e6e7e8;mix-blend-mode:multiply"/><polygon points="258.15 102.57 258.15 101.08 229.44 118.33 229.44 119.57 258.15 102.57" style="fill:#e6e7e8;mix-blend-mode:multiply"/><polygon points="258.15 105.48 258.15 103.99 229.44 121.23 229.44 122.47 258.15 105.48" style="fill:#e6e7e8;mix-blend-mode:multiply"/><polygon points="258.15 108.38 258.15 106.89 229.44 124.14 229.44 125.38 258.15 108.38" style="fill:#e6e7e8;mix-blend-mode:multiply"/><polygon points="258.15 111.29 258.15 109.8 229.44 127.04 229.44 128.28 258.15 111.29" style="fill:#e6e7e8;mix-blend-mode:multiply"/><polygon points="258.15 114.2 258.15 112.7 229.44 129.95 229.44 131.19 258.15 114.2" style="fill:#e6e7e8;mix-blend-mode:multiply"/><polygon points="258.15 117.1 258.15 115.61 229.44 132.85 229.44 134.09 258.15 117.1" style="fill:#e6e7e8;mix-blend-mode:multiply"/><polygon points="178.3 110.65 178.3 159.48 98.36 113.85 98.36 64.75 178.3 110.65" style="fill:url(#bc)"/><polygon points="178.3 111.12 211.62 49.53 131.68 3.9 98.36 65.21 178.3 111.12" style="fill:url(#bd)"/><polygon points="103.95 116.83 103.95 74.05 121.02 84.05 121.02 126.76 103.95 116.83" style="fill:#f1e8f6"/><polygon points="119.17 85.12 119.17 123.54 105.8 115.76 105.8 77.28 119.17 85.12" style="fill:#d1b4e3"/><polygon points="178.3 159.48 178.3 111.12 210.79 49.53 215.63 46.15 215.63 138.59 178.3 159.48" style="fill:url(#be)"/><polygon points="174.46 53.2 145.61 70.39 145.61 147.63 151.23 144.33 151.23 95.46 174.46 53.2" style="fill:url(#bf)"/><polygon points="107.5 114.92 119.17 121.7 119.17 85.12 107.5 78.28 107.5 114.92" style="fill:url(#bg)"/><polygon points="107.5 114.92 119.17 85.12 107.5 78.28 107.5 114.92" style="opacity:0.5;fill:url(#bh)"/><path d="M376.47,209.7v36.64l11.66,6.78V216.54Zm10.74,41.81-9.82-5.71V211.32l9.82,5.75Z" transform="translate(-268.96 -131.42)" style="opacity:0.5;fill:url(#bi)"/><polygon points="145.61 70.39 145.61 147.63 118.74 132 118.74 54.64 145.61 70.39" style="fill:url(#bj)"/><polygon points="123.64 134.66 123.64 91.88 140.71 101.89 140.71 144.6 123.64 134.66" style="fill:#f1e8f6"/><polygon points="138.86 102.95 138.86 141.37 125.49 133.6 125.49 95.12 138.86 102.95" style="fill:#d1b4e3"/><polygon points="155.95 146.4 155.95 103.62 173.02 113.62 173.02 156.33 155.95 146.4" style="fill:#f1e8f6"/><polygon points="171.17 114.69 171.17 153.11 157.8 145.33 157.8 106.85 171.17 114.69" style="fill:#d1b4e3"/><polygon points="123.64 86.26 123.64 63.16 140.71 73.17 140.71 96.19 123.64 86.26" style="fill:#f1e8f6"/><polygon points="138.86 74.23 138.86 92.97 125.49 85.19 125.49 66.39 138.86 74.23" style="fill:#d1b4e3"/><polygon points="127.19 132.75 138.86 139.54 138.86 102.95 127.19 96.11 127.19 132.75" style="fill:url(#bk)"/><polygon points="127.19 132.75 138.86 102.95 127.19 96.11 127.19 132.75" style="fill:url(#bl)"/><polygon points="159.5 144.49 171.17 151.27 171.17 114.69 159.5 107.85 159.5 144.49" style="fill:url(#bm)"/><polygon points="159.5 144.49 171.17 114.69 159.5 107.85 159.5 144.49" style="opacity:0.5;fill:url(#bn)"/><polygon points="127.19 84.34 138.86 91.13 138.86 74.23 127.19 67.39 127.19 84.34" style="fill:url(#bo)"/><path d="M428.47,239.27v36.64l11.66,6.78V246.11Zm10.74,41.81-9.82-5.71V240.89l9.82,5.75Z" transform="translate(-268.96 -131.42)" style="opacity:0.5;fill:url(#bp)"/><polygon points="127.19 84.34 138.86 74.23 127.19 67.39 127.19 84.34" style="fill:url(#bq)"/><path d="M396.15,198.81v17l11.67,6.78v-16.9Zm10.75,22.13-9.82-5.71v-14.8l9.82,5.75Z" transform="translate(-268.96 -131.42)" style="opacity:0.5;fill:url(#br)"/><path d="M396.15,227.53v36.64L407.82,271V234.37Zm10.75,41.82-9.82-5.71V229.15l9.82,5.75Z" transform="translate(-268.96 -131.42)" style="opacity:0.5;fill:url(#bs)"/><polygon points="188.31 105.98 191.25 104.3 208.45 94.29 208.45 69.31 188.31 105.98" style="fill:#d1b4e3"/><polygon points="193.24 101 206.6 93.22 206.6 76.74 193.24 101" style="fill:#f1e8f6"/><polygon points="188.62 111.07 208.45 99.72 208.45 142.5 188.62 153.78 188.62 111.07" style="fill:#d1b4e3"/><polygon points="190.48 112.13 190.48 150.55 206.6 141.44 206.6 102.95 190.48 112.13" style="fill:#f1e8f6"/><polygon points="205.06 140.59 205.06 103.86 190.48 112.13 190.48 148.81 205.06 140.59" style="fill:url(#bt)"/><path d="M459.44,243.55v36.68L474,272V235.28Zm13.65,27.92-12.72,7.17V244.09l12.72-7.22Z" transform="translate(-268.96 -131.42)" style="fill:#e6e7e8;mix-blend-mode:multiply"/><polygon points="205.06 79.55 194.65 98.43 205.06 92.38 205.06 79.55" style="fill:url(#bu)"/><path d="M463.62,229.85l10.4-6V211Zm9.47-6.58-7,4.1,7-12.8Z" transform="translate(-268.96 -131.42)" style="opacity:0.5;fill:url(#bv)"/><polygon points="145.61 70.39 174.46 53.2 147.59 37.57 118.74 54.64 145.61 70.39" style="fill:url(#bw)"/><polygon points="184.21 160.71 184.21 162.96 221.41 141.86 221.41 139.6 184.21 160.71" style="fill:url(#bx)"/><polygon points="184.22 160.71 184.22 162.96 178.29 159.48 178.29 157.24 184.22 160.71" style="fill:url(#by)"/><polygon points="178.29 157.24 184.22 160.71 221.41 139.6 215.62 136.24 178.29 157.24" style="fill:url(#bz)"/><ellipse cx="461.85" cy="259.01" rx="1.34" ry="0.78" transform="translate(-263.81 395.57) rotate(-59.69)" style="fill:url(#ca)"/><polygon points="151.23 95.46 180.15 50.19 159.36 100.12 151.23 95.46" style="mix-blend-mode:multiply;fill:url(#cb)"/><polygon points="178.29 157.24 221.41 139.6 215.62 136.24 178.29 157.24" style="fill:url(#cc)"/><polygon points="258.15 81.79 258.15 118.65 259.89 119.3 259.89 80.85 258.15 81.79" style="fill:#f1e8f6"/><polygon points="210.55 48.54 210.55 49.78 131.62 4.28 131.62 3.04 210.55 48.54" style="fill:url(#cd)"/><polygon points="210.54 48.54 210.54 49.78 215.71 46.74 215.71 45.51 210.54 48.54" style="fill:url(#ce)"/><polygon points="215.71 45.51 210.54 48.54 131.62 3.04 136.81 0 215.71 45.51" style="fill:url(#cf)"/><polygon points="213.51 45.56 210.6 47.27 133.98 3.09 136.9 1.37 213.51 45.56" style="fill:url(#cg)"/><polygon points="136.91 3.2 135.55 4 133.98 3.09 136.91 1.37 213.51 45.56 211.94 46.48 136.91 3.2" style="fill:#d1d3d4;mix-blend-mode:multiply"/><path d="M470,313.55c-6.73-6.69-21.54-9-33.08-5.15-8,2.68-12.36,7.64-12,12.66l-7.33,2.44,1.41,1.41L381.7,337.33l-3.16,6.91,11,1.71,1.95-4.25,7.22,1.12,1.9-4.16,7.21,1.12,1.91-4.16,7.39,1.15,10.34-3.44,1.41,1.4,7.33-2.44a39.86,39.86,0,0,0,25,.33C472.79,328.78,476.69,320.24,470,313.55Zm-8.43,7.88c-3.62,1.21-8.26.48-10.37-1.61s-.89-4.78,2.73-6,8.26-.48,10.38,1.62S465.14,320.22,461.52,321.43Z" transform="translate(-268.96 -131.42)" style="opacity:0.5;mix-blend-mode:multiply;fill:url(#ch)"/><path d="M472.09,313.22c-9.47-5.47-24.79-5.5-34.21-.06-6.56,3.79-8.52,9.23-5.9,14l-6,3.46,2,1.14-30.42,17.57,0,7.16,11.38,0,0-4.41,7.46,0,0-4.31h7.46l0-4.31h7.65l8.43-4.87,2,1.15,6-3.45c8.32,1.51,17.75.38,24.31-3.41C481.62,327.54,481.57,318.69,472.09,313.22Zm-4.61,8.88a11.83,11.83,0,0,1-10.73,0c-3-1.71-3-4.49,0-6.19a11.83,11.83,0,0,1,10.73,0C470.42,317.62,470.43,320.4,467.48,322.1Z" transform="translate(-268.96 -131.42)" style="mix-blend-mode:multiply;fill:url(#ci)"/><path d="M470.5,312.36c-9.47-5.47-24.79-5.5-34.21-.06-6.56,3.79-8.51,9.23-5.9,14l-6,3.46,2,1.15L396,348.5l0,7.16,11.37,0,0-4.4h7.46l0-4.31h7.47l0-4.31,7.65,0,8.43-4.87,2,1.14,6-3.45c8.32,1.51,17.74.38,24.3-3.4C480,326.68,480,317.83,470.5,312.36Zm-4.61,8.88a11.83,11.83,0,0,1-10.73,0c-3-1.71-3-4.49,0-6.19a11.83,11.83,0,0,1,10.73,0C468.83,316.76,468.84,319.54,465.89,321.24Z" transform="translate(-268.96 -131.42)" style="fill:url(#cj)"/><path d="M470.5,308.93c-9.47-5.47-24.79-5.5-34.21-.06-6.56,3.79-8.51,9.23-5.9,14l-6,3.46,2,1.15L396,345.07l0,7.16,11.37,0,0-4.41,7.46,0,0-4.31h7.47l0-4.31,7.65,0,8.43-4.87,2,1.14,6-3.45c8.32,1.51,17.74.38,24.3-3.4C480,323.25,480,314.4,470.5,308.93Zm-4.61,8.88a11.83,11.83,0,0,1-10.73,0c-3-1.71-3-4.49,0-6.19a11.83,11.83,0,0,1,10.73,0C468.83,313.33,468.84,316.11,465.89,317.81Z" transform="translate(-268.96 -131.42)" style="fill:url(#ck)"/><path d="M402.21,346.82a.63.63,0,0,1-.31-1.18l31.44-18a.64.64,0,0,1,.87.23.63.63,0,0,1-.23.87l-31.45,18A.61.61,0,0,1,402.21,346.82Z" transform="translate(-268.96 -131.42)" style="mix-blend-mode:color-dodge;fill:url(#cl)"/><path d="M402.61,347.06a.63.63,0,0,1-.55-.32.64.64,0,0,1,.23-.87l31.45-18a.63.63,0,1,1,.63,1.1l-31.44,18A.72.72,0,0,1,402.61,347.06Z" transform="translate(-268.96 -131.42)" style="fill:url(#cm)"/><g style="mix-blend-mode:color-dodge"><path d="M430.39,322.54a8.89,8.89,0,0,1-1.1-3.82,8.47,8.47,0,0,0,.77,4Z" transform="translate(-268.96 -131.42)" style="fill:url(#cn)"/><polygon points="127.05 220.44 127.02 214.15 127.01 214.16 127.05 221.32 138.43 221.34 138.43 220.47 127.05 220.44" style="fill:url(#co)"/><path d="M465.85,311.25a11.89,11.89,0,0,0-10.73,0c-1.66,1-2.35,2.26-2.13,3.52a4,4,0,0,1,2.13-2.64,11.83,11.83,0,0,1,10.73,0A4,4,0,0,1,468,314.8C468.24,313.54,467.54,312.23,465.85,311.25Z" transform="translate(-268.96 -131.42)" style="fill:url(#cp)"/><polygon points="157.44 195.72 156.2 195.01 155.45 195.44 156.68 196.16 157.44 195.72" style="fill:url(#cq)"/><path d="M470.61,328.32c-6.56,3.79-16,4.92-24.3,3.41l-6,3.45-2-1.15-8.43,4.87h-7.65v.87h7.64l8.43-4.87,2,1.15,6-3.45c8.32,1.51,17.74.38,24.3-3.41,4.89-2.82,7.21-6.56,7-10.27C477.43,322.34,475.12,325.72,470.61,328.32Z" transform="translate(-268.96 -131.42)" style="fill:url(#cr)"/><polygon points="138.41 216.06 138.41 216.93 145.87 216.94 145.87 216.07 138.41 216.06" style="fill:url(#cs)"/><polygon points="145.85 211.76 145.85 212.63 153.31 212.65 153.31 211.77 145.85 211.76" style="fill:url(#ct)"/></g><polygon points="148.6 186.49 148.6 190.81 150.02 187.89 148.6 186.49" style="fill:url(#cu)"/><path d="M470,312c-6.73-6.69-21.54-9-33.08-5.15-8,2.68-12.36,7.63-12,12.66L417.57,322l1.41,1.4L381.7,335.8l-3.16,6.92,11,1.71,1.95-4.26,7.22,1.13,1.9-4.17,7.21,1.13,1.91-4.16,7.39,1.15,10.34-3.45,1.41,1.41,7.33-2.44a39.93,39.93,0,0,0,25,.33C472.79,327.25,476.69,318.71,470,312Zm-8.43,7.88c-3.62,1.2-8.26.48-10.37-1.62s-.89-4.77,2.73-6,8.26-.48,10.38,1.61S465.14,318.7,461.52,319.91Z" transform="translate(-268.96 -131.42)" style="opacity:0.5;mix-blend-mode:multiply;fill:url(#cv)"/><path d="M470,311.39c-6.73-6.69-21.54-9-33.08-5.15-8,2.68-12.36,7.64-12,12.66l-7.33,2.44,1.41,1.41L381.7,335.17l-3.16,6.91,11,1.71,1.95-4.25,7.22,1.12,1.9-4.16,7.21,1.12,1.91-4.16,7.39,1.15,10.34-3.44,1.41,1.4,7.33-2.44a39.86,39.86,0,0,0,25,.33C472.79,326.62,476.69,318.08,470,311.39Zm-8.43,7.88c-3.62,1.21-8.26.48-10.37-1.61s-.89-4.78,2.73-6,8.26-.48,10.38,1.62S465.14,318.06,461.52,319.27Z" transform="translate(-268.96 -131.42)" style="fill:url(#cw)"/><path d="M470,308c-6.73-6.69-21.54-9-33.08-5.15-8,2.68-12.36,7.64-12,12.66l-7.33,2.44,1.41,1.41L381.7,331.74l-3.16,6.91,11,1.71,1.95-4.25,7.22,1.12,1.9-4.16,7.21,1.12,1.91-4.16,7.39,1.15,10.34-3.44,1.41,1.4,7.33-2.44a39.86,39.86,0,0,0,25,.33C472.79,323.19,476.69,314.65,470,308Zm-8.43,7.88c-3.62,1.21-8.26.48-10.37-1.62s-.89-4.77,2.73-6,8.26-.48,10.38,1.62S465.14,314.63,461.52,315.84Z" transform="translate(-268.96 -131.42)" style="fill:url(#cx)"/><path d="M382.25,336.65l1.3-2.85,40.15-13.38-1.41-1.4,5.3-1.77-.16-2c-.3-3.94,3.72-7.88,10.24-10.06a37.4,37.4,0,0,1,23.25.25,15.17,15.17,0,0,0-3.27-.35,14.82,14.82,0,0,0-4.57.71c-2.89,1-4.85,2.79-5.37,5a5.47,5.47,0,0,0,1.65,5.18c1.85,1.84,5,2.93,8.4,2.93a14.58,14.58,0,0,0,4.57-.71c2.89-1,4.84-2.79,5.37-5a5.52,5.52,0,0,0-1.65-5.18L466,308a15.54,15.54,0,0,1,2.22,1.8c1.45,1.45,3,3.75,2.39,6.53-.79,3.37-4.57,6.48-10.12,8.33a35.84,35.84,0,0,1-11.19,1.73h0a36,36,0,0,1-12.18-2l-.83-.3-6.69,2.23-1.41-1.41-11.24,3.75-8.69-1.36-1.9,4.17-7.21-1.13-1.91,4.16L390,333.3l-2,4.25Z" transform="translate(-268.96 -131.42)" style="fill:url(#cy)"/><path d="M428.46,316.78l-.15-2c-.31-3.93,3.71-7.88,10.23-10.05A35.74,35.74,0,0,1,449.76,303a37.58,37.58,0,0,1,8.85,1.05,14.44,14.44,0,0,1,2.31.3,37.4,37.4,0,0,0-23.25-.25c-6.52,2.17-10.54,6.12-10.24,10.05l.16,2Z" transform="translate(-268.96 -131.42)" style="opacity:0.5;mix-blend-mode:multiply;fill:url(#cz)"/><polygon points="109.58 207.23 109.58 210.66 120.58 212.37 120.58 208.94 109.58 207.23" style="fill:url(#da)"/><polygon points="122.52 204.68 122.52 208.11 129.74 209.24 129.74 205.81 122.52 204.68" style="fill:url(#db)"/><polygon points="131.64 201.65 131.64 205.08 138.86 206.2 138.86 202.77 131.64 201.65" style="fill:url(#dc)"/><polygon points="140.76 198.61 140.76 202.04 148.16 203.19 148.16 199.76 140.76 198.61" style="fill:url(#dd)"/><polygon points="159.91 197.72 159.91 201.15 167.24 198.71 167.24 195.28 159.91 197.72" style="fill:url(#de)"/><g style="mix-blend-mode:color-dodge"><path d="M464.26,309.2c-2.12-2.1-6.76-2.82-10.38-1.61-2.74.91-4.1,2.66-3.7,4.36.3-1.29,1.59-2.5,3.7-3.2,3.62-1.2,8.26-.48,10.38,1.62a3.43,3.43,0,0,1,1,1.61A2.94,2.94,0,0,0,464.26,309.2Z" transform="translate(-268.96 -131.42)" style="fill:url(#df)"/><path d="M461.24,326.37a39.79,39.79,0,0,1-25-.33l-7.33,2.45-1.41-1.41-10.34,3.45-7.39-1.16-1.91,4.17-7.21-1.13-1.9,4.16-7.22-1.12-1.95,4.25L379,338.07l-.5,1.09,11,1.71,1.95-4.26,7.22,1.13,1.9-4.16,7.21,1.12,1.91-4.16,7.39,1.15,10.34-3.44,1.41,1.4,7.33-2.44a39.86,39.86,0,0,0,25,.33c8.05-2.68,12.37-7.65,12-12.68C472.91,319.48,468.67,323.9,461.24,326.37Z" transform="translate(-268.96 -131.42)" style="fill:url(#dg)"/></g><path d="M458.48,316.45l1.25-.19a7.81,7.81,0,0,1-1.3-4.78c0-6.64,4.71-14.77,10.51-18.12a8.86,8.86,0,0,1,4.28-1.34c2.9,0,4.64,2.4,4.64,6.41a22.37,22.37,0,0,1-4.47,12.42l.44.28c.73.71,1,1.23,1.8,1.94l-.07.2c3.31-4.37,5.47-9.88,5.47-14.84,0-5.82-3.07-9.58-7.81-9.58a11.81,11.81,0,0,0-5.87,1.76c-6.78,3.92-12.1,13.08-12.1,20.87a12,12,0,0,0,.94,4.89Z" transform="translate(-268.96 -131.42)" style="fill:url(#dh)"/><path d="M457.46,310.78c0-7,4.83-15.22,10.93-18.71,3.29-1.89,6.47-2.13,9-.67.18.11.35.24.53.36a7,7,0,0,0-1.74-1.46c-2.49-1.45-5.67-1.21-9,.67-6.11,3.5-10.91,11.72-10.94,18.72,0,3.09.91,5.58,2.66,7.18a6.38,6.38,0,0,0,.6.46A9.88,9.88,0,0,1,457.46,310.78Z" transform="translate(-268.96 -131.42)" style="mix-blend-mode:screen;fill:url(#di)"/><path d="M479.86,299.8c0-2.22-.67-3.89-1.85-4.58l-.2-.08a6.46,6.46,0,0,1,.87,3.59c0,5.49-2.74,9.32-4.67,12.33l1.35.75C476.58,310.07,479.84,305.19,479.86,299.8Z" transform="translate(-268.96 -131.42)" style="mix-blend-mode:screen;fill:url(#dj)"/><path d="M461,300a7.21,7.21,0,0,0-9,2.81c-2,3.06-1.13,6.77,1.86,8.29s7,.25,9-2.81S464,301.54,461,300Z" transform="translate(-268.96 -131.42)" style="mix-blend-mode:color-dodge;fill:url(#dk)"/><g style="opacity:0.5;mix-blend-mode:color-dodge"><path d="M386.12,334.28a.62.62,0,0,1-.6-.44.63.63,0,0,1,.4-.8l39.47-13a.64.64,0,1,1,.39,1.21l-39.46,13A.48.48,0,0,1,386.12,334.28Z" transform="translate(-268.96 -131.42)" style="fill:url(#dl)"/></g><g style="mix-blend-mode:color-dodge"><path d="M418.28,326.57a.63.63,0,0,1-.6-.43.64.64,0,0,1,.4-.81l9-3a.63.63,0,1,1,.39,1.2l-9,3A.69.69,0,0,1,418.28,326.57Z" transform="translate(-268.96 -131.42)" style="opacity:0.5;mix-blend-mode:color-dodge;fill:url(#dm)"/></g><path d="M386.33,334.59a.63.63,0,0,1-.6-.43.64.64,0,0,1,.4-.81l39.47-13a.64.64,0,0,1,.4,1.21l-39.47,13A.69.69,0,0,1,386.33,334.59Z" transform="translate(-268.96 -131.42)" style="fill:url(#dn)"/><path d="M418.49,326.89a.64.64,0,0,1-.2-1.24l9-3a.64.64,0,1,1,.39,1.21l-9,3A.64.64,0,0,1,418.49,326.89Z" transform="translate(-268.96 -131.42)" style="fill:url(#do)"/><path d="M457.84,326.91c2.89,2.64,3.87,6.28,2.18,8.13s-5.4,1.21-8.29-1.44-3.87-6.28-2.19-8.13S454.94,324.27,457.84,326.91Z" transform="translate(-268.96 -131.42)" style="mix-blend-mode:color-dodge;fill:url(#dp)"/><g style="mix-blend-mode:color-dodge"><polygon points="323.62 191.84 325.25 190.9 323.23 189.73 321.6 190.67 323.62 191.84" style="fill:url(#dq)"/><polygon points="319.54 198.19 321.17 197.25 319.14 196.08 317.51 197.02 319.54 198.19" style="fill:url(#dr)"/><polygon points="332.05 196.71 337.79 200.02 339.42 199.08 333.69 195.76 332.05 196.71" style="fill:url(#ds)"/><polygon points="330.7 195.93 332.34 194.99 326.6 191.67 324.97 192.62 330.7 195.93" style="fill:url(#dt)"/><polygon points="328.25 201.34 322.52 198.03 320.88 198.97 326.62 202.28 328.25 201.34" style="fill:url(#du)"/><polygon points="322.21 195.38 323.84 194.44 316.76 190.35 315.13 191.29 322.21 195.38" style="fill:url(#dv)"/><polygon points="329.83 197.89 325.19 195.22 323.56 196.16 328.2 198.84 329.83 197.89" style="fill:url(#dw)"/><polygon points="320.25 189.89 321.88 188.95 312.77 183.69 311.14 184.63 320.25 189.89" style="fill:url(#dx)"/><polygon points="342.68 205.31 338.52 202.91 336.88 203.85 341.05 206.26 342.68 205.31" style="fill:url(#dy)"/><polygon points="337.17 202.13 331.18 198.67 329.55 199.62 335.54 203.07 337.17 202.13" style="fill:url(#dz)"/><polygon points="311.42 182.91 309.77 181.95 308.13 182.9 309.79 183.85 311.42 182.91" style="fill:url(#ea)"/><polygon points="306.26 193 298.45 188.49 296.82 189.43 304.63 193.94 306.26 193" style="fill:url(#eb)"/><polygon points="307.34 189.26 302.23 186.31 300.59 187.25 305.7 190.21 307.34 189.26" style="fill:url(#ec)"/><polygon points="309.68 186.26 306 184.13 304.36 185.07 308.04 187.2 309.68 186.26" style="fill:url(#ed)"/><polygon points="313.78 190.51 315.41 189.57 311.02 187.03 309.39 187.98 313.78 190.51" style="fill:url(#ee)"/><polygon points="316.16 196.24 317.8 195.3 308.69 190.04 307.05 190.98 316.16 196.24" style="fill:url(#ef)"/><polygon points="309.27 196.62 310.9 195.68 307.61 193.78 305.98 194.72 309.27 196.62" style="fill:url(#eg)"/><polygon points="331.06 207.31 326.42 204.63 324.79 205.58 329.43 208.26 331.06 207.31" style="fill:url(#eh)"/><polygon points="316.64 198.99 312.25 196.45 310.62 197.4 315 199.93 316.64 198.99" style="fill:url(#ei)"/><polygon points="325.07 203.85 317.99 199.76 316.35 200.71 323.44 204.8 325.07 203.85" style="fill:url(#ej)"/></g><g style="mix-blend-mode:color-dodge"><polygon points="309.7 222.09 311.34 221.15 309.31 219.98 307.68 220.92 309.7 222.09" style="fill:url(#ek)"/><polygon points="305.62 228.44 307.25 227.5 305.23 226.33 303.59 227.27 305.62 228.44" style="fill:url(#el)"/><polygon points="318.14 226.96 323.87 230.27 325.51 229.33 319.77 226.01 318.14 226.96" style="fill:url(#em)"/><polygon points="316.79 226.18 318.42 225.24 312.69 221.92 311.05 222.87 316.79 226.18" style="fill:url(#en)"/><polygon points="314.34 231.59 308.6 228.28 306.97 229.22 312.7 232.53 314.34 231.59" style="fill:url(#eo)"/><polygon points="308.29 225.63 309.93 224.69 302.84 220.6 301.21 221.54 308.29 225.63" style="fill:url(#ep)"/><polygon points="315.92 228.14 311.28 225.47 309.64 226.41 314.28 229.09 315.92 228.14" style="fill:url(#eq)"/><polygon points="306.33 220.14 307.96 219.2 298.86 213.94 297.22 214.88 306.33 220.14" style="fill:url(#er)"/><polygon points="328.77 235.56 324.6 233.16 322.97 234.1 327.13 236.51 328.77 235.56" style="fill:url(#es)"/><polygon points="323.25 232.38 317.26 228.92 315.63 229.87 321.62 233.32 323.25 232.38" style="fill:url(#et)"/><polygon points="297.51 213.16 295.85 212.2 294.22 213.15 295.87 214.1 297.51 213.16" style="fill:url(#eu)"/><polygon points="292.35 223.25 284.54 218.74 282.9 219.68 290.71 224.19 292.35 223.25" style="fill:url(#ev)"/><polygon points="293.42 219.51 288.31 216.56 286.67 217.5 291.79 220.46 293.42 219.51" style="fill:url(#ew)"/><polygon points="295.76 216.51 292.08 214.38 290.44 215.32 294.12 217.45 295.76 216.51" style="fill:url(#ex)"/><polygon points="299.86 220.76 301.49 219.82 297.11 217.28 295.47 218.23 299.86 220.76" style="fill:url(#ey)"/><polygon points="302.24 226.49 303.88 225.55 294.77 220.29 293.14 221.23 302.24 226.49" style="fill:url(#ez)"/><polygon points="295.35 226.87 296.99 225.93 293.7 224.03 292.06 224.97 295.35 226.87" style="fill:url(#fa)"/><polygon points="317.14 237.56 312.5 234.88 310.87 235.83 315.51 238.51 317.14 237.56" style="fill:url(#fb)"/><polygon points="302.72 229.24 298.34 226.7 296.7 227.65 301.09 230.18 302.72 229.24" style="fill:url(#fc)"/><polygon points="311.15 234.1 304.07 230.01 302.44 230.96 309.52 235.05 311.15 234.1" style="fill:url(#fd)"/></g><path d="M482.93,348.67l-2.07,7.42L505,353.73c.85-.08,1.29-.62.88-1.05l-2.19-2.29a1.77,1.77,0,0,0-1.48-.34l-16.07,3,1.36-3.5c.12-.32-.15-.65-.67-.8l-2.08-.61C484,347.93,483.07,348.2,482.93,348.67Z" transform="translate(-268.96 -131.42)" style="fill:#7c1dc9;opacity:0.2;mix-blend-mode:color-dodge"/><path d="M482.93,346l-2.07,7.42L505,351.06c.85-.08,1.29-.62.88-1.05l-2.19-2.29a1.74,1.74,0,0,0-1.48-.33l-16.07,3,1.36-3.51c.12-.32-.15-.65-.67-.8l-2.08-.6C484,345.27,483.07,345.53,482.93,346Z" transform="translate(-268.96 -131.42)" style="fill:#7c1dc9;opacity:0.8;mix-blend-mode:color-dodge"/><path d="M555.92,343.25a1,1,0,0,0,.9,0l.38-.22-14.64-8.46-.39.22c-.25.14-.24.38,0,.52l.6.35-6.59,3.8-.45-.26a1,1,0,0,0-.9,0l-.61.35,14.35,8.28.61-.35c.24-.14.24-.37,0-.52l-.45-.26,6.59-3.8Zm-14.56-.81-3-1.71,6.58-3.8,3,1.71Zm5.17,3-3-1.71,6.59-3.81,3,1.72Zm2.41,2.9-15.58-9a1,1,0,0,0-.9,0l-.6.35,16.47,9.51.61-.35C549.19,348.71,549.19,348.48,548.94,348.33Zm-6.73-14.28,15.9,9.18c.27.15.72,0,.6-.22l-4-7-12.17-2.29C542.21,333.63,541.94,333.89,542.21,334.05Z" transform="translate(-268.96 -131.42)" style="fill:#7c1dc9;opacity:0.8;mix-blend-mode:color-dodge"/><path d="M569.28,306.13l1-.61a.31.31,0,0,0,0-.59,1.13,1.13,0,0,0-1,0l-1,.6c-4.55-2.35-11.07-2.53-14.87-.33.75-.44,2.59-.08,4.11.79s2.14,1.94,1.38,2.38c.67-.39,2.18-.15,3.57.51l-7.22,4.17a1.67,1.67,0,0,1-1.54,0c-.43-.25-.43-.64,0-.89l.26-.15a.31.31,0,0,0,0-.59,1.17,1.17,0,0,0-1,0l-.26.15a1.09,1.09,0,0,0,0,2.07,4,4,0,0,0,3.6,0l7.22-4.17c1.15.8,1.56,1.67.89,2.06.76-.44,2.6-.08,4.12.8s2.13,1.93,1.38,2.37C573.66,312.51,573.35,308.75,569.28,306.13Z" transform="translate(-268.96 -131.42)" style="fill:#7c1dc9;opacity:0.8;mix-blend-mode:color-dodge"/><polygon points="99.96 171.07 99.96 136.54 62.08 114.68 62.08 149.2 99.96 171.07" style="stroke:#000;stroke-miterlimit:10;stroke-width:0.01800000098347665px;opacity:0.30000001192092896;isolation:isolate;fill:url(#fe)"/><polygon points="49.45 156.5 62.08 149.2 62.08 114.68 49.45 121.97 49.45 156.5" style="stroke:#000;stroke-miterlimit:10;stroke-width:0.01800000098347665px;opacity:0.699999988079071;isolation:isolate;fill:url(#ff)"/><polygon points="99.96 171.07 62.08 149.2 49.45 156.5 87.33 178.36 99.96 171.07" style="stroke:#000;stroke-miterlimit:10;stroke-width:0.01800000098347665px;opacity:0.699999988079071;isolation:isolate;fill:url(#fg)"/><polygon points="87.33 178.36 87.33 143.83 49.45 121.97 49.45 156.5 87.33 178.36" style="fill:#fae800;stroke:#000;stroke-miterlimit:10;stroke-width:0.01800000098347665px"/><polygon points="87.33 178.36 99.96 171.07 99.96 136.54 87.33 143.83 87.33 178.36" style="fill:#fe8800;stroke:#000;stroke-miterlimit:10;stroke-width:0.01800000098347665px"/><polygon points="99.96 136.54 62.08 114.68 49.45 121.97 87.33 143.83 99.96 136.54" style="fill:#fea400;stroke:#000;stroke-miterlimit:10;stroke-width:0.01800000098347665px"/><path d="M359.85,252.77a25.94,25.94,0,0,0-12.92-22.38A12.2,12.2,0,0,0,328.64,241v13.29h0c0,1.36,1.78,2.45,3.91,2.41s3.86-1.17,3.83-2.54h0V240.94a4.46,4.46,0,0,1,6.68-3.86,18.13,18.13,0,0,1,9.05,15.66v15h0c0,1.37,1.77,2.45,3.91,2.41s3.85-1.16,3.83-2.54h0Z" transform="translate(-268.96 -131.42)" style="fill:#fe8800;stroke:#000;stroke-miterlimit:10;stroke-width:0.01800000098347665px"/></g></svg>